<svg xmlns="http://www.w3.org/2000/svg" xmlns:xlink="http://www.w3.org/1999/xlink" width="500" zoomAndPan="magnify" viewBox="0 0 375 374.999991" height="500" preserveAspectRatio="xMidYMid meet" version="1.0"><defs><clipPath id="a195e3f1d0"><path d="M 181 71.066406 L 186 71.066406 L 186 121 L 181 121 Z M 181 71.066406 " clip-rule="nonzero"/></clipPath><clipPath id="685498b7b2"><path d="M 183 253 L 189 253 L 189 303.566406 L 183 303.566406 Z M 183 253 " clip-rule="nonzero"/></clipPath><clipPath id="48604a08bb"><path d="M 90.425781 187 L 141 187 L 141 193 L 90.425781 193 Z M 90.425781 187 " clip-rule="nonzero"/></clipPath><clipPath id="ee1f92b5a7"><path d="M 234 184 L 284.675781 184 L 284.675781 189 L 234 189 Z M 234 184 " clip-rule="nonzero"/></clipPath></defs><path fill="#c9974e" d="M 183.625 143.472656 C 181.316406 153.238281 178.921875 158.597656 175.304688 165.746094 C 169.859375 176.488281 163.246094 184.183594 153.890625 190.113281 C 167.542969 202.484375 172.433594 205.96875 180.195312 221.277344 C 182.289062 225.40625 184.191406 231.128906 185.539062 235.46875 C 187.027344 230.921875 189.425781 224.214844 192.640625 217.253906 C 199.019531 203.457031 211.230469 191.875 216.042969 187.332031 C 208.960938 183.363281 201.980469 177.925781 197.148438 172.246094 C 189.742188 163.542969 185.730469 151.796875 183.625 143.472656 Z M 149.230469 187.898438 C 148.632812 188.238281 148.234375 188.84375 148.15625 189.523438 C 148.085938 190.210938 148.339844 190.886719 148.84375 191.351562 C 163.601562 204.84375 168.480469 207.710938 176.34375 223.21875 C 179.71875 229.871094 182.554688 240.777344 183.324219 242.851562 C 184.011719 244.675781 185.640625 244.613281 185.902344 244.570312 C 186.253906 244.503906 187.175781 244.242188 187.730469 242.976562 C 188.554688 241.089844 190.851562 231.40625 196.558594 219.058594 C 203.648438 203.726562 218.289062 191.292969 220.769531 188.765625 C 221.441406 188.082031 221.648438 187.515625 221.691406 187.320312 C 221.835938 186.707031 221.710938 186.230469 221.539062 185.863281 C 221.332031 185.441406 221.023438 185.101562 220.5625 184.871094 C 213.132812 181.089844 205.515625 175.421875 200.441406 169.460938 C 189.398438 156.480469 186.445312 136.3125 185.847656 132.976562 C 185.625 131.722656 184.996094 131.207031 184.914062 131.148438 C 184.105469 130.539062 183.324219 130.585938 182.613281 130.957031 C 182.335938 131.101562 181.671875 131.453125 181.484375 132.496094 C 178.503906 148.78125 175.992188 154.835938 171.457031 163.804688 C 165.949219 174.667969 159.1875 182.195312 149.230469 187.898438 " fill-opacity="1" fill-rule="evenodd"/><g clip-path="url(#a195e3f1d0)"><path fill="#c9974e" d="M 185.324219 118.71875 C 185.34375 115.039062 185.484375 83.484375 185.601562 73.339844 C 185.613281 72.152344 184.65625 71.175781 183.464844 71.160156 C 182.273438 71.148438 181.296875 72.105469 181.285156 73.292969 C 181.167969 83.445312 181.03125 115.015625 181.007812 118.695312 C 181.003906 119.882812 181.964844 120.851562 183.15625 120.863281 C 184.347656 120.867188 185.320312 119.910156 185.324219 118.71875 " fill-opacity="1" fill-rule="evenodd"/></g><g clip-path="url(#685498b7b2)"><path fill="#c9974e" d="M 187.761719 301.335938 C 187.78125 297.652344 187.921875 266.101562 188.035156 255.953125 C 188.046875 254.765625 187.09375 253.792969 185.902344 253.777344 C 184.710938 253.765625 183.730469 254.71875 183.71875 255.90625 C 183.605469 266.058594 183.46875 297.625 183.445312 301.3125 C 183.441406 302.5 184.402344 303.46875 185.589844 303.472656 C 186.78125 303.484375 187.757812 302.523438 187.761719 301.335938 " fill-opacity="1" fill-rule="evenodd"/></g><g clip-path="url(#48604a08bb)"><path fill="#c9974e" d="M 138.089844 188.25 C 134.402344 188.234375 102.785156 188.089844 92.613281 187.980469 C 91.421875 187.964844 90.449219 188.921875 90.433594 190.109375 C 90.421875 191.292969 91.375 192.273438 92.566406 192.285156 C 102.742188 192.394531 134.375 192.539062 138.070312 192.554688 C 139.261719 192.566406 140.230469 191.605469 140.234375 190.417969 C 140.242188 189.226562 139.28125 188.257812 138.089844 188.25 " fill-opacity="1" fill-rule="evenodd"/></g><g clip-path="url(#ee1f92b5a7)"><path fill="#c9974e" d="M 282.515625 184.613281 C 278.832031 184.59375 247.210938 184.457031 237.042969 184.339844 C 235.851562 184.328125 234.875 185.285156 234.859375 186.472656 C 234.847656 187.660156 235.804688 188.632812 236.992188 188.648438 C 247.167969 188.761719 278.804688 188.902344 282.496094 188.917969 C 283.6875 188.925781 284.65625 187.964844 284.664062 186.777344 C 284.667969 185.589844 283.707031 184.621094 282.515625 184.613281 " fill-opacity="1" fill-rule="evenodd"/></g><path fill="#c9974e" d="M 223.917969 157.945312 C 225.9375 157.019531 243.222656 148.996094 248.851562 146.585938 C 249.949219 146.117188 250.457031 144.851562 249.984375 143.757812 C 249.519531 142.667969 248.246094 142.160156 247.15625 142.628906 C 241.496094 145.046875 224.136719 153.101562 222.109375 154.035156 C 221.03125 154.53125 220.558594 155.808594 221.050781 156.890625 C 221.550781 157.96875 222.835938 158.441406 223.917969 157.945312 " fill-opacity="1" fill-rule="evenodd"/><path fill="#c9974e" d="M 146.222656 154.84375 C 144.195312 153.910156 126.835938 145.859375 121.183594 143.4375 C 120.089844 142.96875 118.820312 143.476562 118.347656 144.570312 C 117.878906 145.660156 118.386719 146.925781 119.484375 147.394531 C 125.117188 149.808594 142.402344 157.828125 144.421875 158.753906 C 145.503906 159.25 146.785156 158.78125 147.28125 157.699219 C 147.78125 156.617188 147.308594 155.339844 146.222656 154.84375 " fill-opacity="1" fill-rule="evenodd"/><path fill="#c9974e" d="M 225.132812 215.683594 C 227.164062 216.613281 244.519531 224.664062 250.179688 227.089844 C 251.269531 227.554688 252.539062 227.050781 253.007812 225.957031 C 253.480469 224.871094 252.972656 223.597656 251.878906 223.132812 C 246.246094 220.722656 228.960938 212.699219 226.9375 211.773438 C 225.859375 211.273438 224.578125 211.746094 224.078125 212.828125 C 223.582031 213.910156 224.054688 215.1875 225.132812 215.683594 " fill-opacity="1" fill-rule="evenodd"/><path fill="#c9974e" d="M 143.671875 212.839844 C 141.652344 213.765625 124.363281 221.789062 118.730469 224.203125 C 117.636719 224.667969 117.128906 225.9375 117.597656 227.03125 C 118.070312 228.121094 119.335938 228.628906 120.433594 228.15625 C 126.085938 225.738281 143.445312 217.6875 145.476562 216.75 C 146.558594 216.257812 147.027344 214.976562 146.53125 213.894531 C 146.035156 212.816406 144.75 212.347656 143.671875 212.839844 " fill-opacity="1" fill-rule="evenodd"/><path fill="#c9974e" d="M 210.816406 138.824219 C 212.183594 137.074219 223.867188 122.042969 227.761719 117.324219 C 228.519531 116.40625 228.386719 115.050781 227.472656 114.289062 C 226.554688 113.535156 225.191406 113.664062 224.433594 114.582031 C 220.519531 119.320312 208.789062 134.417969 207.417969 136.171875 C 206.683594 137.109375 206.847656 138.464844 207.789062 139.191406 C 208.722656 139.925781 210.082031 139.761719 210.816406 138.824219 " fill-opacity="1" fill-rule="evenodd"/><path fill="#c9974e" d="M 160.921875 136.984375 C 159.542969 135.226562 147.816406 120.128906 143.902344 115.394531 C 143.144531 114.476562 141.785156 114.347656 140.867188 115.101562 C 139.945312 115.859375 139.816406 117.214844 140.570312 118.132812 C 144.472656 122.851562 156.15625 137.882812 157.523438 139.632812 C 158.253906 140.570312 159.609375 140.734375 160.550781 140 C 161.488281 139.273438 161.65625 137.917969 160.921875 136.984375 " fill-opacity="1" fill-rule="evenodd"/><path fill="#c9974e" d="M 210.441406 233.542969 C 211.8125 235.300781 223.542969 250.394531 227.460938 255.136719 C 228.214844 256.050781 229.578125 256.183594 230.492188 255.425781 C 231.414062 254.671875 231.546875 253.3125 230.789062 252.398438 C 226.890625 247.675781 215.210938 232.644531 213.839844 230.894531 C 213.105469 229.957031 211.75 229.789062 210.8125 230.523438 C 209.871094 231.253906 209.707031 232.609375 210.441406 233.542969 " fill-opacity="1" fill-rule="evenodd"/><path fill="#c9974e" d="M 156.769531 231.964844 C 155.398438 233.714844 143.71875 248.746094 139.820312 253.464844 C 139.0625 254.382812 139.195312 255.738281 140.113281 256.496094 C 141.035156 257.25 142.394531 257.121094 143.152344 256.203125 C 147.066406 251.46875 158.796875 236.367188 160.171875 234.613281 C 160.90625 233.679688 160.734375 232.328125 159.800781 231.59375 C 158.859375 230.863281 157.503906 231.027344 156.769531 231.964844 " fill-opacity="1" fill-rule="evenodd"/></svg>