<svg xmlns="http://www.w3.org/2000/svg" xmlns:xlink="http://www.w3.org/1999/xlink" width="500" zoomAndPan="magnify" viewBox="0 0 375 374.999991" height="500" preserveAspectRatio="xMidYMid meet" version="1.0"><defs><clipPath id="d0bbe07403"><path d="M 132 38 L 242.960938 38 L 242.960938 150 L 132 150 Z M 132 38 " clip-rule="nonzero"/></clipPath></defs><g clip-path="url(#d0bbe07403)"><path fill="#ce9f41" d="M 187.460938 38.113281 C 156.882812 38.113281 132.015625 62.992188 132.015625 93.585938 C 132.015625 124.183594 156.882812 149.0625 187.460938 149.0625 C 218.039062 149.0625 242.90625 124.183594 242.90625 93.585938 C 242.90625 62.992188 218.039062 38.113281 187.460938 38.113281 Z M 187.460938 146.367188 C 158.363281 146.367188 134.710938 122.699219 134.710938 93.585938 C 134.710938 64.476562 158.363281 40.808594 187.460938 40.808594 C 216.558594 40.808594 240.214844 64.476562 240.214844 93.585938 C 240.214844 122.699219 216.558594 146.367188 187.460938 146.367188 Z M 187.460938 146.367188 " fill-opacity="1" fill-rule="nonzero"/></g><path fill="#ce9f41" d="M 187.460938 186.988281 C 166.984375 186.988281 150.308594 203.648438 150.308594 224.132812 C 150.308594 244.621094 166.960938 261.304688 187.460938 261.304688 C 207.964844 261.304688 224.613281 244.648438 224.613281 224.132812 C 224.613281 203.675781 207.9375 186.988281 187.460938 186.988281 Z M 187.460938 258.609375 C 168.46875 258.609375 153.003906 243.136719 153.003906 224.132812 C 153.003906 205.128906 168.46875 189.683594 187.460938 189.683594 C 206.457031 189.683594 221.921875 205.15625 221.921875 224.132812 C 221.921875 243.164062 206.457031 258.609375 187.460938 258.609375 Z M 187.460938 258.609375 " fill-opacity="1" fill-rule="nonzero"/><path fill="#ce9f41" d="M 187.460938 299.261719 C 172.535156 299.261719 160.414062 311.390625 160.414062 326.324219 C 160.414062 341.257812 172.535156 353.386719 187.460938 353.386719 C 202.386719 353.386719 214.511719 341.257812 214.511719 326.324219 C 214.511719 311.390625 202.386719 299.261719 187.460938 299.261719 Z M 187.460938 350.691406 C 174.019531 350.691406 163.105469 339.746094 163.105469 326.324219 C 163.105469 312.898438 174.042969 301.957031 187.460938 301.957031 C 200.878906 301.957031 211.816406 312.898438 211.816406 326.324219 C 211.816406 339.746094 200.90625 350.691406 187.460938 350.691406 Z M 187.460938 350.691406 " fill-opacity="1" fill-rule="nonzero"/></svg>