<svg xmlns="http://www.w3.org/2000/svg" xmlns:xlink="http://www.w3.org/1999/xlink" width="500" zoomAndPan="magnify" viewBox="0 0 375 374.999991" height="500" preserveAspectRatio="xMidYMid meet" version="1.0"><defs><clipPath id="bc92bf1c1a"><path d="M 30.234375 119.605469 L 344 119.605469 L 344 232.105469 L 30.234375 232.105469 Z M 30.234375 119.605469 " clip-rule="nonzero"/></clipPath></defs><g clip-path="url(#bc92bf1c1a)"><path fill="#ce9f41" d="M 287.453125 119.554688 L 285.5625 121.417969 L 338.664062 174.523438 L 287.054688 174.523438 L 232.058594 119.554688 L 230.164062 121.417969 L 283.265625 174.523438 L 231.660156 174.523438 L 176.664062 119.554688 L 174.769531 121.417969 L 227.898438 174.523438 L 176.261719 174.523438 L 121.269531 119.554688 L 119.375 121.417969 L 172.503906 174.523438 L 30.960938 174.523438 L 30.960938 177.1875 L 172.503906 177.1875 L 119.375 230.292969 L 121.269531 232.160156 L 176.261719 177.1875 L 227.898438 177.1875 L 174.769531 230.292969 L 176.664062 232.160156 L 231.660156 177.1875 L 283.265625 177.1875 L 230.164062 230.292969 L 232.058594 232.160156 L 287.054688 177.1875 L 338.664062 177.1875 L 285.5625 230.292969 L 287.453125 232.160156 L 343.785156 175.855469 Z M 287.453125 119.554688 " fill-opacity="1" fill-rule="nonzero"/></g></svg>