<svg xmlns="http://www.w3.org/2000/svg" xmlns:xlink="http://www.w3.org/1999/xlink" width="500" zoomAndPan="magnify" viewBox="0 0 375 374.999991" height="500" preserveAspectRatio="xMidYMid meet" version="1.0"><defs><clipPath id="787362d477"><path d="M 197 75.738281 L 260 75.738281 L 260 103 L 197 103 Z M 197 75.738281 " clip-rule="nonzero"/></clipPath><clipPath id="8d071301ca"><path d="M 116 75.738281 L 178 75.738281 L 178 103 L 116 103 Z M 116 75.738281 " clip-rule="nonzero"/></clipPath><clipPath id="569cb05c87"><path d="M 61 115 L 314 115 L 314 299.238281 L 61 299.238281 Z M 61 115 " clip-rule="nonzero"/></clipPath></defs><g clip-path="url(#787362d477)"><path fill="#ce9f41" d="M 259.265625 101.15625 C 241.761719 86.609375 220.554688 77.832031 197.921875 75.757812 L 197.726562 77.917969 C 219.90625 79.929688 240.722656 88.554688 257.878906 102.820312 Z M 259.265625 101.15625 " fill-opacity="1" fill-rule="nonzero"/></g><g clip-path="url(#8d071301ca)"><path fill="#ce9f41" d="M 177.257812 77.941406 L 177.0625 75.78125 C 154.535156 77.875 133.417969 86.652344 116 101.132812 L 117.382812 102.796875 C 134.457031 88.597656 155.164062 79.996094 177.257812 77.941406 Z M 177.257812 77.941406 " fill-opacity="1" fill-rule="nonzero"/></g><g clip-path="url(#569cb05c87)"><path fill="#ce9f41" d="M 313.945312 187.25 C 313.945312 178.820312 307.085938 171.945312 298.648438 171.921875 C 295.8125 151.238281 287.242188 131.804688 273.828125 115.679688 L 272.160156 117.066406 C 285.296875 132.84375 293.691406 151.84375 296.484375 172.097656 C 289.039062 173.132812 283.285156 179.53125 283.285156 187.25 C 283.285156 194.964844 289.039062 201.363281 296.484375 202.402344 C 289.019531 256.4375 242.429688 297.054688 187.621094 297.054688 C 132.832031 297.054688 86.222656 256.4375 78.757812 202.402344 C 86.203125 201.363281 91.957031 194.964844 91.957031 187.25 C 91.957031 179.53125 86.203125 173.132812 78.757812 172.097656 C 81.550781 151.886719 89.925781 132.910156 103.035156 117.128906 L 101.371094 115.746094 C 87.976562 131.871094 79.429688 151.28125 76.59375 171.945312 C 68.15625 171.96875 61.296875 178.820312 61.296875 187.269531 C 61.296875 195.699219 68.15625 202.574219 76.617188 202.59375 C 84.148438 257.734375 131.707031 299.214844 187.621094 299.214844 C 243.535156 299.214844 291.09375 257.734375 298.648438 202.574219 C 307.085938 202.550781 313.945312 195.699219 313.945312 187.25 Z M 63.460938 187.25 C 63.460938 179.984375 69.367188 174.085938 76.636719 174.085938 C 83.910156 174.085938 89.816406 179.984375 89.816406 187.25 C 89.816406 194.511719 83.910156 200.414062 76.636719 200.414062 C 69.367188 200.414062 63.460938 194.511719 63.460938 187.25 Z M 298.625 200.414062 C 291.355469 200.414062 285.449219 194.511719 285.449219 187.25 C 285.449219 179.984375 291.355469 174.085938 298.625 174.085938 C 305.894531 174.085938 311.804688 179.984375 311.804688 187.25 C 311.78125 194.511719 305.875 200.414062 298.625 200.414062 Z M 298.625 200.414062 " fill-opacity="1" fill-rule="nonzero"/></g></svg>