<svg xmlns="http://www.w3.org/2000/svg" xmlns:xlink="http://www.w3.org/1999/xlink" width="500" zoomAndPan="magnify" viewBox="0 0 375 374.999991" height="500" preserveAspectRatio="xMidYMid meet" version="1.0"><defs><clipPath id="a131fabfe7"><path d="M 33 157.039062 L 344 157.039062 L 344 205.789062 L 33 205.789062 Z M 33 157.039062 " clip-rule="nonzero"/></clipPath></defs><g clip-path="url(#a131fabfe7)"><path fill="#c9974e" d="M 212.605469 181.089844 L 212.078125 181.089844 C 205.855469 181.089844 199.617188 178.890625 194.6875 175.078125 C 190.835938 170.242188 188.71875 163.757812 188.722656 157.566406 L 188.722656 157.253906 L 188.71875 157.253906 L 188.71875 157.039062 L 188.09375 157.039062 L 188.09375 157.566406 C 188.09375 163.753906 185.964844 170.234375 182.128906 175.074219 C 177.195312 178.886719 170.957031 181.089844 164.734375 181.089844 L 33.179688 181.089844 L 33.179688 181.722656 L 164.746094 181.722656 C 171.011719 181.75 177.136719 183.925781 182.132812 187.71875 C 185.914062 192.6875 188.09375 198.972656 188.09375 205.242188 L 188.09375 205.773438 L 188.722656 205.773438 L 188.722656 205.242188 L 188.71875 205.242188 C 188.71875 205.238281 188.71875 205.234375 188.71875 205.230469 C 188.722656 198.972656 190.894531 192.675781 194.679688 187.722656 C 199.675781 183.917969 205.808594 181.746094 212.082031 181.722656 C 212.148438 181.722656 212.222656 181.722656 212.292969 181.722656 L 343.632812 181.722656 L 343.632812 181.089844 Z M 212.605469 181.089844 " fill-opacity="1" fill-rule="nonzero"/></g></svg>