<svg xmlns="http://www.w3.org/2000/svg" xmlns:xlink="http://www.w3.org/1999/xlink" width="500" zoomAndPan="magnify" viewBox="0 0 375 374.999991" height="500" preserveAspectRatio="xMidYMid meet" version="1.0"><defs><clipPath id="73e5aba522"><path d="M 34.398438 34.398438 L 339.648438 34.398438 L 339.648438 339.648438 L 34.398438 339.648438 Z M 34.398438 34.398438 " clip-rule="nonzero"/></clipPath></defs><path fill="#bd7877" d="M 149.152344 162.410156 C 149.152344 163.652344 149.214844 164.890625 149.335938 166.125 C 149.457031 167.359375 149.636719 168.582031 149.878906 169.800781 C 150.121094 171.015625 150.421875 172.21875 150.78125 173.40625 C 151.144531 174.589844 151.558594 175.757812 152.035156 176.902344 C 152.507812 178.050781 153.039062 179.167969 153.625 180.261719 C 154.207031 181.355469 154.84375 182.417969 155.535156 183.449219 C 156.222656 184.480469 156.960938 185.476562 157.75 186.4375 C 158.535156 187.394531 159.367188 188.3125 160.242188 189.191406 C 161.121094 190.066406 162.039062 190.898438 162.996094 191.683594 C 163.957031 192.472656 164.953125 193.210938 165.984375 193.898438 C 167.015625 194.589844 168.078125 195.226562 169.171875 195.808594 C 170.265625 196.394531 171.382812 196.925781 172.53125 197.398438 C 173.675781 197.875 174.84375 198.289062 176.027344 198.652344 C 177.214844 199.011719 178.417969 199.3125 179.632812 199.554688 C 180.851562 199.796875 182.074219 199.976562 183.308594 200.097656 C 184.542969 200.222656 185.78125 200.28125 187.023438 200.28125 C 188.261719 200.28125 189.5 200.222656 190.734375 200.097656 C 191.96875 199.976562 193.195312 199.796875 194.410156 199.554688 C 195.625 199.3125 196.828125 199.011719 198.015625 198.652344 C 199.203125 198.289062 200.367188 197.875 201.515625 197.398438 C 202.660156 196.925781 203.78125 196.394531 204.875 195.808594 C 205.96875 195.226562 207.03125 194.589844 208.0625 193.898438 C 209.09375 193.210938 210.089844 192.472656 211.046875 191.683594 C 212.003906 190.898438 212.921875 190.066406 213.800781 189.191406 C 214.675781 188.3125 215.507812 187.394531 216.296875 186.4375 C 217.082031 185.476562 217.820312 184.480469 218.511719 183.449219 C 219.199219 182.417969 219.835938 181.355469 220.421875 180.261719 C 221.003906 179.167969 221.535156 178.050781 222.007812 176.902344 C 222.484375 175.757812 222.902344 174.589844 223.261719 173.40625 C 223.621094 172.21875 223.921875 171.015625 224.164062 169.800781 C 224.40625 168.582031 224.589844 167.359375 224.710938 166.125 C 224.832031 164.890625 224.890625 163.652344 224.890625 162.410156 C 222.839844 112.140625 151.203125 112.140625 149.152344 162.410156 Z M 187.023438 190.21875 C 186.109375 190.21875 185.203125 190.171875 184.292969 190.082031 C 183.386719 189.992188 182.488281 189.855469 181.59375 189.679688 C 180.699219 189.5 179.816406 189.277344 178.945312 189.011719 C 178.074219 188.746094 177.214844 188.441406 176.375 188.089844 C 175.53125 187.742188 174.710938 187.351562 173.90625 186.921875 C 173.101562 186.488281 172.320312 186.019531 171.566406 185.515625 C 170.808594 185.007812 170.078125 184.464844 169.371094 183.886719 C 168.667969 183.304688 167.996094 182.695312 167.351562 182.050781 C 166.707031 181.40625 166.09375 180.730469 165.519531 180.023438 C 164.941406 179.320312 164.398438 178.585938 163.894531 177.828125 C 163.386719 177.070312 162.917969 176.289062 162.492188 175.484375 C 162.0625 174.679688 161.671875 173.859375 161.324219 173.015625 C 160.976562 172.171875 160.671875 171.316406 160.40625 170.445312 C 160.144531 169.570312 159.921875 168.6875 159.746094 167.792969 C 159.570312 166.898438 159.4375 166 159.347656 165.089844 C 159.257812 164.183594 159.214844 163.273438 159.214844 162.363281 C 159.214844 161.453125 159.261719 160.542969 159.351562 159.636719 C 159.441406 158.730469 159.578125 157.828125 159.753906 156.933594 C 159.933594 156.039062 160.15625 155.15625 160.421875 154.285156 C 160.6875 153.414062 160.992188 152.558594 161.34375 151.714844 C 161.691406 150.875 162.082031 150.050781 162.511719 149.246094 C 162.945312 148.445312 163.414062 147.664062 163.917969 146.90625 C 164.425781 146.148438 164.96875 145.417969 165.546875 144.714844 C 166.128906 144.007812 166.738281 143.335938 167.382812 142.691406 C 168.027344 142.046875 168.703125 141.4375 169.410156 140.859375 C 170.113281 140.28125 170.847656 139.738281 171.605469 139.234375 C 172.363281 138.730469 173.144531 138.261719 173.949219 137.832031 C 174.753906 137.402344 175.574219 137.015625 176.417969 136.667969 C 177.261719 136.320312 178.117188 136.011719 178.992188 135.75 C 179.863281 135.484375 180.746094 135.265625 181.640625 135.085938 C 182.535156 134.910156 183.433594 134.777344 184.34375 134.6875 C 185.25 134.601562 186.160156 134.554688 187.070312 134.558594 C 187.980469 134.558594 188.890625 134.605469 189.796875 134.695312 C 190.703125 134.785156 191.605469 134.917969 192.5 135.097656 C 193.394531 135.273438 194.277344 135.496094 195.148438 135.761719 C 196.019531 136.027344 196.875 136.335938 197.71875 136.683594 C 198.558594 137.035156 199.382812 137.425781 200.1875 137.855469 C 200.988281 138.285156 201.769531 138.753906 202.527344 139.261719 C 203.285156 139.769531 204.015625 140.3125 204.71875 140.890625 C 205.425781 141.46875 206.097656 142.082031 206.742188 142.726562 C 207.386719 143.371094 207.996094 144.046875 208.574219 144.75 C 209.152344 145.457031 209.695312 146.1875 210.199219 146.945312 C 210.707031 147.703125 211.171875 148.484375 211.601562 149.289062 C 212.03125 150.09375 212.417969 150.917969 212.765625 151.757812 C 213.113281 152.601562 213.421875 153.460938 213.683594 154.332031 C 213.949219 155.203125 214.167969 156.085938 214.347656 156.980469 C 214.523438 157.875 214.65625 158.777344 214.746094 159.683594 C 214.832031 160.589844 214.878906 161.5 214.875 162.410156 C 214.875 163.324219 214.832031 164.230469 214.738281 165.140625 C 214.648438 166.046875 214.515625 166.945312 214.335938 167.839844 C 214.160156 168.734375 213.9375 169.617188 213.671875 170.488281 C 213.40625 171.359375 213.097656 172.21875 212.75 173.058594 C 212.398438 173.902344 212.007812 174.722656 211.578125 175.527344 C 211.148438 176.332031 210.679688 177.113281 210.171875 177.867188 C 209.664062 178.625 209.121094 179.355469 208.542969 180.0625 C 207.964844 180.765625 207.351562 181.4375 206.707031 182.082031 C 206.0625 182.726562 205.386719 183.339844 204.683594 183.914062 C 203.976562 184.492188 203.246094 185.035156 202.488281 185.539062 C 201.730469 186.046875 200.949219 186.515625 200.144531 186.941406 C 199.339844 187.371094 198.515625 187.761719 197.675781 188.109375 C 196.832031 188.457031 195.972656 188.761719 195.101562 189.027344 C 194.230469 189.289062 193.347656 189.511719 192.453125 189.6875 C 191.558594 189.863281 190.65625 189.996094 189.75 190.085938 C 188.84375 190.175781 187.933594 190.21875 187.023438 190.21875 Z M 187.023438 190.21875 " fill-opacity="1" fill-rule="nonzero"/><g clip-path="url(#73e5aba522)"><path fill="#bd7877" d="M 187.023438 34.398438 C 184.523438 34.398438 182.027344 34.457031 179.535156 34.582031 C 177.039062 34.703125 174.546875 34.886719 172.0625 35.132812 C 169.578125 35.378906 167.097656 35.683594 164.628906 36.050781 C 162.15625 36.414062 159.695312 36.84375 157.246094 37.328125 C 154.796875 37.816406 152.359375 38.363281 149.9375 38.972656 C 147.515625 39.578125 145.109375 40.242188 142.71875 40.96875 C 140.328125 41.695312 137.957031 42.476562 135.605469 43.320312 C 133.253906 44.160156 130.921875 45.058594 128.613281 46.015625 C 126.308594 46.972656 124.023438 47.984375 121.765625 49.050781 C 119.507812 50.117188 117.277344 51.242188 115.074219 52.417969 C 112.871094 53.597656 110.699219 54.828125 108.558594 56.113281 C 106.414062 57.394531 104.304688 58.730469 102.226562 60.121094 C 100.152344 61.507812 98.109375 62.945312 96.105469 64.433594 C 94.097656 65.921875 92.128906 67.457031 90.199219 69.042969 C 88.265625 70.625 86.375 72.257812 84.527344 73.933594 C 82.675781 75.613281 80.867188 77.332031 79.101562 79.101562 C 77.332031 80.867188 75.613281 82.675781 73.933594 84.527344 C 72.257812 86.375 70.625 88.265625 69.042969 90.199219 C 67.457031 92.128906 65.921875 94.097656 64.433594 96.105469 C 62.945312 98.109375 61.507812 100.152344 60.121094 102.226562 C 58.730469 104.304688 57.394531 106.414062 56.113281 108.558594 C 54.828125 110.699219 53.597656 112.871094 52.417969 115.074219 C 51.242188 117.277344 50.117188 119.507812 49.050781 121.765625 C 47.984375 124.023438 46.972656 126.308594 46.015625 128.613281 C 45.058594 130.921875 44.160156 133.253906 43.320312 135.605469 C 42.476562 137.957031 41.695312 140.328125 40.96875 142.71875 C 40.246094 145.109375 39.578125 147.515625 38.972656 149.9375 C 38.363281 152.359375 37.816406 154.796875 37.328125 157.246094 C 36.84375 159.695312 36.414062 162.15625 36.050781 164.628906 C 35.683594 167.097656 35.378906 169.578125 35.132812 172.0625 C 34.886719 174.546875 34.703125 177.039062 34.582031 179.535156 C 34.457031 182.027344 34.398438 184.523438 34.398438 187.023438 C 34.398438 189.519531 34.457031 192.015625 34.582031 194.511719 C 34.703125 197.007812 34.886719 199.496094 35.132812 201.980469 C 35.378906 204.46875 35.683594 206.945312 36.050781 209.417969 C 36.414062 211.886719 36.84375 214.347656 37.328125 216.796875 C 37.816406 219.246094 38.363281 221.683594 38.972656 224.105469 C 39.578125 226.53125 40.246094 228.9375 40.96875 231.328125 C 41.695312 233.71875 42.476562 236.089844 43.320312 238.441406 C 44.160156 240.792969 45.058594 243.121094 46.015625 245.429688 C 46.972656 247.738281 47.984375 250.019531 49.050781 252.277344 C 50.117188 254.535156 51.242188 256.765625 52.417969 258.96875 C 53.597656 261.171875 54.828125 263.34375 56.113281 265.488281 C 57.394531 267.628906 58.730469 269.738281 60.121094 271.816406 C 61.507812 273.894531 62.945312 275.933594 64.433594 277.941406 C 65.921875 279.945312 67.457031 281.914062 69.042969 283.847656 C 70.625 285.777344 72.257812 287.667969 73.933594 289.519531 C 75.613281 291.371094 77.332031 293.179688 79.101562 294.945312 C 80.867188 296.710938 82.675781 298.433594 84.527344 300.109375 C 86.375 301.789062 88.265625 303.417969 90.199219 305.003906 C 92.128906 306.585938 94.097656 308.125 96.105469 309.613281 C 98.109375 311.101562 100.152344 312.539062 102.226562 313.925781 C 104.304688 315.3125 106.414062 316.648438 108.558594 317.933594 C 110.699219 319.21875 112.871094 320.449219 115.074219 321.625 C 117.277344 322.804688 119.507812 323.925781 121.765625 324.992188 C 124.023438 326.0625 126.308594 327.074219 128.613281 328.027344 C 130.921875 328.984375 133.253906 329.882812 135.605469 330.726562 C 137.957031 331.566406 140.328125 332.351562 142.71875 333.074219 C 145.109375 333.800781 147.515625 334.464844 149.9375 335.074219 C 152.359375 335.679688 154.796875 336.226562 157.246094 336.714844 C 159.695312 337.203125 162.15625 337.628906 164.628906 337.996094 C 167.097656 338.363281 169.578125 338.667969 172.0625 338.914062 C 174.546875 339.15625 177.039062 339.339844 179.535156 339.464844 C 182.027344 339.585938 184.523438 339.648438 187.023438 339.648438 C 189.519531 339.648438 192.015625 339.585938 194.511719 339.464844 C 197.007812 339.339844 199.496094 339.15625 201.980469 338.914062 C 204.46875 338.667969 206.945312 338.363281 209.417969 337.996094 C 211.886719 337.628906 214.347656 337.203125 216.796875 336.714844 C 219.246094 336.226562 221.683594 335.679688 224.105469 335.074219 C 226.53125 334.464844 228.9375 333.800781 231.328125 333.074219 C 233.71875 332.351562 236.089844 331.566406 238.441406 330.726562 C 240.792969 329.882812 243.121094 328.984375 245.429688 328.027344 C 247.738281 327.074219 250.019531 326.0625 252.277344 324.992188 C 254.535156 323.925781 256.765625 322.804688 258.96875 321.625 C 261.171875 320.449219 263.34375 319.21875 265.488281 317.933594 C 267.628906 316.648438 269.738281 315.3125 271.816406 313.925781 C 273.894531 312.539062 275.933594 311.101562 277.941406 309.613281 C 279.945312 308.125 281.914062 306.585938 283.847656 305.003906 C 285.777344 303.417969 287.667969 301.789062 289.519531 300.109375 C 291.371094 298.433594 293.179688 296.710938 294.945312 294.945312 C 296.710938 293.179688 298.433594 291.371094 300.109375 289.519531 C 301.789062 287.667969 303.417969 285.777344 305.003906 283.847656 C 306.585938 281.914062 308.125 279.945312 309.613281 277.941406 C 311.101562 275.933594 312.539062 273.894531 313.925781 271.816406 C 315.3125 269.738281 316.648438 267.628906 317.933594 265.488281 C 319.21875 263.34375 320.449219 261.171875 321.625 258.96875 C 322.804688 256.765625 323.925781 254.535156 324.992188 252.277344 C 326.0625 250.019531 327.074219 247.738281 328.03125 245.429688 C 328.984375 243.121094 329.882812 240.792969 330.726562 238.441406 C 331.566406 236.089844 332.351562 233.71875 333.074219 231.328125 C 333.800781 228.9375 334.464844 226.53125 335.074219 224.105469 C 335.679688 221.683594 336.226562 219.246094 336.714844 216.796875 C 337.203125 214.347656 337.628906 211.886719 337.996094 209.417969 C 338.363281 206.945312 338.667969 204.46875 338.914062 201.980469 C 339.15625 199.496094 339.339844 197.007812 339.464844 194.511719 C 339.585938 192.015625 339.648438 189.519531 339.648438 187.023438 C 339.648438 184.523438 339.585938 182.027344 339.460938 179.535156 C 339.339844 177.039062 339.15625 174.546875 338.910156 172.0625 C 338.664062 169.578125 338.359375 167.097656 337.992188 164.628906 C 337.625 162.15625 337.199219 159.699219 336.710938 157.246094 C 336.222656 154.796875 335.675781 152.363281 335.070312 149.9375 C 334.460938 147.515625 333.796875 145.109375 333.070312 142.71875 C 332.347656 140.328125 331.5625 137.957031 330.71875 135.605469 C 329.878906 133.253906 328.980469 130.925781 328.023438 128.617188 C 327.066406 126.3125 326.054688 124.027344 324.988281 121.769531 C 323.921875 119.511719 322.796875 117.28125 321.621094 115.078125 C 320.441406 112.875 319.210938 110.703125 317.925781 108.5625 C 316.644531 106.417969 315.308594 104.308594 313.917969 102.234375 C 312.53125 100.15625 311.09375 98.113281 309.605469 96.109375 C 308.117188 94.101562 306.582031 92.132812 304.996094 90.203125 C 303.414062 88.273438 301.78125 86.382812 300.105469 84.53125 C 298.425781 82.679688 296.703125 80.871094 294.9375 79.105469 C 293.171875 77.339844 291.363281 75.617188 289.511719 73.941406 C 287.664062 72.261719 285.773438 70.632812 283.839844 69.046875 C 281.910156 67.460938 279.941406 65.925781 277.9375 64.4375 C 275.929688 62.949219 273.886719 61.511719 271.8125 60.125 C 269.734375 58.738281 267.625 57.402344 265.484375 56.117188 C 263.339844 54.832031 261.167969 53.601562 258.964844 52.425781 C 256.761719 51.246094 254.53125 50.125 252.273438 49.054688 C 250.015625 47.988281 247.734375 46.976562 245.425781 46.019531 C 243.117188 45.0625 240.789062 44.164062 238.4375 43.324219 C 236.085938 42.480469 233.714844 41.699219 231.324219 40.972656 C 228.933594 40.25 226.527344 39.582031 224.105469 38.976562 C 221.683594 38.367188 219.246094 37.820312 216.796875 37.332031 C 214.347656 36.84375 211.886719 36.417969 209.417969 36.050781 C 206.945312 35.683594 204.46875 35.378906 201.980469 35.132812 C 199.496094 34.890625 197.003906 34.703125 194.511719 34.582031 C 192.015625 34.460938 189.519531 34.398438 187.023438 34.398438 Z M 190.074219 281.363281 C 189.636719 281.699219 189.15625 281.957031 188.632812 282.132812 C 188.113281 282.3125 187.574219 282.402344 187.023438 282.402344 C 186.46875 282.402344 185.933594 282.3125 185.410156 282.132812 C 184.886719 281.957031 184.40625 281.699219 183.96875 281.363281 C 181.203125 279.265625 116.289062 228.898438 116.289062 162.410156 C 116.289062 161.253906 116.316406 160.097656 116.375 158.941406 C 116.429688 157.785156 116.515625 156.628906 116.628906 155.476562 C 116.742188 154.324219 116.882812 153.175781 117.050781 152.03125 C 117.222656 150.886719 117.417969 149.746094 117.644531 148.609375 C 117.871094 147.472656 118.125 146.34375 118.40625 145.21875 C 118.6875 144.097656 118.996094 142.980469 119.332031 141.875 C 119.664062 140.765625 120.027344 139.667969 120.417969 138.574219 C 120.808594 137.484375 121.222656 136.40625 121.667969 135.335938 C 122.109375 134.265625 122.578125 133.207031 123.074219 132.160156 C 123.570312 131.113281 124.089844 130.082031 124.632812 129.058594 C 125.179688 128.039062 125.75 127.03125 126.34375 126.039062 C 126.941406 125.042969 127.558594 124.066406 128.203125 123.101562 C 128.84375 122.140625 129.511719 121.195312 130.199219 120.261719 C 130.890625 119.332031 131.601562 118.421875 132.335938 117.527344 C 133.070312 116.628906 133.828125 115.753906 134.605469 114.894531 C 135.382812 114.039062 136.179688 113.199219 137 112.378906 C 137.816406 111.5625 138.65625 110.761719 139.511719 109.984375 C 140.371094 109.207031 141.246094 108.453125 142.140625 107.71875 C 143.035156 106.984375 143.949219 106.269531 144.878906 105.582031 C 145.808594 104.890625 146.753906 104.222656 147.71875 103.582031 C 148.679688 102.9375 149.660156 102.316406 150.652344 101.722656 C 151.644531 101.128906 152.652344 100.554688 153.671875 100.011719 C 154.695312 99.464844 155.726562 98.945312 156.773438 98.449219 C 157.820312 97.953125 158.878906 97.484375 159.949219 97.042969 C 161.019531 96.597656 162.097656 96.179688 163.1875 95.792969 C 164.277344 95.402344 165.378906 95.039062 166.484375 94.703125 C 167.59375 94.367188 168.707031 94.058594 169.832031 93.777344 C 170.957031 93.496094 172.085938 93.242188 173.21875 93.015625 C 174.355469 92.789062 175.496094 92.589844 176.640625 92.421875 C 177.785156 92.25 178.933594 92.109375 180.085938 91.996094 C 181.238281 91.882812 182.394531 91.796875 183.550781 91.738281 C 184.707031 91.683594 185.863281 91.65625 187.023438 91.65625 C 188.179688 91.65625 189.335938 91.683594 190.492188 91.738281 C 191.648438 91.796875 192.804688 91.882812 193.957031 91.996094 C 195.109375 92.109375 196.257812 92.25 197.402344 92.421875 C 198.546875 92.589844 199.6875 92.789062 200.824219 93.015625 C 201.960938 93.242188 203.089844 93.496094 204.210938 93.777344 C 205.335938 94.058594 206.449219 94.367188 207.558594 94.703125 C 208.667969 95.039062 209.765625 95.402344 210.855469 95.792969 C 211.945312 96.179688 213.027344 96.597656 214.097656 97.042969 C 215.164062 97.484375 216.222656 97.953125 217.269531 98.449219 C 218.316406 98.945312 219.351562 99.464844 220.371094 100.011719 C 221.394531 100.554688 222.398438 101.128906 223.394531 101.722656 C 224.386719 102.316406 225.363281 102.9375 226.328125 103.582031 C 227.289062 104.222656 228.234375 104.890625 229.164062 105.582031 C 230.09375 106.269531 231.007812 106.984375 231.902344 107.71875 C 232.796875 108.453125 233.671875 109.207031 234.53125 109.984375 C 235.390625 110.761719 236.226562 111.5625 237.046875 112.378906 C 237.863281 113.199219 238.664062 114.039062 239.441406 114.894531 C 240.21875 115.753906 240.972656 116.628906 241.707031 117.527344 C 242.441406 118.421875 243.152344 119.332031 243.84375 120.261719 C 244.53125 121.195312 245.199219 122.140625 245.84375 123.101562 C 246.484375 124.066406 247.105469 125.042969 247.699219 126.039062 C 248.292969 127.03125 248.863281 128.039062 249.410156 129.058594 C 249.957031 130.082031 250.476562 131.113281 250.972656 132.160156 C 251.464844 133.207031 251.933594 134.265625 252.378906 135.335938 C 252.820312 136.40625 253.238281 137.484375 253.625 138.574219 C 254.015625 139.667969 254.378906 140.765625 254.714844 141.875 C 255.050781 142.980469 255.359375 144.097656 255.640625 145.21875 C 255.921875 146.34375 256.175781 147.472656 256.398438 148.609375 C 256.625 149.746094 256.824219 150.886719 256.992188 152.03125 C 257.160156 153.175781 257.304688 154.324219 257.417969 155.476562 C 257.527344 156.628906 257.613281 157.785156 257.671875 158.941406 C 257.726562 160.097656 257.753906 161.253906 257.753906 162.410156 C 257.753906 228.898438 192.839844 279.265625 190.074219 281.363281 Z M 190.074219 281.363281 " fill-opacity="1" fill-rule="nonzero"/></g></svg>