<svg xmlns="http://www.w3.org/2000/svg" xmlns:xlink="http://www.w3.org/1999/xlink" width="500" zoomAndPan="magnify" viewBox="0 0 375 374.999991" height="500" preserveAspectRatio="xMidYMid meet" version="1.0"><defs><clipPath id="cf09a7a944"><path d="M 115 227 L 231 227 L 231 306.746094 L 115 306.746094 Z M 115 227 " clip-rule="nonzero"/></clipPath></defs><g clip-path="url(#cf09a7a944)"><path fill="#c9974e" d="M 229.183594 257.65625 C 228.804688 261.675781 228.582031 265.71875 228.078125 269.726562 C 227.328125 275.710938 227.261719 281.761719 226.238281 287.71875 C 225.945312 289.410156 226.046875 291.152344 225.84375 292.871094 C 225.511719 295.671875 224.195312 297.828125 221.988281 299.472656 C 220.425781 300.632812 218.496094 300.582031 216.703125 300.710938 C 210.089844 301.175781 203.496094 301.855469 196.890625 302.433594 C 188.625 303.15625 180.367188 304.089844 172.085938 304.527344 C 162.246094 305.050781 152.453125 306.726562 142.550781 305.933594 C 138.859375 305.636719 135.152344 305.382812 132.300781 302.449219 C 131.359375 301.476562 130.769531 300.40625 130.378906 299.15625 C 128.664062 293.652344 127.621094 287.972656 126.054688 282.433594 C 123.925781 274.898438 123.167969 267.070312 121.136719 259.535156 C 119.175781 252.25 117.933594 244.804688 115.9375 237.535156 C 115.488281 235.898438 115.179688 234.207031 115.578125 232.433594 C 115.777344 231.558594 116.09375 230.976562 116.785156 230.476562 C 117.949219 229.640625 119.273438 229.175781 120.640625 228.894531 C 122.535156 228.511719 224.214844 227.695312 226.972656 227.601562 C 228.425781 227.550781 229.183594 228.582031 229.65625 229.796875 C 230.171875 231.117188 230.21875 232.535156 230.285156 233.929688 C 230.667969 241.875 229.921875 249.757812 229.183594 257.65625 Z M 229.183594 257.65625 " fill-opacity="1" fill-rule="nonzero"/></g><path fill="#171539" d="M 100.496094 204.296875 C 100.496094 204.304688 100.496094 204.3125 100.496094 204.320312 C 100.488281 204.320312 100.484375 204.324219 100.476562 204.324219 Z M 271.804688 135.292969 C 266.515625 137.964844 254.625 142.683594 249.796875 146.246094 C 249.796875 146.246094 240.488281 150.472656 237.660156 153.925781 L 237.667969 153.929688 C 229.808594 159.402344 223.816406 166.78125 217.769531 174.09375 C 215.78125 176.496094 213.753906 178.890625 212.230469 181.644531 C 212.230469 181.644531 211.734375 183.628906 206.097656 180.757812 C 204.054688 179.085938 204.683594 176.386719 204.683594 176.386719 C 206.015625 173.148438 206.132812 169.960938 204.417969 166.789062 C 203.246094 164.617188 201.640625 163.027344 199.261719 162.210938 C 195.855469 161.039062 192.476562 159.800781 188.703125 160.742188 C 188.210938 157.984375 187.695312 155.320312 188.164062 152.558594 C 188.316406 151.667969 189.390625 138.765625 189.390625 137.851562 C 188.53125 137.019531 187.542969 136.886719 186.449219 137.3125 C 185.789062 138.773438 184.621094 152.304688 184.597656 153.855469 C 184.566406 156.058594 184.558594 158.261719 184.585938 160.464844 C 184.597656 161.503906 184.40625 162.269531 183.328125 162.796875 C 181.777344 163.550781 180.394531 164.648438 179.230469 165.898438 C 176.628906 168.691406 174.84375 171.746094 175.8125 175.902344 C 176.171875 177.429688 174.136719 184.472656 174.136719 184.472656 C 174.136719 184.472656 171.742188 191.652344 169.347656 192.25 C 169.296875 192.261719 169.25 192.269531 169.199219 192.277344 C 168.316406 191.941406 167.601562 191.179688 167.328125 190.097656 C 167.019531 188.855469 166.898438 187.59375 167.039062 186.265625 C 167.476562 182.148438 167.824219 178.023438 166.617188 173.941406 C 166.09375 172.167969 165.183594 170.796875 163.671875 169.667969 C 161.730469 168.210938 159.558594 168.003906 157.285156 167.835938 C 155.28125 167.6875 153.601562 168.167969 152.199219 169.660156 C 151.246094 170.675781 150.542969 171.882812 149.652344 172.964844 C 148.933594 172.394531 148.628906 171.632812 148.191406 170.96875 C 147.300781 169.621094 146.492188 168.210938 145.511719 166.929688 C 141.441406 161.636719 137.609375 156.152344 133.132812 151.171875 C 131.976562 149.890625 126.753906 144.53125 125.355469 143.515625 C 124.414062 143.886719 124.054688 144.675781 123.871094 145.589844 C 124.992188 145.671875 129.59375 150.699219 130.164062 151.402344 C 136.332031 159.027344 142.210938 166.871094 147.601562 175.070312 C 148.132812 175.875 148.210938 176.636719 148.003906 177.507812 C 147.515625 179.5625 147.933594 181.558594 148.421875 183.546875 C 148.421875 183.546875 150.402344 186.984375 152.898438 192.09375 C 140.574219 193.605469 121.851562 198.441406 121.851562 198.441406 L 121.882812 198.507812 C 120.144531 198.695312 118.441406 199.261719 116.71875 199.53125 C 114.148438 199.933594 102.9375 203.421875 100.496094 204.316406 C 100.515625 204.5625 100.328125 204.5625 100.160156 204.578125 C 99.1875 205.046875 99.304688 206.15625 98.796875 206.894531 C 98.871094 207.386719 98.925781 207.867188 98.257812 207.996094 C 98.179688 208.910156 97.421875 209.632812 97.5 210.59375 C 99.140625 210.128906 100.609375 209.261719 102.167969 208.601562 C 106.246094 206.871094 119.082031 202.589844 123.566406 202.257812 C 129.410156 201.339844 145.152344 198.152344 154.816406 196.171875 C 158.792969 204.902344 162.445312 228.171875 162.121094 236.542969 L 188.347656 237.117188 L 207.570312 237.117188 C 207.570312 237.117188 213.613281 216.71875 221.253906 212.914062 C 228.894531 209.105469 238.160156 208.660156 240.851562 207.984375 C 240.992188 206.769531 240.992188 206.753906 241.132812 205.539062 C 240.339844 205.105469 240.699219 204.667969 240.898438 204.234375 C 240.839844 204.148438 240.835938 204.144531 240.777344 204.058594 C 239.859375 204.058594 224.128906 206.898438 221.746094 208.277344 C 221.746094 208.277344 214.453125 209.496094 209.542969 199.648438 C 208.242188 197.039062 214.15625 184.46875 214.15625 184.46875 C 215.457031 183.023438 216.089844 181.136719 217.363281 179.671875 C 219.765625 176.914062 222.117188 174.113281 224.53125 171.367188 C 229.339844 165.890625 234.144531 160.414062 239.773438 155.765625 C 240.28125 155.433594 245.875 151.808594 250.820312 149.050781 C 251.027344 148.953125 251.226562 148.839844 251.414062 148.71875 C 253.59375 147.316406 255.9375 146.214844 258.238281 145.039062 C 260.574219 143.847656 269.046875 139.652344 271.570312 138.84375 C 271.691406 138.84375 271.816406 138.839844 271.9375 138.839844 C 272.007812 138.84375 272.078125 138.847656 272.144531 138.859375 L 272.148438 138.851562 C 272 137.671875 272.53125 136.421875 271.804688 135.292969 Z M 271.804688 135.292969 " fill-opacity="1" fill-rule="nonzero"/><path fill="#6a7b73" d="M 139.09375 122.3125 C 138.972656 124.597656 138.585938 126.875 137.957031 129.144531 C 137.574219 130.535156 131.941406 143.253906 129.480469 147.582031 C 128.539062 147.953125 128.179688 148.742188 127.996094 149.65625 C 127.34375 150.574219 126.691406 151.492188 126.042969 152.410156 C 125.964844 152.308594 125.410156 153.046875 125.46875 153.113281 C 125.019531 153.65625 124.570312 154.203125 124.121094 154.746094 C 120.75 160.015625 114.457031 166.359375 107.804688 172.308594 C 106.992188 173.152344 101.238281 179.125 99.464844 180.601562 C 98.992188 180.664062 83.238281 192.050781 83.238281 192.050781 C 81.550781 190.75 79.886719 189.054688 78.273438 187.101562 C 75.429688 184.09375 72.796875 180.921875 70.8125 177.1875 C 68.714844 173.242188 66.476562 169.378906 64.585938 165.324219 C 62.890625 161.6875 61.621094 157.921875 60.574219 154.089844 C 60.558594 154.050781 60.546875 154.023438 60.546875 154.023438 C 60.546875 154.023438 59.433594 150.296875 58.441406 144.9375 C 58.425781 144.945312 58.410156 144.953125 58.390625 144.960938 C 58.332031 144.527344 58.273438 144.09375 58.210938 143.660156 C 57.816406 141.371094 57.457031 138.839844 57.21875 136.203125 C 57.078125 134.898438 56.96875 133.585938 56.914062 132.269531 C 56.875 131.304688 56.867188 130.339844 56.917969 129.378906 C 56.976562 122.519531 58.257812 115.757812 62.113281 111.386719 C 64.175781 108.261719 67.683594 106.601562 71.359375 106.691406 C 71.398438 106.6875 71.433594 106.679688 71.472656 106.671875 C 95.671875 103.679688 82.582031 138.429688 87.328125 138.085938 C 91.09375 137.8125 90.71875 121.160156 91.011719 120.300781 C 91.011719 120.292969 91.011719 120.285156 91.015625 120.277344 C 92.976562 111.875 108.910156 94.105469 124.125 99.46875 C 124.140625 99.472656 124.15625 99.480469 124.167969 99.484375 C 125.316406 99.636719 126.46875 99.871094 127.617188 100.230469 C 131.199219 101.347656 133.710938 103.558594 135.507812 106.738281 C 135.582031 106.867188 135.644531 107.003906 135.714844 107.132812 C 139.082031 111.484375 139.847656 116.761719 139.09375 122.3125 Z M 190.988281 113.789062 C 189.742188 118.464844 178.597656 112.835938 172.410156 113.847656 C 166.21875 114.859375 157.761719 116.660156 157.089844 124.148438 C 155.832031 138.140625 166.554688 149.804688 202.015625 150.996094 C 224.175781 151.738281 250.136719 153.269531 250.136719 153.269531 C 250.136719 153.269531 247.457031 113.933594 236.730469 101.265625 C 226.007812 88.597656 214.875 76.53125 198.621094 77.285156 C 182.363281 78.042969 178.28125 88.648438 177.957031 95.820312 C 177.324219 109.714844 192.554688 107.898438 190.988281 113.789062 Z M 169.105469 223.085938 C 163.398438 223.992188 164.835938 214.015625 165.921875 205.21875 C 167.007812 196.417969 156.265625 181.140625 142.136719 183.457031 C 128.007812 185.773438 119.90625 201.890625 123.660156 218.480469 C 132.882812 259.207031 172.480469 274.03125 176.765625 283.855469 C 176.765625 283.855469 217.699219 250.375 220.910156 217.527344 C 224.121094 184.679688 209.363281 172.160156 192.597656 174.496094 C 175.832031 176.832031 169.851562 199.839844 170.722656 205.851562 C 171.589844 211.867188 173.488281 222.390625 169.105469 223.085938 Z M 169.105469 223.085938 " fill-opacity="1" fill-rule="nonzero"/><path fill="#6a7b73" d="M 61.605469 225.953125 C 61.605469 225.953125 61.605469 225.957031 61.605469 225.957031 C 61.601562 225.957031 61.597656 225.960938 61.59375 225.960938 C 61.59375 225.957031 61.59375 225.957031 61.597656 225.953125 C 61.597656 225.953125 61.601562 225.953125 61.605469 225.953125 Z M 100.496094 204.296875 C 100.488281 204.292969 100.484375 204.292969 100.476562 204.289062 C 100.476562 204.300781 100.476562 204.3125 100.476562 204.324219 Z M 290.714844 127.992188 C 297.425781 121.910156 295.234375 113.609375 288.582031 109.945312 C 275.824219 102.917969 268.871094 116.582031 267.015625 126.796875 C 265.316406 136.144531 264.214844 168.246094 264.214844 168.246094 C 269.855469 163.734375 298.507812 162.355469 311.984375 148.632812 C 321.683594 138.757812 317.28125 128.921875 310.953125 125.503906 C 303.867188 121.679688 296.71875 126.203125 295.429688 129.632812 C 294.140625 133.0625 290.566406 140.378906 287.632812 138.40625 C 285.308594 136.851562 287.5625 130.847656 290.714844 127.992188 Z M 267.203125 203.484375 C 262.125 205.742188 263.566406 197.507812 260.4375 192.253906 C 256.753906 186.070312 243.953125 181.394531 236.65625 188.855469 C 229.359375 196.320312 228.976562 212.359375 238.289062 230.109375 C 247.601562 247.863281 261.980469 256.519531 271.761719 270.34375 C 271.761719 270.34375 296.320312 226.871094 302.554688 208.410156 C 308.792969 189.953125 301.273438 165.050781 287.820312 168.246094 C 274.367188 171.445312 269.078125 184.972656 269.246094 191.144531 C 269.414062 197.316406 269.886719 202.289062 267.203125 203.484375 Z M 82.296875 206.402344 C 79.046875 207.910156 77.886719 200.425781 78.1875 196.945312 C 78.492188 193.46875 70.664062 185.636719 64.164062 187.398438 C 57.664062 189.15625 53.167969 196.851562 54.457031 209.785156 C 55.742188 222.722656 70.9375 241.589844 80.253906 247.214844 C 80.253906 247.214844 78.746094 238.882812 87.179688 229.820312 C 95.617188 220.757812 109.316406 208.035156 109.589844 198.097656 C 109.867188 188.160156 104.035156 178.589844 92.125 180.324219 C 80.214844 182.058594 80.257812 190.023438 81.007812 194.394531 C 81.917969 199.703125 86.851562 204.289062 82.296875 206.402344 Z M 82.296875 206.402344 " fill-opacity="1" fill-rule="nonzero"/><path fill="#171539" d="M 245.546875 241.1875 C 245.554688 241.1875 245.558594 241.191406 245.566406 241.195312 C 245.570312 241.199219 245.570312 241.203125 245.574219 241.207031 Z M 294.132812 184.265625 C 290.324219 183.933594 286.695312 184.765625 283.414062 186.972656 C 279.820312 189.386719 276.722656 192.292969 274.730469 196.117188 C 273.421875 198.621094 272.65625 201.414062 271.160156 203.847656 C 270.332031 205.195312 269.824219 206.644531 269.394531 208.410156 C 268.839844 206.777344 268.417969 205.34375 268.152344 203.859375 C 268.101562 203.574219 268.054688 203.351562 268.257812 203.117188 C 269.976562 201.140625 269.824219 198.613281 270.152344 196.265625 C 270.433594 194.25 270.808594 192.253906 271.058594 190.234375 C 271.289062 188.355469 272.144531 186.691406 273.289062 185.296875 C 274.953125 183.265625 276.566406 181.136719 278.722656 179.570312 C 283.5625 176.058594 288.894531 175.25 294.59375 176.957031 C 297.246094 177.75 299.640625 179.027344 301.4375 181.230469 C 301.820312 181.699219 302.371094 181.949219 302.886719 182.238281 C 302.972656 181.644531 302.914062 181.082031 302.554688 180.582031 C 300.53125 178.617188 298.203125 177.144531 295.582031 176.082031 C 292.785156 174.953125 289.964844 174.371094 286.960938 175.078125 C 283.621094 175.867188 280.15625 176.441406 277.621094 179.011719 C 274.429688 182.242188 270.898438 185.285156 269.984375 190.09375 C 269.707031 191.550781 269.808594 193.074219 269.265625 194.488281 C 269.003906 195.539062 268.882812 196.609375 268.921875 197.683594 C 268.972656 199.011719 268.535156 200.222656 268.042969 201.398438 C 267.289062 203.203125 265.554688 203.464844 264.234375 202.09375 C 263.144531 200.957031 262.9375 199.425781 262.285156 198.097656 C 261.859375 198.046875 261.691406 197.710938 261.453125 197.414062 C 260.101562 195.71875 258.609375 194.199219 256.542969 193.351562 C 253.929688 192.277344 251.550781 190.722656 248.683594 190.167969 C 245.101562 189.476562 241.519531 189.773438 237.933594 189.675781 C 237.046875 189.648438 236.5 190.828125 235.503906 190.296875 C 235.277344 190.382812 235.148438 190.523438 235.210938 190.785156 C 235.160156 191.453125 235.109375 192.125 235.054688 192.855469 C 235.265625 192.789062 235.488281 192.792969 235.546875 192.695312 C 236.800781 190.609375 238.816406 190.742188 240.898438 190.601562 C 246.554688 190.214844 251.65625 191.773438 256.421875 194.605469 C 258.878906 196.066406 260.714844 198.195312 261.765625 200.886719 C 262.230469 202.082031 262.890625 203.085938 263.867188 203.886719 C 264.417969 204.339844 265.085938 204.800781 265.777344 204.53125 C 266.855469 204.109375 267.195312 204.515625 267.410156 205.496094 C 267.625 206.480469 267.980469 207.433594 268.351562 208.640625 C 265.382812 207.222656 262.429688 206.363281 259.898438 204.535156 C 256.308594 201.9375 252.476562 199.8125 248.070312 198.882812 C 244.046875 198.03125 240.214844 198.308594 236.523438 200.304688 C 234.84375 201.214844 234.0625 202.804688 232.992188 204.191406 C 232.738281 204.515625 232.703125 205.003906 232.277344 205.222656 C 232.128906 205.671875 231.65625 206.117188 232.277344 206.5625 C 233.546875 206.007812 234.097656 204.75 234.839844 203.746094 C 236.875 200.988281 239.742188 200.019531 242.925781 199.726562 C 248.160156 199.246094 252.746094 201.117188 257.007812 203.910156 C 259.835938 205.765625 262.570312 207.707031 265.902344 208.671875 C 267.664062 209.183594 268.90625 210.546875 269.386719 212.40625 C 269.941406 214.5625 270.789062 216.660156 270.875 218.929688 C 270.328125 219.007812 270.03125 218.753906 269.753906 218.511719 C 264.867188 214.222656 258.988281 212.207031 252.730469 211.03125 C 249.609375 210.445312 246.480469 210.195312 243.3125 210.386719 C 241.117188 210.515625 238.980469 211.105469 237.289062 212.390625 C 235.75 213.5625 234.613281 215.285156 234.253906 217.316406 C 234.140625 217.957031 234.003906 218.558594 233.648438 219.105469 C 233.578125 219.40625 233.664062 219.644531 233.9375 219.800781 C 234.992188 219.507812 234.988281 218.441406 235.128906 217.742188 C 235.96875 213.527344 240.253906 211.144531 244.566406 211.304688 C 249.488281 211.488281 254.269531 212.246094 258.898438 213.941406 C 263.019531 215.453125 266.832031 217.515625 270.210938 220.351562 C 271.730469 221.628906 271.847656 223.429688 272.085938 225.160156 C 272.339844 227.019531 272.660156 228.886719 272.394531 230.9375 C 270.707031 229.191406 268.992188 227.585938 267.109375 226.152344 C 263.335938 223.289062 258.96875 221.9375 254.488281 220.746094 C 251.1875 219.871094 248.019531 220.257812 244.890625 221.390625 C 242.699219 222.183594 241.117188 223.839844 239.566406 225.46875 C 238.417969 226.675781 238.332031 228.269531 238.433594 229.855469 C 238.824219 229.941406 239.359375 230.492188 239.421875 229.523438 C 239.6875 225.183594 242.976562 223.503906 246.296875 222.109375 C 251.128906 220.082031 255.746094 221.75 260.316406 223.421875 C 263.984375 224.765625 266.945312 227.171875 269.820312 229.6875 C 271.820312 231.4375 273.257812 233.476562 272.820312 236.410156 C 272.617188 237.773438 272.785156 239.191406 272.785156 240.8125 C 271.457031 239.582031 270.707031 238.121094 269.453125 237.140625 C 267.082031 235.285156 264.410156 234.109375 261.445312 233.5625 C 257.363281 232.808594 253.351562 232.679688 249.425781 234.371094 C 246.609375 235.585938 245.265625 237.757812 244.921875 240.6875 L 244.9375 240.824219 L 245.066406 240.855469 C 245.28125 240.902344 245.488281 240.957031 245.570312 241.195312 C 245.746094 241.234375 245.847656 241.34375 245.886719 241.519531 C 246.222656 241.488281 246.648438 241.390625 246.503906 241.007812 C 245.988281 239.644531 246.960938 238.648438 247.332031 237.539062 C 247.621094 236.675781 248.503906 236.179688 249.328125 235.738281 C 256.125 232.082031 267.722656 234.304688 272.289062 241.992188 C 273.300781 243.699219 273.136719 245.789062 273.070312 247.957031 C 271.929688 247.339844 271.464844 246.226562 270.488281 245.691406 C 267.070312 243.816406 263.523438 242.300781 259.578125 242.050781 C 256.222656 241.835938 253.609375 243.417969 251.316406 245.691406 C 250.746094 246.253906 250.984375 247.140625 250.417969 247.683594 C 250.519531 248.023438 250.734375 248.234375 251.082031 248.308594 C 251.234375 248.269531 251.523438 248.230469 251.523438 248.1875 C 251.570312 245.996094 253.476562 245.535156 254.867188 244.640625 C 256.503906 243.585938 258.34375 243.195312 260.277344 243.496094 C 263.71875 244.035156 266.917969 245.328125 269.882812 247.078125 C 271.757812 248.183594 273.195312 249.746094 272.820312 252.332031 C 272.605469 253.789062 272.78125 255.308594 272.78125 257.082031 C 271.304688 255.871094 270.199219 254.652344 268.773438 253.777344 C 265.886719 252 263.0625 251.976562 260.066406 253.375 C 259.082031 253.835938 259.132812 254.882812 258.523438 255.527344 C 258.539062 255.707031 258.628906 255.785156 258.808594 255.761719 C 260.222656 254.933594 261.613281 254.085938 263.246094 253.703125 C 263.839844 253.566406 264.414062 253.414062 264.992188 253.558594 C 267.855469 254.273438 270.136719 255.882812 272.0625 258.109375 C 273.074219 259.277344 272.546875 260.425781 272.375 261.722656 C 270.949219 260.992188 269.53125 260.160156 267.890625 260.988281 C 267.347656 261.261719 266.914062 261.632812 267.039062 262.507812 C 268.042969 262.207031 268.957031 261.789062 269.980469 261.90625 C 271.597656 262.082031 272.441406 262.960938 272.472656 264.558594 C 272.496094 265.914062 272.152344 267.214844 271.933594 268.53125 C 271.84375 269.070312 271.605469 269.644531 272.496094 269.691406 C 272.816406 269.613281 272.84375 269.386719 272.792969 269.121094 C 273.199219 265.800781 273.433594 262.472656 273.636719 259.132812 C 273.738281 257.453125 274.878906 255.96875 276.019531 254.65625 C 276.46875 254.144531 276.980469 254.039062 277.585938 254.433594 C 277.992188 254.699219 278.464844 254.792969 278.949219 254.796875 C 278.984375 254.601562 279.097656 254.480469 279.292969 254.433594 L 279.273438 254.328125 C 278.792969 252.871094 276.734375 252.46875 275.410156 253.625 C 274.820312 254.144531 274.351562 254.804688 273.617188 255.640625 C 273.335938 253.308594 273.207031 251.28125 274.199219 249.335938 C 275.179688 247.414062 276.601562 245.867188 278.472656 244.839844 C 280.84375 243.539062 282.722656 244.121094 284.226562 246.425781 C 284.546875 246.167969 284.800781 245.867188 284.800781 245.425781 C 284.128906 244.589844 283.464844 243.796875 282.367188 243.433594 C 279.984375 242.652344 278.074219 243.515625 276.273438 244.972656 C 275.558594 245.546875 275.085938 246.429688 274.175781 246.816406 C 273.746094 243.730469 274.425781 241.019531 276.234375 238.636719 C 278.851562 235.195312 282.300781 232.894531 286.347656 231.441406 C 287.902344 230.882812 289.441406 230.566406 291.03125 231.316406 C 291.515625 231.542969 292.03125 231.585938 292.695312 231.09375 C 291.753906 230.265625 290.859375 229.84375 289.730469 229.832031 C 286 229.789062 282.875 231.542969 279.851562 233.355469 C 277.347656 234.859375 275.65625 237.292969 273.773438 239.90625 C 273.773438 238.15625 273.800781 236.722656 273.769531 235.292969 C 273.664062 230.878906 275.667969 227.285156 278.417969 224.125 C 280.636719 221.574219 283.675781 220.058594 286.738281 218.679688 C 290.050781 217.1875 293.339844 216.832031 296.597656 218.828125 C 297.148438 219.167969 297.703125 219.410156 298.328125 218.902344 C 296.351562 216.796875 292.289062 215.699219 289.140625 216.363281 C 286.671875 216.882812 284.570312 218.242188 282.40625 219.414062 C 278.820312 221.347656 275.804688 223.882812 274.382812 227.90625 C 274.214844 228.382812 274.050781 228.917969 273.460938 229.355469 C 273.496094 227.59375 273.066406 226 272.914062 224.386719 C 272.808594 223.207031 272.53125 221.964844 272.972656 220.75 C 274.4375 216.71875 276.390625 212.964844 279.375 209.839844 C 282.664062 206.394531 286.855469 204.421875 291.304688 203.027344 C 295.078125 201.839844 298.816406 201.8125 302.136719 204.488281 C 302.308594 204.628906 302.652344 204.554688 302.914062 204.578125 C 303.378906 204.355469 303.226562 203.953125 303.203125 203.585938 C 301.960938 203.261719 301.085938 202.273438 299.796875 201.914062 C 296.683594 201.046875 293.605469 201.011719 290.59375 202.011719 C 284.277344 204.117188 278.671875 207.289062 275.210938 213.300781 C 274.140625 215.15625 273.203125 217.089844 272.171875 219.046875 C 271.53125 218.613281 271.875 217.875 271.691406 217.316406 C 271.230469 215.890625 270.914062 214.421875 270.53125 212.972656 C 269.714844 209.875 270.757812 207.128906 272.21875 204.511719 C 273.40625 202.390625 274.386719 200.210938 275.179688 197.90625 C 276.390625 194.390625 278.914062 191.75 281.738281 189.46875 C 283.78125 187.820312 285.976562 186.363281 288.621094 185.722656 C 293.480469 184.550781 297.863281 185.457031 301.820312 188.503906 C 302.214844 188.808594 302.515625 189.183594 302.726562 189.621094 C 302.964844 190.105469 303.289062 190.402344 303.855469 190.34375 C 303.925781 189.792969 304.003906 189.238281 303.75 188.707031 C 300.988281 186.25 297.785156 184.585938 294.132812 184.265625 Z M 238.433594 229.875 C 238.429688 229.867188 238.429688 229.863281 238.429688 229.855469 C 238.425781 229.855469 238.417969 229.851562 238.414062 229.851562 Z M 278.960938 254.796875 C 278.957031 254.796875 278.953125 254.796875 278.945312 254.796875 C 278.945312 254.800781 278.941406 254.804688 278.941406 254.808594 Z M 245.890625 241.535156 C 245.890625 241.53125 245.886719 241.527344 245.886719 241.519531 C 245.878906 241.519531 245.871094 241.523438 245.863281 241.523438 Z M 127.972656 193.222656 C 127.980469 193.226562 127.984375 193.226562 127.988281 193.226562 C 127.988281 193.21875 127.988281 193.21875 127.988281 193.210938 Z M 214.484375 185.117188 C 214.484375 185.121094 214.488281 185.128906 214.488281 185.132812 C 214.492188 185.132812 214.5 185.136719 214.507812 185.140625 Z M 214.835938 185.75 C 214.832031 185.761719 214.824219 185.769531 214.816406 185.78125 C 214.824219 185.785156 214.828125 185.789062 214.835938 185.792969 Z M 127.324219 194.214844 C 127.335938 194.210938 127.34375 194.203125 127.351562 194.199219 C 127.347656 194.191406 127.34375 194.1875 127.339844 194.179688 Z M 221.097656 205.289062 C 219.855469 203.878906 218.535156 202.542969 217.175781 201.242188 C 210.628906 194.976562 202.652344 192.980469 193.96875 193.992188 C 187.015625 194.800781 181.117188 198.3125 175.851562 202.851562 C 173.875 204.558594 172.40625 206.664062 171.25 209.007812 C 170.652344 208.601562 170.773438 208.074219 170.769531 207.613281 C 170.75 205.566406 170.667969 203.511719 170.78125 201.46875 C 170.964844 198.066406 172.027344 194.855469 174.046875 192.167969 C 177.292969 187.859375 181.273438 184.414062 186.597656 182.730469 C 189.734375 181.738281 192.90625 180.78125 196.148438 180.761719 C 199.09375 180.742188 202.101562 180.871094 205 181.972656 C 208.085938 183.144531 211.433594 183.660156 214.070312 185.875 C 214.378906 186.132812 214.621094 186.128906 214.816406 185.78125 C 214.546875 185.648438 214.523438 185.386719 214.488281 185.132812 C 214.167969 185.035156 213.949219 184.820312 213.808594 184.519531 L 213.800781 184.527344 C 211.269531 183.53125 208.882812 182.234375 206.253906 181.410156 C 202.949219 180.378906 199.617188 179.699219 196.199219 179.753906 C 193.59375 179.792969 191.03125 180.46875 188.503906 181.230469 C 183.3125 182.789062 178.640625 185.140625 174.921875 189.203125 C 173.789062 190.441406 173.058594 191.9375 172.03125 193.234375 C 172.007812 193.492188 171.980469 193.746094 171.707031 193.878906 C 171.714844 194.152344 171.691406 194.414062 171.382812 194.53125 C 170.015625 197.808594 169.894531 201.253906 169.707031 204.753906 C 169.46875 209.175781 171.027344 213.308594 171.222656 217.640625 C 171.285156 219.074219 170.945312 220.28125 170.0625 221.324219 C 169.050781 222.519531 167.609375 222.292969 166.78125 220.9375 C 165.855469 219.421875 165.832031 217.757812 165.957031 216.101562 C 166.207031 212.914062 166.777344 209.738281 166.175781 206.53125 C 165.914062 206.363281 165.898438 206.121094 165.976562 205.851562 C 165.957031 205.640625 165.941406 205.429688 165.921875 205.21875 C 165.179688 203.566406 164.410156 201.9375 163.539062 200.34375 C 161.25 196.171875 158.007812 193.160156 153.558594 191.390625 C 147.386719 188.9375 141.128906 188.125 134.730469 190.332031 C 132.8125 190.992188 131.011719 191.988281 129.148438 192.816406 C 128.777344 192.980469 128.46875 193.371094 127.988281 193.226562 C 128 193.453125 127.882812 193.550781 127.667969 193.558594 C 127.683594 193.832031 127.625 194.070312 127.351562 194.199219 C 127.617188 194.773438 127.988281 194.625 128.359375 194.3125 C 129.949219 192.957031 131.933594 192.359375 133.820312 191.628906 C 138.488281 189.824219 143.242188 189.785156 148.207031 190.566406 C 159.089844 192.289062 167.648438 203.558594 164.820312 215.175781 C 164.328125 214.429688 163.878906 213.773438 163.34375 213.183594 C 158.636719 207.976562 152.472656 206.007812 145.765625 205.59375 C 139.703125 205.214844 134.054688 206.769531 129.0625 210.355469 C 127.273438 211.640625 125.363281 212.800781 124.210938 214.78125 C 123.972656 215.183594 123.59375 215.675781 124.175781 216.046875 C 124.710938 216.390625 124.890625 215.835938 125.128906 215.5 C 127.484375 212.21875 130.65625 209.929688 134.3125 208.382812 C 138.703125 206.527344 143.304688 206.117188 148.042969 206.800781 C 152.152344 207.394531 155.960938 208.730469 159.398438 211.035156 C 162.265625 212.960938 164.328125 215.429688 164.671875 219.101562 C 164.828125 220.734375 165.589844 222.21875 167.417969 222.726562 C 167.761719 222.820312 168.054688 222.980469 168.082031 223.332031 C 168.210938 224.992188 168.304688 226.648438 168.421875 228.464844 C 167.660156 227.941406 167.097656 227.546875 166.449219 227.261719 C 161.066406 224.910156 155.507812 225.167969 150.015625 226.519531 C 144.625 227.84375 140.6875 231.515625 137.144531 235.582031 C 135.675781 237.265625 134.40625 239.128906 133.046875 240.910156 C 132.839844 241.386719 132.796875 241.78125 133.492188 241.804688 C 137.558594 235.605469 142.472656 230.390625 149.691406 227.867188 C 151.582031 227.207031 153.5625 227.023438 155.554688 226.921875 C 158.011719 226.796875 160.453125 226.398438 162.902344 227.214844 C 164.339844 227.691406 165.703125 228.273438 167.050781 228.945312 C 168.265625 229.550781 168.695312 230.5625 168.800781 231.804688 C 169.023438 234.367188 169.238281 236.929688 169.46875 239.492188 C 169.503906 239.859375 169.601562 240.222656 169.683594 240.65625 C 165.304688 240.136719 161.503906 241.625 157.761719 243.636719 C 152.859375 246.273438 149.097656 250.148438 145.492188 254.246094 C 145.316406 254.441406 145.105469 254.644531 145.351562 254.972656 C 145.964844 255.175781 146.171875 254.597656 146.449219 254.28125 C 150.628906 249.46875 155.414062 245.457031 161.339844 242.941406 C 163.554688 242 165.894531 241.699219 168.28125 241.820312 C 169.332031 241.871094 169.953125 242.492188 170.09375 243.527344 C 170.433594 246.019531 170.753906 248.511719 171.078125 251.007812 C 171.25 252.316406 171.914062 253.5625 171.625 255.195312 C 169.007812 253.984375 166.628906 255.054688 164.15625 255.648438 C 160.417969 256.550781 157.695312 258.96875 154.953125 261.390625 C 154.402344 261.875 153.453125 262.167969 153.582031 263.207031 C 155.523438 262.355469 156.957031 260.792969 158.628906 259.570312 C 161.671875 257.34375 165.171875 256.460938 168.757812 255.773438 C 169.875 255.5625 170.863281 256.027344 171.804688 256.585938 C 172.085938 256.75 172.316406 256.898438 172.371094 257.292969 C 172.773438 260.296875 173.46875 263.246094 174.390625 266.269531 C 169.917969 266.761719 166.285156 268.488281 163.941406 272.359375 C 164.050781 272.445312 164.160156 272.535156 164.269531 272.621094 C 165.824219 271.492188 166.914062 269.832031 168.710938 268.949219 C 170.128906 268.25 171.601562 267.769531 173.128906 267.585938 C 174.117188 267.46875 174.9375 268.039062 175.257812 269.136719 C 175.800781 270.992188 175.90625 272.917969 176.265625 274.804688 C 176.667969 276.933594 176.558594 279.082031 176.582031 281.226562 C 176.589844 281.675781 176.429688 282.222656 177.238281 282.503906 C 177.199219 279.664062 177.410156 276.902344 176.820312 274.160156 C 176.527344 272.804688 176.402344 271.414062 176.074219 270.070312 C 175.890625 269.328125 176.394531 269.085938 176.753906 268.761719 C 178.671875 267.023438 180.96875 266.839844 183.394531 267.234375 C 185.996094 267.65625 188.492188 268.308594 190.375 270.34375 C 190.425781 270.394531 190.582031 270.347656 190.6875 270.347656 C 190.769531 270.320312 190.824219 270.265625 190.851562 270.183594 C 190.503906 269.011719 189.402344 268.558594 188.511719 268.128906 C 185.4375 266.636719 182.175781 265.886719 178.730469 266.480469 C 177.65625 266.667969 176.820312 267.421875 175.761719 268.007812 C 174.625 265.652344 174.25 263.121094 173.710938 260.660156 C 173.429688 259.371094 172.890625 257.96875 174.167969 256.730469 C 175.898438 255.054688 177.785156 253.71875 180.164062 253.167969 C 185.3125 251.980469 189.777344 253.957031 194.074219 256.339844 C 196.011719 257.414062 197.972656 258.578125 199.4375 260.347656 C 199.679688 260.328125 199.851562 260.214844 199.925781 259.972656 C 199.921875 259.28125 199.40625 258.894531 198.9375 258.578125 C 195.074219 255.941406 191.117188 253.519531 186.472656 252.394531 C 182.046875 251.324219 178.089844 252.128906 174.515625 254.902344 C 174.058594 255.253906 173.703125 255.746094 173.191406 256.292969 C 172.445312 254.75 172.433594 253.09375 172.121094 251.535156 C 171.699219 249.445312 171.261719 247.355469 170.972656 245.230469 C 170.847656 244.324219 171.109375 243.773438 171.550781 243.222656 C 173.703125 240.546875 176.515625 238.996094 179.921875 238.601562 C 187.847656 237.679688 194.691406 240.273438 200.785156 245.164062 C 202.667969 246.675781 204.671875 248.058594 206.152344 250.019531 C 206.375 250.308594 206.71875 250.28125 207.042969 250.167969 C 207.070312 250.117188 207.082031 250.066406 207.074219 250.007812 C 206.328125 248.652344 205.167969 247.617188 204.082031 246.589844 C 199.757812 242.476562 194.632812 239.632812 188.875 238.167969 C 183.726562 236.863281 178.585938 236.949219 173.808594 239.832031 C 172.589844 240.570312 171.828125 241.789062 170.515625 242.695312 C 170.265625 240.332031 170.023438 238.082031 169.789062 235.832031 C 169.765625 235.617188 169.832031 235.386719 169.777344 235.1875 C 168.777344 231.578125 171.179688 229.71875 173.707031 228.316406 C 176.882812 226.554688 180.207031 224.871094 183.964844 224.785156 C 186.320312 224.726562 188.65625 225.207031 190.929688 225.84375 C 196.621094 227.4375 201.578125 230.382812 206.039062 234.207031 C 207.914062 235.820312 209.753906 237.472656 211.597656 239.121094 C 211.890625 239.382812 212.175781 239.605469 212.585938 239.582031 C 212.828125 239.46875 212.851562 239.253906 212.839844 239.027344 C 208.882812 235.898438 205.601562 231.992188 201.246094 229.304688 C 196.308594 226.257812 190.960938 224.523438 185.277344 223.722656 C 183.339844 223.449219 181.386719 223.746094 179.578125 224.488281 C 176.003906 225.953125 172.359375 227.320312 169.601562 230.144531 C 168.96875 229.859375 169.15625 229.367188 169.148438 228.976562 C 169.121094 227.683594 169.195312 226.382812 169.117188 225.09375 C 169.046875 223.898438 169.15625 222.902344 170.375 222.261719 C 170.933594 221.96875 171.257812 221.335938 171.5625 220.757812 C 173.996094 216.195312 178 214.027344 182.945312 213.332031 C 184.90625 213.058594 186.863281 212.730469 188.855469 212.660156 C 195.089844 212.433594 200.75 214.289062 205.902344 217.601562 C 209.742188 220.074219 213.191406 223.082031 216.1875 226.570312 C 216.65625 227.117188 216.957031 227.910156 217.871094 227.914062 C 217.933594 227.804688 218 227.695312 218.0625 227.585938 C 217.195312 225.824219 215.753906 224.546875 214.371094 223.21875 C 210.125 219.140625 205.621094 215.425781 199.976562 213.425781 C 196.632812 212.242188 193.246094 211.125 189.617188 211.394531 C 187.855469 211.527344 186.113281 211.875 184.351562 212.015625 C 180.957031 212.28125 177.816406 213.195312 175.074219 215.292969 C 174.128906 216.015625 173.152344 216.707031 172.082031 217.492188 C 172.023438 216.324219 171.980469 215.375 171.757812 214.417969 C 171.210938 212.074219 171.773438 209.949219 173.039062 207.882812 C 174.515625 205.472656 176.546875 203.671875 178.714844 201.980469 C 184.316406 197.605469 190.496094 194.9375 197.78125 194.75 C 206.875 194.515625 213.71875 198.632812 219.648438 204.980469 C 220.292969 205.671875 220.53125 206.933594 221.84375 206.886719 C 221.988281 206.527344 221.984375 206.171875 221.832031 205.8125 C 221.445312 205.839844 221.308594 205.527344 221.097656 205.289062 Z M 153.585938 263.222656 C 153.585938 263.21875 153.585938 263.210938 153.585938 263.207031 C 153.582031 263.210938 153.578125 263.210938 153.574219 263.210938 Z M 127.652344 193.558594 C 127.660156 193.558594 127.664062 193.558594 127.671875 193.558594 C 127.671875 193.550781 127.671875 193.546875 127.671875 193.539062 Z M 239.03125 140.523438 C 240.582031 141.773438 242.097656 143.050781 243.246094 144.816406 C 241.3125 145.40625 239.644531 146.195312 238.953125 148.195312 C 238.554688 149.351562 238.910156 150.550781 238.746094 151.722656 C 239.195312 151.738281 239.644531 151.757812 240.09375 151.777344 C 240.246094 151.945312 240.414062 151.960938 240.597656 151.824219 C 239.636719 150.871094 239.488281 148.988281 240.308594 147.851562 C 240.683594 147.324219 241.171875 146.910156 241.714844 146.550781 C 243.554688 145.332031 243.683594 145.398438 245.039062 147.085938 C 246.339844 148.707031 247.953125 150.066406 248.964844 151.925781 C 249.035156 152.050781 249.347656 152.046875 249.546875 152.101562 C 250.050781 151.820312 249.683594 151.425781 249.683594 151.074219 C 248.230469 149.464844 246.644531 147.960938 245.535156 146.070312 C 244.628906 144.53125 244.8125 142.839844 245.066406 141.199219 C 245.355469 139.359375 246.980469 139.304688 248.480469 139.027344 C 248.171875 138.019531 247.542969 138.152344 246.84375 138.335938 C 244.617188 138.914062 244.125 139.78125 243.878906 143.765625 C 241.234375 141.578125 239.230469 139.066406 238.335938 135.707031 C 237.511719 132.601562 239.148438 129.382812 241.339844 127.742188 C 242.488281 126.882812 243.832031 127.445312 245.070312 127.609375 C 245.535156 127.671875 246.003906 127.800781 246.484375 127.839844 C 246.558594 127.558594 246.53125 127.3125 246.246094 127.160156 C 241.867188 125.113281 238.976562 127.390625 237.511719 131.574219 C 236.878906 133.382812 237 133.949219 237.738281 137.589844 C 237.277344 137.691406 237.105469 137.292969 236.878906 137.066406 C 234.4375 134.625 231.691406 132.535156 229.167969 130.199219 C 226.695312 127.914062 225.578125 124.800781 224.851562 121.554688 C 223.742188 116.585938 225.617188 112.25 227.820312 108.042969 C 228.898438 105.988281 231.035156 105.15625 233.183594 104.476562 C 235.066406 103.882812 236.917969 103.9375 238.789062 104.457031 C 238.808594 104.058594 238.617188 103.765625 238.316406 103.527344 C 236.683594 103.089844 235.042969 103.074219 233.410156 103.519531 C 230.449219 104.332031 227.695312 105.425781 226.355469 108.542969 C 225.359375 110.859375 224.425781 113.183594 223.78125 115.636719 C 223.207031 117.832031 223.359375 119.945312 223.765625 122.136719 C 224.125 124.085938 225.070312 125.800781 225.882812 127.867188 C 223.351562 126.371094 221.085938 125.042969 218.828125 123.699219 C 216.363281 122.234375 214.476562 120.125 213.054688 117.726562 C 210.726562 113.800781 209.199219 109.585938 209.609375 104.859375 C 210.085938 99.386719 211.359375 94.296875 216.375 91.152344 C 219.257812 89.347656 222.332031 87.890625 225.84375 89.734375 C 226.589844 90.125 226.375 89.382812 226.480469 89.050781 C 226.441406 88.777344 226.289062 88.617188 226.007812 88.597656 C 225.125 88.863281 224.550781 88.027344 223.734375 87.972656 C 221.125 87.808594 218.714844 88.542969 216.519531 89.796875 C 213.609375 91.464844 211.488281 93.847656 210.234375 97.082031 C 208.378906 101.878906 207.808594 106.679688 209.128906 111.695312 C 210.039062 115.132812 211.699219 118.144531 213.941406 120.867188 C 214.078125 120.964844 214.414062 120.984375 214.261719 121.210938 C 214.136719 121.402344 213.914062 121.234375 213.796875 121.046875 C 209.453125 119.429688 205.375 117.371094 201.695312 114.488281 C 198.5 111.980469 196.078125 108.964844 195.074219 105.042969 C 193.558594 99.113281 194.257812 93.351562 196.863281 87.804688 C 199.402344 82.402344 203.792969 79.710938 209.546875 78.945312 C 209.65625 78.453125 209.441406 78.25 208.960938 78.253906 C 208.207031 78.257812 207.457031 78.253906 206.703125 78.253906 C 204.617188 79.179688 202.414062 79.835938 200.636719 81.410156 C 199.421875 82.484375 198.199219 83.523438 197.367188 84.929688 C 194.847656 89.191406 193.335938 93.660156 193.300781 98.757812 C 193.269531 104.082031 194.722656 108.644531 198.039062 112.738281 C 199.144531 114.097656 200.613281 114.972656 201.875 116.117188 C 202.007812 116.1875 202.328125 116.097656 202.230469 116.339844 C 202.160156 116.511719 201.902344 116.402344 201.78125 116.21875 C 199.585938 115.941406 197.640625 114.777344 195.460938 114.410156 C 194.988281 114.332031 194.519531 114.242188 194.042969 114.175781 C 193.460938 114.09375 192.78125 113.964844 192.574219 113.347656 C 191.824219 111.070312 190.148438 109.535156 188.226562 108.40625 C 184.078125 105.96875 183.050781 101.988281 182.402344 97.695312 C 181.882812 94.265625 182.644531 91.101562 184.054688 88.023438 C 184.847656 86.292969 185.875 84.785156 187.453125 83.621094 C 190.753906 81.1875 194.21875 79.09375 198.164062 77.882812 C 198.46875 77.789062 198.574219 77.566406 198.621094 77.285156 C 196.984375 76.808594 195.605469 77.855469 194.082031 78.054688 C 193.699219 78.886719 192.828125 79.042969 192.128906 79.359375 C 189.855469 80.398438 187.957031 82 185.925781 83.386719 C 185.160156 83.910156 184.769531 84.800781 184.3125 85.585938 C 180.355469 92.40625 180.480469 99.234375 184.3125 106.066406 C 184.972656 107.242188 185.996094 107.96875 187.0625 108.707031 C 187.382812 108.925781 188.234375 108.894531 187.894531 109.714844 C 188.910156 110.320312 189.878906 110.972656 190.652344 111.890625 C 191.359375 112.738281 191.730469 113.757812 191.324219 114.730469 C 190.953125 115.625 189.949219 115.855469 188.980469 115.839844 C 187.632812 115.820312 186.28125 115.902344 184.957031 115.589844 C 184.867188 116.246094 184.363281 116.09375 183.957031 116.078125 C 177.378906 115.808594 172.128906 118.464844 167.867188 123.339844 C 165.992188 125.488281 164.277344 127.742188 162.851562 130.226562 C 161.46875 132.632812 160.734375 135.113281 161.320312 137.894531 C 161.386719 138.203125 161.347656 138.539062 161.359375 138.859375 C 161.324219 139.257812 161.476562 139.488281 161.902344 139.480469 C 162.296875 139.292969 162.699219 139.160156 162.488281 138.546875 C 161.402344 135.410156 162.433594 132.59375 164.050781 129.992188 C 166.6875 125.746094 169.769531 121.890625 174.371094 119.558594 C 177.175781 118.136719 180.070312 117.050781 183.285156 117.113281 C 185.066406 117.144531 186.847656 117.101562 188.628906 117.132812 C 190.078125 117.160156 191.332031 116.679688 192.175781 115.546875 C 192.699219 114.839844 193.265625 114.703125 193.96875 114.890625 C 195.875 115.386719 197.8125 115.792969 199.753906 116.667969 C 194.175781 117.410156 189.632812 120.035156 185.40625 123.34375 C 180.890625 126.875 177.652344 131.417969 175.34375 136.574219 C 174.058594 139.453125 174.109375 142.640625 174.738281 145.746094 C 174.847656 146.289062 175.3125 146.765625 175.613281 147.269531 C 175.875 147.550781 175.960938 148.285156 176.585938 147.652344 C 175.683594 145.460938 175.335938 143.261719 175.507812 140.820312 C 175.703125 138.015625 176.617188 135.605469 178.019531 133.285156 C 180.667969 128.898438 184.050781 125.222656 188.332031 122.34375 C 192.023438 119.867188 196.054688 118.359375 200.414062 117.800781 C 204.796875 117.238281 208.222656 119.894531 211.976562 121.429688 C 208.957031 121.808594 206.148438 122.699219 203.511719 124.035156 C 198.214844 126.71875 194.277344 130.644531 192.527344 136.484375 C 191.160156 141.046875 191.523438 145.285156 194.800781 148.996094 C 195.15625 149.394531 195.386719 150.113281 196.273438 149.488281 C 195.148438 148.164062 194.015625 146.898438 193.441406 145.269531 C 191.859375 140.757812 193.042969 136.554688 195.46875 132.851562 C 198.332031 128.480469 202.421875 125.492188 207.53125 123.871094 C 211.898438 122.484375 215.894531 122.433594 219.726562 125.332031 C 221.550781 126.714844 223.789062 127.515625 225.519531 129.074219 C 225.652344 129.117188 225.785156 129.164062 225.917969 129.207031 C 225.871094 129.257812 225.800781 129.363281 225.785156 129.355469 C 225.667969 129.300781 225.5625 129.222656 225.453125 129.148438 C 220.230469 128.519531 216.207031 130.582031 213.21875 134.75 C 210.296875 138.824219 209.765625 143.453125 210.386719 148.296875 C 210.535156 149.445312 211.027344 150.386719 211.976562 151.082031 C 212.191406 150.832031 212.246094 150.605469 212.117188 150.421875 C 210.640625 148.304688 211.199219 145.816406 211.066406 143.523438 C 210.917969 140.984375 212.226562 138.671875 213.457031 136.449219 C 215.671875 132.445312 221.042969 129.355469 226.210938 130.601562 C 227.421875 130.894531 228.53125 131.066406 229.566406 131.898438 C 231.582031 133.519531 233.445312 135.308594 235.425781 136.964844 C 235.921875 137.378906 236.511719 137.78125 236.734375 138.410156 C 236.402344 138.785156 236.054688 138.726562 235.757812 138.824219 C 232.464844 139.882812 229.011719 140.511719 226.675781 143.5625 C 224.785156 146.03125 223.9375 148.683594 224.175781 151.738281 C 224.519531 151.730469 224.867188 151.726562 225.210938 151.71875 C 225.0625 149.9375 224.976562 148.050781 225.824219 146.507812 C 226.898438 144.550781 228.289062 142.671875 230.519531 141.804688 C 232.320312 141.105469 234.160156 140.503906 236.003906 139.925781 C 237.085938 139.585938 238.105469 139.777344 239.03125 140.523438 Z M 126.042969 152.410156 C 124.199219 150.011719 121.972656 148.0625 119.496094 146.308594 C 112.929688 141.660156 105.886719 139.09375 97.746094 140.765625 C 93.832031 141.570312 90.285156 143.070312 87.660156 146.269531 C 87.046875 147.011719 86.699219 147.949219 85.9375 148.578125 C 85.867188 148.714844 85.941406 149.039062 85.691406 148.929688 C 85.519531 148.851562 85.640625 148.59375 85.808594 148.464844 C 86.359375 145.300781 86.914062 142.140625 88.085938 139.117188 C 88.886719 137.058594 90.519531 135.589844 91.640625 133.761719 C 93.265625 131.113281 95.617188 129.238281 98.351562 127.871094 C 102.707031 125.691406 107.339844 124.800781 112.21875 124.851562 C 117.09375 124.898438 121.863281 125.28125 126.441406 127.125 C 128.199219 127.832031 129.742188 128.933594 131.511719 129.597656 C 132.640625 130.019531 133.511719 130.667969 134.132812 131.808594 C 134.648438 132.757812 135.566406 133.488281 136.304688 134.3125 C 136.902344 134.160156 136.726562 133.691406 136.71875 133.292969 C 135.949219 132.574219 134.878906 132.125 134.488281 131.0625 C 134.0625 129.894531 133.21875 129.226562 132.132812 128.785156 C 130.835938 128.257812 129.636719 127.539062 128.402344 126.890625 C 126.933594 126.117188 125.394531 125.34375 123.792969 124.988281 C 117.945312 123.6875 111.996094 123.15625 106.078125 124.289062 C 100.660156 125.328125 95.726562 127.546875 91.890625 131.703125 C 91.035156 132.628906 90.363281 133.722656 89.605469 134.738281 C 89.964844 132.605469 89.6875 130.5 89.8125 128.417969 C 89.886719 127.199219 89.992188 125.929688 90.5 124.800781 C 92.464844 120.457031 95.28125 116.710938 99.148438 113.929688 C 106.523438 108.621094 114.699219 106.097656 123.867188 107.375 C 128.6875 108.046875 132.878906 110.0625 136.679688 113.015625 C 137.21875 113.433594 137.523438 114.171875 138.332031 114.222656 C 138.355469 113.613281 138.15625 113.074219 137.8125 112.578125 C 137.460938 112.667969 137.199219 112.503906 136.941406 112.28125 C 133.132812 108.972656 128.574219 107.3125 123.707031 106.441406 C 118.105469 105.441406 112.714844 106.46875 107.46875 108.460938 C 102.46875 110.359375 97.980469 113.003906 94.414062 117.109375 C 93.191406 118.515625 92.410156 120.15625 91.386719 121.660156 C 91.066406 122.132812 90.902344 122.761719 90.253906 122.949219 C 89.261719 125.085938 88.890625 127.402344 89.039062 129.671875 C 89.191406 132.039062 88.855469 134.242188 88.183594 136.460938 C 88 137.058594 87.890625 137.675781 87.332031 138.085938 C 86.273438 137.289062 86.03125 136.191406 85.898438 135.058594 C 85.621094 132.703125 85.660156 130.332031 85.515625 127.96875 C 85.410156 126.289062 85.578125 124.535156 84.882812 122.910156 C 83.988281 121.105469 83.5 119.125 82.421875 117.386719 C 80.636719 114.515625 77.746094 113.230469 74.835938 111.976562 C 73.660156 111.46875 72.449219 111.03125 71.222656 110.675781 C 68.769531 109.964844 66.347656 110.636719 63.9375 111.027344 C 63.058594 111.167969 62.558594 112.226562 61.574219 112.292969 C 61.214844 112.511719 60.902344 112.757812 60.980469 113.246094 C 61.605469 113.179688 62.179688 113.207031 62.808594 112.828125 C 65.289062 111.34375 68.007812 110.878906 70.828125 111.605469 C 73.90625 112.398438 76.886719 113.449219 79.382812 115.542969 C 82.328125 118.015625 83.5 121.328125 83.949219 125.003906 C 84.378906 128.519531 84.023438 132.097656 84.867188 135.578125 C 85.136719 136.703125 85.511719 137.738281 86.398438 138.527344 C 86.734375 138.832031 86.980469 139.183594 86.773438 139.664062 C 86.078125 141.273438 85.949219 143.042969 85.363281 145.042969 C 84.722656 142.050781 83.929688 139.46875 82.753906 136.972656 C 79.542969 130.160156 74.3125 125.949219 66.996094 124.394531 C 64.230469 123.808594 61.441406 124.363281 58.710938 124.949219 C 58.230469 125.050781 57.835938 125.539062 57.402344 125.847656 C 57.394531 125.957031 57.382812 126.0625 57.375 126.167969 C 57.761719 126.296875 58.070312 126.152344 58.4375 126 C 60.910156 124.953125 63.5625 124.53125 66.15625 124.992188 C 71.316406 125.902344 75.632812 128.503906 78.84375 132.664062 C 84.246094 139.65625 85.683594 147.507812 83.472656 156.09375 C 82.433594 153.332031 81.273438 150.488281 78.972656 148.734375 C 72.828125 144.046875 66.140625 141.355469 58.394531 144.960938 C 58.3125 145.328125 58.308594 145.675781 58.636719 145.9375 C 58.984375 145.867188 59.371094 146.023438 59.644531 145.601562 C 60.085938 144.914062 60.828125 144.773438 61.585938 144.621094 C 66.472656 143.632812 70.921875 144.636719 75.128906 147.265625 C 79.234375 149.832031 81.765625 153.390625 82.695312 158.140625 C 83.085938 160.148438 83.175781 162.125 83.023438 164.179688 C 82.820312 166.941406 82.421875 169.703125 82.679688 172.535156 C 82.21875 172.402344 82.253906 172.0625 82.171875 171.847656 C 80.160156 166.511719 76.023438 163.410156 70.972656 161.367188 C 68.914062 160.535156 66.695312 160.433594 64.488281 160.84375 C 63.65625 160.996094 63.621094 161.066406 63.839844 162.101562 C 65.550781 161.171875 67.46875 161.140625 69.164062 161.671875 C 73.625 163.074219 77.351562 165.582031 79.964844 169.625 C 81.980469 172.746094 81.902344 176.328125 82.59375 179.792969 C 77.613281 176.304688 73.414062 175.648438 72.445312 178.179688 C 77.914062 176.25 83.792969 179.796875 83.027344 185.699219 C 84.085938 185.640625 83.359375 184.480469 83.984375 184.15625 C 83.960938 183.730469 83.96875 183.296875 83.914062 182.875 C 83.636719 180.761719 83.847656 180.367188 85.789062 179.53125 C 88.378906 178.417969 90.910156 178.175781 93.308594 180.019531 C 93.734375 180.152344 94.144531 180.378906 94.617188 180.277344 C 91.652344 177.832031 89.398438 176.769531 83.761719 179.351562 C 82.726562 174.304688 86.496094 170.667969 92.230469 169.164062 C 97.273438 167.84375 102.539062 170.757812 104.378906 175.757812 C 104.792969 175.542969 105.128906 175.242188 105.355469 174.832031 C 104.253906 173.671875 103.703125 172.121094 102.445312 171.039062 C 99.285156 168.3125 93.414062 166.898438 89.480469 168.785156 C 87.34375 169.808594 85.332031 171.003906 83.726562 172.984375 C 83.355469 169.949219 83.730469 167.058594 84.085938 164.234375 C 84.289062 162.632812 85.59375 161.117188 86.964844 160.070312 C 89.734375 157.964844 92.878906 156.507812 96.339844 156.070312 C 99.046875 155.730469 101.671875 156.46875 104.15625 157.558594 C 108.054688 159.269531 111.238281 161.789062 113.101562 165.742188 C 113.160156 165.867188 113.332031 165.941406 113.449219 166.039062 C 113.78125 165.972656 114 165.777344 114.117188 165.460938 C 113.082031 163.726562 112.175781 161.886719 110.648438 160.507812 C 107.714844 157.859375 104.25 156.214844 100.421875 155.34375 C 95.191406 154.148438 90.71875 156.109375 86.464844 158.855469 C 85.652344 159.382812 85.097656 160.183594 84.386719 161.222656 C 84.070312 159.042969 84.644531 157.1875 84.746094 155.3125 C 84.945312 151.671875 87.023438 148.855469 89.171875 146.199219 C 91.050781 143.875 93.847656 142.785156 96.6875 142.082031 C 105.144531 140 112.519531 142.621094 119.492188 147.292969 C 121.878906 148.890625 123.621094 151.023438 125.46875 153.113281 C 125.855469 153.039062 126.050781 152.808594 126.042969 152.410156 Z M 269.515625 119.703125 C 269.523438 119.699219 269.527344 119.695312 269.535156 119.691406 C 269.535156 119.6875 269.535156 119.683594 269.535156 119.679688 Z M 265.359375 167.980469 C 265.355469 167.980469 265.351562 167.980469 265.347656 167.980469 C 265.347656 167.988281 265.347656 167.992188 265.347656 167.996094 Z M 292.246094 125.539062 C 292.238281 125.539062 292.234375 125.542969 292.226562 125.542969 C 292.226562 125.546875 292.226562 125.554688 292.226562 125.558594 Z M 291.921875 126.191406 C 291.917969 126.191406 291.914062 126.195312 291.90625 126.195312 C 291.90625 126.199219 291.90625 126.203125 291.90625 126.207031 Z M 317.597656 137.433594 C 316.816406 137.144531 317.105469 136.339844 316.851562 135.800781 C 314.777344 131.464844 311.0625 129.617188 306.582031 129.132812 C 302.472656 128.6875 298.960938 130.46875 295.644531 132.660156 C 294.421875 133.46875 293.980469 134.972656 292.859375 135.875 C 292.820312 136.070312 292.695312 136.183594 292.503906 136.226562 C 291.957031 137.058594 291.082031 137.519531 290.277344 138.003906 C 289.578125 138.425781 288.703125 138.425781 287.972656 137.96875 C 287.28125 137.539062 287.261719 136.757812 287.390625 136.078125 C 287.769531 134.136719 288.296875 132.261719 289.515625 130.609375 C 290.394531 129.417969 291.339844 128.230469 291.847656 126.796875 C 291.507812 126.550781 291.527344 126.351562 291.910156 126.195312 C 291.898438 125.917969 291.875 125.636719 292.230469 125.542969 C 292.25 123.484375 292.679688 121.429688 291.660156 119.414062 C 290.382812 116.890625 288.667969 114.980469 285.800781 114.371094 C 284.59375 114.117188 283.449219 113.679688 282.203125 113.53125 C 277.683594 112.996094 274.386719 115.265625 271.296875 118.085938 C 270.710938 118.621094 270.273438 119.324219 269.535156 119.691406 C 269.539062 120.039062 269.394531 120.277344 269.039062 120.359375 C 268.660156 120.917969 268.542969 121.550781 268.5 122.207031 C 270.058594 121.59375 270.59375 119.976562 271.722656 118.925781 C 275.972656 114.976562 280.867188 113.671875 286.285156 115.6875 C 290.105469 117.105469 292.074219 121.679688 290.960938 124.917969 C 290.308594 126.8125 289.519531 128.617188 288.410156 130.289062 C 287.230469 132.066406 286.546875 134.046875 286.417969 136.164062 C 286.371094 136.964844 286.191406 137.621094 285.722656 138.242188 C 284.917969 139.308594 284.136719 140.394531 283.296875 141.539062 C 282.207031 138.21875 281.980469 134.945312 282.410156 131.535156 C 282.832031 128.171875 280.988281 125.949219 277.589844 125.253906 C 273.472656 124.410156 270.28125 126.0625 267.636719 129.066406 C 267.28125 129.46875 267.050781 129.976562 266.445312 130.070312 C 266.34375 130.742188 265.738281 131.347656 266.195312 132.089844 C 267.75 130.109375 269.273438 128.140625 271.660156 127.019531 C 274.273438 125.792969 276.835938 125.714844 279.359375 127.078125 C 280.851562 127.882812 281.117188 129.445312 281.183594 130.957031 C 281.269531 132.769531 281.054688 134.578125 281.160156 136.40625 C 281.253906 137.972656 281.328125 139.523438 281.898438 140.988281 C 282.417969 142.324219 282.261719 143.515625 281.363281 144.605469 C 280.097656 146.136719 279.613281 148.164062 278.027344 149.875 C 277.914062 148.097656 278.023438 146.570312 277.632812 145.078125 C 276.453125 140.574219 271.390625 138.203125 267.621094 140.457031 C 267.03125 140.808594 266.511719 141.28125 265.960938 141.699219 L 265.957031 141.707031 C 265.910156 141.78125 265.863281 141.855469 265.816406 141.929688 C 265.796875 141.847656 265.773438 141.765625 265.75 141.683594 C 265.628906 141.6875 265.503906 141.6875 265.378906 141.6875 C 265.386719 142.253906 265.394531 142.824219 265.402344 143.390625 C 265.988281 143.429688 266.265625 142.957031 266.554688 142.609375 C 268.359375 140.441406 270.640625 140.414062 273.03125 141.210938 C 275.265625 141.953125 276.207031 143.78125 276.683594 145.957031 C 276.976562 147.289062 276.921875 148.628906 277.019531 149.964844 C 277.144531 151.648438 276.316406 152.808594 275.316406 153.941406 C 275.128906 153.84375 274.964844 153.808594 274.960938 153.753906 C 274.734375 151.132812 272.738281 149.703125 271.152344 147.972656 C 270.199219 146.933594 267.117188 147.113281 266.082031 147.710938 C 265.855469 147.84375 265.644531 148.0625 265.769531 148.375 C 265.886719 148.65625 266.097656 148.78125 266.410156 148.652344 C 269.476562 147.417969 271.195312 149.265625 272.878906 151.390625 C 274.179688 153.03125 274.460938 155.148438 273.21875 156.988281 C 272.640625 155.066406 271.359375 154.046875 269.667969 153.328125 C 267.65625 152.46875 266.929688 152.476562 265.394531 153.996094 C 265.402344 154.242188 265.410156 154.488281 265.417969 154.738281 C 265.628906 154.707031 265.859375 154.722656 266.046875 154.636719 C 266.6875 154.335938 267.117188 153.386719 267.980469 153.796875 C 269.125 154.34375 270.425781 154.691406 271.285156 155.6875 C 272.335938 156.90625 271.953125 159.480469 270.609375 160.839844 C 270.328125 161.125 270.042969 161.332031 269.636719 161.054688 C 268.109375 160 266.722656 160.457031 265.386719 161.453125 C 265.382812 161.691406 265.378906 161.925781 265.378906 162.164062 C 266.167969 162.28125 266.761719 161.703125 267.484375 161.574219 C 267.980469 161.488281 268.453125 161.472656 268.757812 161.964844 C 269.042969 162.429688 268.746094 162.757812 268.457031 163.085938 C 267.277344 164.425781 266.34375 166.035156 264.523438 166.671875 C 264.355469 166.933594 264.199219 167.203125 264.015625 167.453125 C 263.753906 167.804688 263.726562 168.136719 264.078125 168.429688 C 264.445312 168.738281 264.757812 168.613281 265.015625 168.257812 C 265.074219 168.097656 265.164062 167.976562 265.351562 167.980469 C 265.367188 167.035156 266.214844 166.683594 266.726562 166.109375 C 267.402344 165.34375 268.167969 164.652344 268.894531 163.929688 C 270.289062 162.542969 270.472656 162.539062 271.835938 163.964844 C 272.476562 162.796875 271.109375 162.601562 270.902344 161.886719 C 272.34375 159.644531 275.246094 159.539062 276.921875 161.683594 C 277.019531 161.8125 277.0625 161.976562 277.15625 162.105469 C 277.359375 162.390625 277.636719 162.601562 277.972656 162.402344 C 278.363281 162.167969 278.144531 161.824219 277.996094 161.554688 C 277.203125 160.101562 275.851562 159.511719 274.316406 159.234375 C 273.902344 159.160156 273.46875 159.1875 272.789062 159.15625 C 274.085938 157.410156 274.878906 155.757812 277.4375 155.535156 C 280.320312 155.28125 282.878906 155.847656 285.378906 156.992188 C 286.9375 157.707031 288.375 158.707031 288.585938 160.683594 C 289.082031 160.949219 289.386719 160.699219 289.640625 160.296875 C 289.070312 158.222656 287.597656 156.902344 285.761719 156.046875 C 283.113281 154.808594 280.328125 154.042969 277.34375 154.359375 C 277.097656 154.386719 276.839844 154.339844 276.445312 154.320312 C 277.222656 152.644531 278.351562 151.667969 279.933594 150.890625 C 284.292969 148.746094 288.753906 148.808594 293.296875 149.867188 C 294.863281 150.234375 296.363281 150.921875 297.640625 151.933594 C 299.230469 153.191406 300.308594 154.746094 299.976562 156.929688 C 300.449219 157 300.792969 156.84375 300.972656 156.386719 C 301.175781 153.757812 299.789062 152.097656 297.707031 150.753906 C 293.339844 147.941406 288.566406 147.515625 283.609375 148.273438 C 282.429688 148.453125 281.320312 149.066406 279.941406 149.570312 C 280.917969 147.320312 282.136719 145.511719 283.351562 143.707031 C 283.738281 143.132812 284.347656 143.230469 284.824219 143.386719 C 288.132812 144.453125 291.199219 143.621094 294.398438 142.628906 C 299.234375 141.128906 304.160156 140.601562 308.957031 143.09375 C 310.75 144.023438 312.0625 145.195312 312.261719 147.304688 C 312.289062 147.59375 312.394531 147.820312 312.703125 147.902344 C 313.300781 147.84375 313.398438 147.332031 313.597656 146.917969 C 312.625 146.433594 312.953125 145.304688 312.402344 144.5625 C 310.738281 142.335938 308.324219 141.328125 305.824219 140.824219 C 300.992188 139.851562 296.238281 140.367188 291.628906 142.308594 C 289.34375 143.269531 286.921875 142.976562 284.484375 142.253906 C 284.824219 141.035156 285.59375 140.164062 286.359375 139.28125 C 286.746094 138.835938 287.109375 138.832031 287.632812 139.078125 C 289.496094 139.949219 291.078125 139.28125 292.515625 138.058594 C 293.382812 137.324219 294.066406 136.414062 294.730469 135.5 C 298.425781 130.414062 307.355469 128.488281 312.683594 132.445312 C 314.765625 133.992188 315.929688 135.972656 316.480469 138.40625 C 316.601562 138.933594 316.648438 139.46875 317.164062 139.789062 C 317.671875 139.074219 317.625 138.25 317.597656 137.433594 Z M 292.832031 135.898438 C 292.839844 135.890625 292.847656 135.882812 292.855469 135.875 C 292.855469 135.875 292.855469 135.875 292.859375 135.871094 Z M 85.589844 231.800781 C 85.585938 231.796875 85.582031 231.796875 85.578125 231.796875 C 85.578125 231.800781 85.578125 231.804688 85.578125 231.808594 Z M 78.425781 245.742188 C 78.425781 245.734375 78.425781 245.730469 78.429688 245.726562 C 78.421875 245.726562 78.421875 245.726562 78.417969 245.726562 Z M 108.835938 193.46875 C 106.914062 189.757812 103.726562 187.875 99.71875 187.101562 C 94.488281 186.09375 89.707031 187.21875 85.371094 190.164062 C 82.707031 191.972656 81.105469 194.386719 82.277344 197.835938 C 82.375 198.136719 82.371094 198.484375 82.050781 198.707031 C 82.351562 200.253906 83.378906 201.519531 83.714844 203.054688 C 83.980469 204.269531 83.1875 205.664062 81.9375 206.097656 C 80.570312 206.578125 80.285156 205.433594 79.84375 204.640625 C 79.59375 204.191406 79.519531 203.628906 79.382812 203.117188 C 78.949219 201.460938 79.304688 199.667969 78.457031 198.097656 C 77.695312 197.371094 77.445312 196.351562 76.996094 195.453125 C 76.179688 193.824219 75.042969 192.589844 73.464844 191.609375 C 70.347656 189.675781 66.910156 189.023438 63.363281 188.773438 C 62.4375 188.707031 61.53125 189.339844 60.546875 189.347656 C 60.300781 189.273438 60.082031 189.285156 59.964844 189.5625 C 60.441406 190.425781 61.230469 190.027344 61.832031 189.917969 C 66.339844 189.101562 70.402344 190.269531 73.980469 192.914062 C 76.371094 194.683594 77.4375 197.421875 77.757812 200.320312 C 78.015625 202.640625 78.761719 204.695312 80.195312 206.492188 C 80.636719 207.042969 80.6875 207.421875 80.4375 208.066406 C 79.96875 209.257812 79.65625 210.507812 79.246094 211.84375 C 78.738281 210.394531 78.265625 209.019531 77.609375 207.699219 C 75.3125 203.085938 71.496094 200.648438 66.566406 199.710938 C 64.167969 199.257812 61.78125 199.238281 59.367188 199.652344 C 57.609375 199.957031 56.121094 200.707031 54.851562 201.9375 C 54.835938 202.171875 54.820312 202.40625 54.804688 202.636719 C 55.808594 202.652344 56.105469 201.625 56.890625 201.242188 C 59.625 199.902344 62.5 199.777344 65.386719 200.203125 C 69.621094 200.828125 73.007812 202.984375 75.578125 206.410156 C 77.558594 209.050781 78.308594 212.132812 78.363281 215.324219 C 78.390625 216.921875 77.714844 218.535156 77.289062 220.441406 C 76.84375 218.792969 75.886719 217.800781 75.222656 216.640625 C 73.941406 214.40625 72.039062 212.957031 69.679688 211.933594 C 67.539062 211.003906 65.28125 210.84375 63.0625 210.804688 C 60.828125 210.765625 58.726562 211.582031 57.335938 213.546875 C 56.945312 214.101562 56.460938 214.742188 57.03125 215.660156 C 57.414062 215.15625 57.8125 214.824219 57.960938 214.402344 C 58.554688 212.75 59.992188 212.210938 61.441406 211.820312 C 66.089844 210.566406 72.292969 213.242188 74.6875 217.527344 C 76.488281 220.757812 77.90625 224.097656 76.679688 227.933594 C 76.351562 227.894531 76.269531 227.519531 76.074219 227.296875 C 72.871094 223.582031 68.90625 222.570312 64.308594 224.066406 C 63.277344 224.402344 61.953125 224.550781 61.597656 225.953125 C 61.382812 225.953125 61.167969 225.953125 60.953125 225.953125 C 60.914062 226.421875 61.140625 226.746094 61.519531 226.988281 C 61.546875 226.644531 61.578125 226.300781 61.605469 225.957031 C 63.519531 224.964844 65.515625 224.28125 67.714844 224.316406 C 71.140625 224.371094 73.800781 225.820312 75.765625 228.605469 C 76.535156 229.699219 76.898438 230.894531 76.824219 232.246094 C 76.765625 233.265625 76.8125 234.289062 76.8125 235.496094 C 75.394531 234.550781 73.917969 234.199219 72.375 234.394531 C 70.78125 234.597656 69.464844 235.386719 68.429688 236.621094 C 68.59375 237.085938 68.921875 237.40625 69.339844 237.648438 C 69.480469 236.183594 70.984375 235.042969 72.578125 235.183594 C 75.921875 235.480469 77.347656 237.476562 77.34375 240.582031 C 75.199219 240.425781 74.5 240.859375 74.230469 242.507812 C 74.21875 242.9375 74.496094 243.085938 74.859375 243.144531 C 74.863281 242.242188 75.199219 241.503906 76.191406 241.546875 C 77.121094 241.585938 77.980469 242.003906 78.085938 243.097656 C 78.171875 243.980469 78.671875 244.804688 78.429688 245.726562 C 78.667969 245.730469 78.710938 245.917969 78.765625 246.097656 C 78.878906 246.398438 79.09375 246.589844 79.398438 246.6875 C 80.140625 246.335938 79.929688 245.84375 79.71875 245.226562 C 78.980469 243.058594 78.433594 240.832031 78.152344 238.5625 C 78.066406 237.851562 77.703125 236.820312 78.800781 236.5 C 79.757812 236.222656 80.792969 235.976562 81.664062 236.820312 C 81.851562 237 82.085938 237.132812 82.296875 237.289062 C 82.71875 237.136719 82.652344 236.75 82.71875 236.425781 C 81.34375 234.972656 79.738281 234.71875 77.890625 235.703125 C 77.671875 233.746094 77.820312 231.976562 77.800781 230.214844 C 77.796875 229.808594 77.9375 229.496094 78.320312 229.296875 C 80.628906 228.082031 83.355469 228.902344 84.5625 231.277344 C 84.835938 231.808594 85.191406 231.730469 85.578125 231.792969 C 85.183594 229.132812 82.480469 227.324219 79.609375 228.023438 C 77.644531 228.5 77.691406 228.023438 77.867188 226.25 C 77.910156 225.832031 78.03125 225.441406 77.960938 224.988281 C 77.636719 222.824219 77.890625 222.375 79.800781 221.410156 C 84.214844 219.179688 88.597656 220.976562 90.179688 225.65625 C 90.222656 225.785156 90.40625 225.867188 90.523438 225.96875 C 90.863281 225.917969 91.070312 225.742188 91.078125 225.378906 C 89.605469 220.410156 84.199219 217.714844 78.1875 220.988281 C 78.472656 218.546875 79.113281 216.253906 79.628906 213.9375 C 79.726562 213.503906 80.046875 213.238281 80.421875 212.976562 C 82.300781 211.679688 84.363281 210.675781 86.550781 210.207031 C 89.113281 209.65625 92.683594 210.664062 94.925781 213.910156 C 95.816406 215.195312 96.578125 216.550781 96.894531 218.105469 C 96.960938 218.445312 97.042969 218.730469 97.40625 218.84375 C 97.660156 218.851562 97.808594 218.734375 97.847656 218.480469 C 97.351562 216.375 96.417969 214.523438 95.0625 212.796875 C 92.605469 209.664062 88.398438 208.324219 84.707031 209.710938 C 83.300781 210.242188 81.875 210.714844 80.585938 211.613281 C 80.414062 209.378906 81.332031 207.644531 83.140625 206.792969 C 84.082031 206.351562 84.695312 205.617188 85.132812 204.753906 C 88.175781 198.753906 96.835938 198.027344 101.542969 200.941406 C 103.5625 202.191406 105.691406 203.257812 107.003906 205.363281 C 107.671875 205.238281 107.617188 204.753906 107.539062 204.265625 C 105.671875 201.757812 102.992188 200.332031 100.222656 199.199219 C 95.34375 197.207031 88.425781 198.542969 85.074219 202.730469 C 83.484375 200.710938 83.277344 198.191406 82.703125 195.816406 C 82.425781 194.660156 82.992188 193.621094 83.863281 192.789062 C 88.734375 188.121094 94.375 186.59375 100.890625 188.589844 C 103.878906 189.503906 106.308594 191.121094 107.859375 193.933594 C 108.199219 194.546875 108.492188 195.378906 109.5 195.203125 C 109.570312 194.75 109.648438 194.296875 109.464844 193.851562 C 109.179688 193.851562 108.984375 193.753906 108.835938 193.46875 Z M 108.835938 193.46875 " fill-opacity="1" fill-rule="nonzero"/></svg>