<svg xmlns="http://www.w3.org/2000/svg" xmlns:xlink="http://www.w3.org/1999/xlink" width="500" zoomAndPan="magnify" viewBox="0 0 375 374.999991" height="500" preserveAspectRatio="xMidYMid meet" version="1.0"><defs><clipPath id="0c7b9be1c0"><path d="M 10 204 L 224 204 L 224 259.269531 L 10 259.269531 Z M 10 204 " clip-rule="nonzero"/></clipPath><clipPath id="3aa7138cb5"><path d="M 142 117 L 366.550781 117 L 366.550781 158 L 142 158 Z M 142 117 " clip-rule="nonzero"/></clipPath></defs><g clip-path="url(#0c7b9be1c0)"><path fill="#bd7877" d="M 223.964844 259.234375 C 222.863281 259.234375 119.691406 259 16.699219 257.859375 C 9.984375 257.785156 8.84375 256.019531 12.386719 250.234375 C 20.441406 237.078125 32.132812 229.550781 47.738281 229.5625 C 56.105469 229.570312 63.316406 227.429688 69.914062 222.375 C 90.421875 206.652344 112.589844 196.304688 132.773438 214.597656 C 142.273438 223.203125 153.078125 224.679688 164.992188 222.863281 C 179.066406 220.714844 194.355469 219.519531 209.40625 236.335938 C 215.257812 242.878906 219.582031 250.375 223.964844 259.234375 Z M 223.964844 259.234375 " fill-opacity="1" fill-rule="nonzero"/></g><g clip-path="url(#3aa7138cb5)"><path fill="#6a7b73" d="M 366.546875 157.933594 C 271.429688 157.933594 159.300781 155.550781 145.34375 155.351562 C 142 155.300781 141.449219 154.390625 143.070312 151.273438 C 147.199219 143.332031 154.214844 139.597656 162.746094 138.679688 C 178.691406 136.964844 178.222656 141.535156 187.570312 138.972656 C 193.914062 137.238281 199.84375 134.660156 205.253906 130.914062 C 214.957031 124.191406 225.789062 120.128906 237.292969 118.066406 C 245.675781 116.5625 256.667969 116.019531 277.085938 131.535156 C 287.578125 139.511719 302.210938 136.984375 314.953125 132.234375 C 327.871094 127.414062 339.34375 130.210938 349.777344 138.550781 C 356.289062 143.75 362.390625 149.378906 366.546875 157.933594 Z M 366.546875 157.933594 " fill-opacity="1" fill-rule="nonzero"/></g></svg>