<svg xmlns="http://www.w3.org/2000/svg" xmlns:xlink="http://www.w3.org/1999/xlink" width="500" zoomAndPan="magnify" viewBox="0 0 375 374.999991" height="500" preserveAspectRatio="xMidYMid meet" version="1.0"><defs><clipPath id="edf05f8683"><path d="M 35.214844 132.527344 L 339.714844 132.527344 L 339.714844 160 L 35.214844 160 Z M 35.214844 132.527344 " clip-rule="nonzero"/></clipPath><clipPath id="11d0ce8cea"><path d="M 35.214844 153 L 339.714844 153 L 339.714844 181 L 35.214844 181 Z M 35.214844 153 " clip-rule="nonzero"/></clipPath><clipPath id="c1601c23e3"><path d="M 35.214844 174 L 339.714844 174 L 339.714844 202 L 35.214844 202 Z M 35.214844 174 " clip-rule="nonzero"/></clipPath><clipPath id="017f73752f"><path d="M 35.214844 195 L 339.714844 195 L 339.714844 222.527344 L 35.214844 222.527344 Z M 35.214844 195 " clip-rule="nonzero"/></clipPath></defs><g clip-path="url(#edf05f8683)"><path fill="#bd7877" d="M 60.5625 147.34375 C 65.191406 141.328125 69.554688 135.65625 78.414062 135.65625 C 87.273438 135.648438 91.640625 141.328125 96.269531 147.34375 C 101.011719 153.515625 105.914062 159.890625 115.699219 159.890625 C 125.480469 159.890625 130.382812 153.515625 135.132812 147.34375 C 139.753906 141.328125 144.121094 135.65625 152.988281 135.65625 C 161.839844 135.648438 166.210938 141.328125 170.839844 147.34375 C 175.582031 153.515625 180.480469 159.890625 190.269531 159.890625 C 200.050781 159.890625 204.953125 153.515625 209.703125 147.34375 C 214.328125 141.328125 218.691406 135.65625 227.558594 135.65625 C 236.417969 135.648438 240.789062 141.328125 245.40625 147.34375 C 250.148438 153.515625 255.058594 159.890625 264.839844 159.890625 C 274.621094 159.890625 279.527344 153.515625 284.269531 147.34375 C 288.898438 141.328125 293.261719 135.65625 302.128906 135.65625 C 310.988281 135.648438 315.355469 141.328125 319.976562 147.34375 C 324.726562 153.515625 329.628906 159.890625 339.414062 159.890625 L 339.414062 156.863281 C 330.546875 156.863281 326.179688 151.179688 321.558594 145.171875 C 316.816406 139.003906 311.910156 132.621094 302.128906 132.621094 C 292.339844 132.621094 287.4375 139.003906 282.6875 145.171875 C 278.066406 151.179688 273.699219 156.863281 264.839844 156.863281 C 255.980469 156.863281 251.609375 151.179688 246.984375 145.171875 C 242.242188 139.003906 237.339844 132.621094 227.558594 132.621094 C 217.769531 132.621094 212.859375 139.003906 208.117188 145.171875 C 203.5 151.179688 199.128906 156.863281 190.269531 156.863281 C 181.410156 156.863281 177.042969 151.179688 172.414062 145.171875 C 167.671875 139.003906 162.769531 132.621094 152.988281 132.621094 C 143.203125 132.621094 138.300781 139.003906 133.550781 145.171875 C 128.921875 151.179688 124.5625 156.863281 115.699219 156.863281 C 106.839844 156.863281 102.472656 151.179688 97.84375 145.171875 C 93.101562 139.003906 88.199219 132.621094 78.414062 132.621094 C 68.632812 132.621094 63.730469 139.003906 58.980469 145.171875 C 54.359375 151.179688 49.984375 156.863281 41.125 156.863281 C 38.941406 156.863281 37.039062 156.511719 35.324219 155.902344 L 35.324219 158.984375 C 37.066406 159.539062 38.960938 159.890625 41.125 159.890625 C 50.914062 159.890625 55.820312 153.515625 60.5625 147.34375 " fill-opacity="1" fill-rule="evenodd"/></g><g clip-path="url(#11d0ce8cea)"><path fill="#171539" d="M 60.5625 168.277344 C 65.191406 162.269531 69.554688 156.589844 78.414062 156.589844 C 87.273438 156.589844 91.640625 162.269531 96.269531 168.277344 C 101.011719 174.449219 105.914062 180.832031 115.699219 180.832031 C 125.480469 180.832031 130.382812 174.449219 135.132812 168.277344 C 139.753906 162.269531 144.121094 156.589844 152.988281 156.589844 C 161.839844 156.589844 166.210938 162.269531 170.839844 168.277344 C 175.582031 174.449219 180.480469 180.832031 190.269531 180.832031 C 200.050781 180.832031 204.953125 174.449219 209.703125 168.277344 C 214.328125 162.269531 218.691406 156.589844 227.558594 156.589844 C 236.417969 156.589844 240.789062 162.269531 245.40625 168.277344 C 250.148438 174.449219 255.058594 180.832031 264.839844 180.832031 C 274.621094 180.832031 279.527344 174.449219 284.269531 168.277344 C 288.898438 162.269531 293.261719 156.589844 302.128906 156.589844 C 310.988281 156.589844 315.355469 162.269531 319.976562 168.277344 C 324.726562 174.449219 329.628906 180.832031 339.414062 180.832031 L 339.414062 177.804688 C 330.546875 177.796875 326.179688 172.121094 321.558594 166.105469 C 316.816406 159.9375 311.910156 153.558594 302.128906 153.558594 C 292.339844 153.558594 287.4375 159.9375 282.6875 166.105469 C 278.066406 172.121094 273.699219 177.804688 264.839844 177.804688 C 255.980469 177.796875 251.609375 172.121094 246.984375 166.105469 C 242.242188 159.9375 237.339844 153.558594 227.558594 153.558594 C 217.769531 153.558594 212.859375 159.9375 208.117188 166.105469 C 203.5 172.121094 199.128906 177.804688 190.269531 177.804688 C 181.410156 177.796875 177.042969 172.121094 172.414062 166.105469 C 167.671875 159.9375 162.769531 153.558594 152.988281 153.558594 C 143.203125 153.558594 138.300781 159.9375 133.550781 166.113281 C 128.921875 172.121094 124.5625 177.804688 115.699219 177.804688 C 106.839844 177.796875 102.472656 172.121094 97.84375 166.105469 C 93.101562 159.9375 88.199219 153.558594 78.414062 153.558594 C 68.632812 153.558594 63.730469 159.9375 58.980469 166.105469 C 54.359375 172.121094 49.984375 177.804688 41.125 177.804688 C 38.941406 177.796875 37.039062 177.445312 35.324219 176.835938 L 35.324219 179.925781 C 37.066406 180.472656 38.960938 180.832031 41.125 180.832031 C 50.914062 180.832031 55.820312 174.449219 60.5625 168.277344 " fill-opacity="1" fill-rule="evenodd"/></g><g clip-path="url(#c1601c23e3)"><path fill="#c9974e" d="M 60.5625 189.21875 C 65.191406 183.203125 69.554688 177.53125 78.414062 177.53125 C 87.273438 177.523438 91.640625 183.203125 96.269531 189.210938 C 101.011719 195.390625 105.914062 201.765625 115.699219 201.765625 C 125.480469 201.765625 130.382812 195.390625 135.132812 189.21875 C 139.753906 183.203125 144.121094 177.53125 152.988281 177.53125 C 161.839844 177.523438 166.210938 183.203125 170.839844 189.21875 C 175.582031 195.390625 180.480469 201.765625 190.269531 201.765625 C 200.050781 201.765625 204.953125 195.390625 209.703125 189.21875 C 214.328125 183.203125 218.691406 177.53125 227.558594 177.53125 C 236.417969 177.523438 240.789062 183.203125 245.40625 189.21875 C 250.148438 195.390625 255.058594 201.765625 264.839844 201.765625 C 274.621094 201.765625 279.527344 195.390625 284.269531 189.21875 C 288.898438 183.203125 293.261719 177.53125 302.128906 177.53125 C 310.988281 177.523438 315.355469 183.203125 319.976562 189.21875 C 324.726562 195.390625 329.628906 201.765625 339.414062 201.765625 L 339.414062 198.738281 C 330.546875 198.738281 326.179688 193.054688 321.558594 187.046875 C 316.816406 180.878906 311.910156 174.496094 302.128906 174.496094 C 292.339844 174.496094 287.4375 180.878906 282.6875 187.046875 C 278.066406 193.054688 273.699219 198.738281 264.839844 198.738281 C 255.980469 198.738281 251.609375 193.054688 246.984375 187.046875 C 242.242188 180.878906 237.339844 174.496094 227.558594 174.496094 C 217.769531 174.496094 212.859375 180.878906 208.117188 187.046875 C 203.5 193.054688 199.128906 198.738281 190.269531 198.738281 C 181.410156 198.738281 177.042969 193.054688 172.414062 187.046875 C 167.671875 180.878906 162.769531 174.496094 152.988281 174.496094 C 143.203125 174.496094 138.300781 180.878906 133.550781 187.046875 C 128.921875 193.054688 124.5625 198.738281 115.699219 198.738281 C 106.839844 198.738281 102.472656 193.054688 97.84375 187.046875 C 93.101562 180.878906 88.199219 174.496094 78.414062 174.496094 C 68.632812 174.496094 63.730469 180.878906 58.980469 187.046875 C 54.359375 193.054688 49.984375 198.738281 41.125 198.738281 C 38.941406 198.738281 37.039062 198.386719 35.324219 197.777344 L 35.324219 200.859375 C 37.066406 201.414062 38.960938 201.765625 41.125 201.765625 C 50.914062 201.765625 55.820312 195.390625 60.5625 189.21875 " fill-opacity="1" fill-rule="evenodd"/></g><g clip-path="url(#017f73752f)"><path fill="#6a7b73" d="M 60.5625 210.152344 C 65.191406 204.144531 69.554688 198.464844 78.414062 198.464844 C 87.273438 198.464844 91.640625 204.144531 96.269531 210.152344 C 101.011719 216.324219 105.914062 222.707031 115.699219 222.707031 C 125.480469 222.707031 130.382812 216.324219 135.132812 210.152344 C 139.753906 204.144531 144.121094 198.464844 152.988281 198.464844 C 161.839844 198.464844 166.210938 204.144531 170.839844 210.152344 C 175.582031 216.324219 180.480469 222.707031 190.269531 222.707031 C 200.050781 222.707031 204.953125 216.324219 209.703125 210.152344 C 214.328125 204.144531 218.691406 198.464844 227.558594 198.464844 C 236.417969 198.464844 240.789062 204.144531 245.40625 210.152344 C 250.148438 216.324219 255.058594 222.707031 264.839844 222.707031 C 274.621094 222.707031 279.527344 216.324219 284.269531 210.152344 C 288.898438 204.144531 293.261719 198.464844 302.128906 198.464844 C 310.988281 198.464844 315.355469 204.144531 319.976562 210.152344 C 324.726562 216.324219 329.628906 222.707031 339.414062 222.707031 L 339.414062 219.671875 C 330.546875 219.671875 326.179688 213.996094 321.558594 207.980469 C 316.816406 201.8125 311.910156 195.433594 302.128906 195.433594 C 292.339844 195.433594 287.4375 201.8125 282.6875 207.980469 C 278.066406 213.996094 273.699219 219.671875 264.839844 219.671875 C 255.980469 219.671875 251.609375 213.996094 246.984375 207.980469 C 242.242188 201.8125 237.339844 195.433594 227.558594 195.433594 C 217.769531 195.433594 212.859375 201.8125 208.117188 207.980469 C 203.5 213.996094 199.128906 219.671875 190.269531 219.671875 C 181.410156 219.671875 177.042969 213.996094 172.414062 207.980469 C 167.671875 201.8125 162.769531 195.433594 152.988281 195.433594 C 143.203125 195.433594 138.300781 201.8125 133.550781 207.988281 C 128.921875 213.996094 124.5625 219.671875 115.699219 219.671875 C 106.839844 219.671875 102.472656 213.996094 97.84375 207.980469 C 93.101562 201.8125 88.199219 195.433594 78.414062 195.433594 C 68.632812 195.433594 63.730469 201.8125 58.980469 207.980469 C 54.359375 213.996094 49.984375 219.671875 41.125 219.671875 C 38.941406 219.671875 37.039062 219.320312 35.324219 218.710938 L 35.324219 221.792969 C 37.066406 222.347656 38.960938 222.707031 41.125 222.707031 C 50.914062 222.707031 55.820312 216.324219 60.5625 210.152344 " fill-opacity="1" fill-rule="evenodd"/></g></svg>