<svg xmlns="http://www.w3.org/2000/svg" xmlns:xlink="http://www.w3.org/1999/xlink" width="500" zoomAndPan="magnify" viewBox="0 0 375 374.999991" height="500" preserveAspectRatio="xMidYMid meet" version="1.0"><defs><clipPath id="f59117cbac"><path d="M 9.894531 87 L 365.394531 87 L 365.394531 263.195312 L 9.894531 263.195312 Z M 9.894531 87 " clip-rule="nonzero"/></clipPath><clipPath id="b0aa2337f7"><path d="M 43 120 L 332 120 L 332 263.195312 L 43 263.195312 Z M 43 120 " clip-rule="nonzero"/></clipPath><clipPath id="79a28ce8b1"><path d="M 73 150 L 301 150 L 301 263.195312 L 73 263.195312 Z M 73 150 " clip-rule="nonzero"/></clipPath><clipPath id="78dd9fe883"><path d="M 99 177 L 275 177 L 275 263.195312 L 99 263.195312 Z M 99 177 " clip-rule="nonzero"/></clipPath></defs><g clip-path="url(#f59117cbac)"><path fill="#c9974e" d="M 9.894531 263.101562 C 28.410156 163.296875 98.75 92.625 173.726562 88.027344 C 238.28125 84.070312 288.613281 130.1875 297.433594 138.261719 C 349.539062 186.007812 363.625 246.851562 365.394531 263.101562 C 358.523438 263.101562 346.128906 263.101562 339.257812 263.101562 C 337.6875 254.164062 334.925781 241.96875 329.734375 228.214844 C 327.539062 222.382812 320.390625 204.503906 305.648438 183.863281 C 296.148438 170.570312 281.800781 150.484375 256.355469 134.523438 C 246.945312 128.617188 220.195312 111.835938 184.933594 111.941406 C 118.175781 112.128906 76.351562 172.976562 68.152344 183.863281 C 45.535156 213.898438 41.441406 244.28125 37.53125 263.101562 C 29.941406 263.101562 17.484375 263.101562 9.894531 263.101562 Z M 9.894531 263.101562 " fill-opacity="1" fill-rule="nonzero"/></g><g clip-path="url(#b0aa2337f7)"><path fill="#6a7b73" d="M 43.617188 263.101562 C 58.628906 182.195312 115.644531 124.910156 176.421875 121.179688 C 228.753906 117.972656 269.554688 155.351562 276.699219 161.90625 C 318.933594 200.609375 330.363281 249.929688 331.796875 263.101562 C 326.222656 263.101562 316.179688 263.101562 310.609375 263.101562 C 309.332031 255.851562 307.097656 245.976562 302.886719 234.816406 C 301.101562 230.089844 295.3125 215.589844 283.363281 198.867188 C 275.664062 188.09375 264.027344 171.8125 243.40625 158.871094 C 235.773438 154.085938 213.113281 142.910156 184.53125 142.992188 C 130.414062 143.144531 97.488281 190.039062 90.839844 198.867188 C 72.503906 223.214844 69.195312 247.839844 66.015625 263.097656 C 59.867188 263.101562 49.761719 263.101562 43.617188 263.101562 Z M 43.617188 263.101562 " fill-opacity="1" fill-rule="nonzero"/></g><g clip-path="url(#79a28ce8b1)"><path fill="#bd7877" d="M 73.625 263.101562 C 85.46875 199.261719 130.453125 154.066406 178.40625 151.128906 C 219.699219 148.59375 251.890625 178.089844 257.527344 183.257812 C 290.851562 213.792969 299.867188 252.710938 300.996094 263.101562 C 296.605469 263.101562 288.671875 263.101562 284.273438 263.101562 C 283.265625 257.382812 281.503906 249.585938 278.179688 240.789062 C 276.773438 237.058594 272.203125 225.621094 262.78125 212.425781 C 256.707031 203.925781 247.527344 191.078125 231.253906 180.871094 C 225.234375 177.097656 207.355469 168.285156 184.800781 168.34375 C 142.105469 168.464844 116.121094 205.460938 110.878906 212.425781 C 96.410156 231.640625 93.796875 251.066406 91.296875 263.109375 C 86.449219 263.101562 78.480469 263.101562 73.625 263.101562 Z M 73.625 263.101562 " fill-opacity="1" fill-rule="nonzero"/></g><g clip-path="url(#78dd9fe883)"><path fill="#171539" d="M 99.691406 263.101562 C 108.773438 214.160156 143.261719 179.503906 180.027344 177.253906 C 211.6875 175.3125 236.363281 197.925781 240.6875 201.886719 C 266.238281 225.300781 273.144531 255.132812 274.011719 263.101562 C 270.644531 263.101562 264.5625 263.101562 261.195312 263.101562 C 260.425781 258.714844 259.066406 252.742188 256.527344 245.992188 C 255.453125 243.136719 251.949219 234.359375 244.71875 224.246094 C 240.058594 217.726562 233.023438 207.882812 220.550781 200.054688 C 215.9375 197.160156 202.226562 190.402344 184.941406 190.449219 C 152.207031 190.539062 132.289062 218.90625 128.265625 224.246094 C 117.171875 238.972656 115.171875 253.871094 113.253906 263.101562 C 109.519531 263.101562 103.410156 263.101562 99.691406 263.101562 Z M 99.691406 263.101562 " fill-opacity="1" fill-rule="nonzero"/></g></svg>