<svg xmlns="http://www.w3.org/2000/svg" xmlns:xlink="http://www.w3.org/1999/xlink" width="500" zoomAndPan="magnify" viewBox="0 0 375 374.999991" height="500" preserveAspectRatio="xMidYMid meet" version="1.0"><defs><clipPath id="211fb3f47c"><path d="M 186 116.039062 L 258 116.039062 L 258 259.289062 L 186 259.289062 Z M 186 116.039062 " clip-rule="nonzero"/></clipPath><clipPath id="6b5f91fd4c"><path d="M 116 116.039062 L 188 116.039062 L 188 259.289062 L 116 259.289062 Z M 116 116.039062 " clip-rule="nonzero"/></clipPath><clipPath id="7129a8b661"><path d="M 341 160 L 368.992188 160 L 368.992188 216 L 341 216 Z M 341 160 " clip-rule="nonzero"/></clipPath><clipPath id="f82ad477f7"><path d="M 5.992188 159 L 34 159 L 34 216 L 5.992188 216 Z M 5.992188 159 " clip-rule="nonzero"/></clipPath></defs><path fill="#bd7877" d="M 238.015625 140.582031 C 237.957031 140.605469 237.949219 140.613281 238.015625 140.582031 Z M 238.015625 140.582031 " fill-opacity="1" fill-rule="nonzero"/><path fill="#bd7877" d="M 256.839844 136.445312 C 255.785156 136.46875 254.722656 136.515625 253.675781 136.617188 C 253.332031 136.648438 252.984375 136.679688 252.640625 136.714844 C 252.914062 136.6875 252.546875 136.726562 252.488281 136.734375 C 252.300781 136.757812 252.113281 136.785156 251.925781 136.808594 C 251.347656 136.886719 250.773438 136.976562 250.195312 137.066406 C 248.03125 137.398438 245.898438 137.890625 243.800781 138.511719 C 242.707031 138.832031 241.628906 139.195312 240.550781 139.570312 C 240.078125 139.734375 239.601562 139.917969 239.140625 140.109375 C 238.800781 140.253906 238.460938 140.394531 238.121094 140.539062 C 238.074219 140.554688 238.042969 140.570312 238.015625 140.582031 C 237.890625 140.640625 237.765625 140.699219 237.636719 140.757812 C 235.632812 141.679688 233.609375 142.613281 231.746094 143.804688 C 230.769531 144.425781 229.800781 145.058594 228.84375 145.710938 C 228.355469 146.042969 227.882812 146.390625 227.40625 146.746094 C 227.351562 146.789062 227.292969 146.828125 227.234375 146.871094 C 227.132812 146.953125 227.03125 147.035156 226.929688 147.117188 C 226.6875 147.3125 226.445312 147.511719 226.203125 147.707031 C 224.425781 149.136719 222.769531 150.671875 221.179688 152.3125 C 220.457031 153.058594 219.757812 153.835938 219.09375 154.636719 C 218.851562 154.933594 218.605469 155.226562 218.363281 155.523438 C 218.328125 155.566406 218.3125 155.585938 218.300781 155.59375 C 218.207031 155.71875 218.113281 155.84375 218.019531 155.96875 C 217.65625 156.445312 217.289062 156.925781 216.929688 157.402344 C 215.617188 159.128906 214.488281 160.996094 213.425781 162.882812 C 212.84375 163.921875 212.316406 164.976562 211.820312 166.058594 C 211.597656 166.542969 211.378906 167.027344 211.15625 167.511719 C 211.265625 167.269531 211.089844 167.675781 211.0625 167.738281 C 210.988281 167.914062 210.917969 168.089844 210.84375 168.269531 C 210.769531 168.449219 210.691406 168.628906 210.621094 168.808594 C 209.804688 170.96875 209.128906 173.140625 208.523438 175.363281 C 208.242188 176.386719 208.066406 177.433594 207.863281 178.472656 C 207.75 179.054688 207.648438 179.632812 207.566406 180.222656 C 207.542969 180.402344 207.519531 180.585938 207.492188 180.769531 C 207.492188 180.773438 207.492188 180.800781 207.480469 180.867188 C 207.433594 181.226562 207.386719 181.585938 207.339844 181.945312 C 207.054688 184.113281 207.019531 186.316406 207.019531 188.5 C 207.019531 189.640625 207.113281 190.78125 207.175781 191.917969 C 207.191406 192.179688 207.226562 192.4375 207.25 192.695312 C 207.265625 192.867188 207.285156 193.039062 207.300781 193.210938 C 207.304688 193.277344 207.308594 193.300781 207.308594 193.304688 C 207.382812 193.855469 207.457031 194.40625 207.53125 194.957031 C 207.828125 197.167969 208.296875 199.355469 208.898438 201.507812 C 209.519531 203.722656 210.300781 205.867188 211.167969 208 C 211.191406 208.050781 211.214844 208.097656 211.234375 208.148438 C 211.3125 208.316406 211.386719 208.484375 211.464844 208.652344 C 211.558594 208.859375 211.65625 209.066406 211.75 209.277344 C 211.980469 209.773438 212.195312 210.28125 212.449219 210.765625 C 212.996094 211.820312 213.570312 212.859375 214.164062 213.890625 C 215.25 215.78125 216.519531 217.546875 217.835938 219.277344 C 217.96875 219.453125 218.101562 219.625 218.230469 219.800781 C 218.265625 219.839844 218.289062 219.875 218.3125 219.898438 C 218.523438 220.148438 218.734375 220.398438 218.949219 220.648438 C 219.308594 221.078125 219.671875 221.503906 220.035156 221.933594 C 220.699219 222.714844 221.441406 223.433594 222.164062 224.15625 C 223.003906 224.996094 223.859375 225.804688 224.761719 226.574219 C 225.203125 226.949219 225.648438 227.320312 226.09375 227.691406 C 226.265625 227.835938 226.445312 227.972656 226.625 228.109375 C 226.773438 228.226562 226.921875 228.34375 227.070312 228.460938 C 227.09375 228.480469 227.203125 228.5625 227.246094 228.597656 C 229.070312 229.988281 230.988281 231.210938 232.964844 232.375 C 233.84375 232.894531 234.765625 233.371094 235.6875 233.8125 C 236.21875 234.066406 236.746094 234.320312 237.28125 234.566406 C 237.476562 234.65625 237.675781 234.746094 237.871094 234.839844 C 238.007812 234.902344 238.078125 234.933594 237.96875 234.886719 C 238.273438 235.011719 238.578125 235.140625 238.882812 235.265625 C 240.875 236.101562 242.96875 236.792969 245.058594 237.328125 C 246.199219 237.617188 247.339844 237.878906 248.488281 238.121094 C 248.988281 238.230469 249.496094 238.3125 250 238.390625 C 250.3125 238.4375 250.621094 238.484375 250.933594 238.535156 C 251.050781 238.554688 251.167969 238.570312 251.289062 238.589844 C 251.28125 238.585938 251.34375 238.597656 251.449219 238.609375 C 253.550781 238.851562 255.640625 239 257.753906 239.054688 C 257.753906 237.703125 257.753906 236.351562 257.753906 235 C 257.300781 234.988281 256.851562 234.980469 256.398438 234.960938 C 252.347656 234.796875 248.28125 234.136719 244.40625 232.925781 C 240.539062 231.710938 236.722656 230.0625 233.308594 227.863281 C 231.582031 226.753906 229.933594 225.589844 228.347656 224.28125 C 226.773438 222.988281 225.304688 221.601562 223.886719 220.140625 C 221.039062 217.203125 218.664062 213.757812 216.71875 210.171875 C 214.769531 206.578125 213.351562 202.734375 212.382812 198.765625 C 211.414062 194.800781 211.007812 190.730469 211.085938 186.652344 C 211.167969 182.546875 211.875 178.554688 212.925781 174.59375 C 213.960938 170.679688 215.746094 166.9375 217.769531 163.449219 C 219.824219 159.910156 222.460938 156.8125 225.296875 153.890625 C 226.664062 152.484375 228.238281 151.210938 229.800781 150.035156 C 231.464844 148.78125 233.199219 147.644531 235.007812 146.613281 C 238.535156 144.601562 242.3125 143.109375 246.222656 142.046875 C 249.996094 141.019531 253.855469 140.597656 257.75 140.492188 C 257.75 139.136719 257.75 137.785156 257.75 136.429688 C 257.449219 136.4375 257.144531 136.441406 256.839844 136.445312 Z M 256.839844 136.445312 " fill-opacity="1" fill-rule="nonzero"/><path fill="#bd7877" d="M 218.3125 219.898438 C 218.339844 219.933594 218.34375 219.9375 218.3125 219.898438 Z M 218.3125 219.898438 " fill-opacity="1" fill-rule="nonzero"/><path fill="#bd7877" d="M 255.671875 218.800781 C 256.363281 218.867188 257.058594 218.886719 257.753906 218.90625 C 257.753906 217.550781 257.753906 216.195312 257.753906 214.84375 C 256.222656 214.78125 254.722656 214.628906 253.207031 214.386719 C 251.617188 214.136719 250.050781 213.601562 248.539062 213.054688 C 245.148438 211.828125 242.105469 209.742188 239.476562 207.300781 C 238.199219 206.109375 237.054688 204.730469 236.066406 203.289062 C 235.058594 201.824219 234.132812 200.273438 233.445312 198.625 C 232.765625 196.984375 232.175781 195.335938 231.8125 193.59375 C 231.4375 191.785156 231.210938 189.976562 231.164062 188.132812 C 231.070312 184.558594 231.820312 180.972656 233.109375 177.652344 C 234.375 174.390625 236.390625 171.277344 238.859375 168.804688 C 241.441406 166.214844 244.410156 164.183594 247.769531 162.738281 C 249.449219 162.015625 251.191406 161.527344 252.96875 161.140625 C 254.542969 160.800781 256.148438 160.695312 257.753906 160.644531 C 257.753906 159.289062 257.753906 157.9375 257.753906 156.582031 C 256.535156 156.617188 255.320312 156.679688 254.113281 156.828125 C 254.050781 156.835938 253.675781 156.894531 253.953125 156.847656 C 253.859375 156.863281 253.769531 156.878906 253.675781 156.894531 C 253.417969 156.9375 253.15625 156.984375 252.898438 157.027344 C 252.515625 157.09375 252.132812 157.167969 251.753906 157.25 C 250.878906 157.449219 250.019531 157.667969 249.160156 157.925781 C 248.285156 158.191406 247.429688 158.492188 246.574219 158.824219 C 246.574219 158.824219 246.570312 158.824219 246.566406 158.828125 C 246.542969 158.839844 246.515625 158.851562 246.492188 158.859375 C 246.359375 158.921875 246.226562 158.980469 246.09375 159.039062 C 245.929688 159.113281 245.765625 159.1875 245.597656 159.261719 C 245.207031 159.4375 244.804688 159.605469 244.421875 159.800781 C 242.84375 160.613281 241.335938 161.503906 239.90625 162.558594 C 239.683594 162.722656 239.464844 162.882812 239.246094 163.046875 C 239.167969 163.101562 239.09375 163.160156 239.015625 163.214844 C 239.222656 163.0625 238.984375 163.246094 238.941406 163.28125 C 238.582031 163.574219 238.222656 163.867188 237.875 164.171875 C 237.183594 164.777344 236.519531 165.394531 235.882812 166.058594 C 235.324219 166.636719 234.792969 167.234375 234.277344 167.851562 C 234.085938 168.078125 233.890625 168.304688 233.699219 168.535156 C 233.695312 168.539062 233.691406 168.542969 233.691406 168.546875 C 233.683594 168.554688 233.679688 168.558594 233.675781 168.566406 C 233.59375 168.679688 233.511719 168.792969 233.429688 168.902344 C 233.148438 169.28125 232.882812 169.667969 232.621094 170.058594 C 231.664062 171.480469 230.804688 172.949219 230.070312 174.503906 C 229.996094 174.660156 229.921875 174.816406 229.847656 174.972656 C 229.785156 175.105469 229.773438 175.128906 229.816406 175.027344 C 229.714844 175.269531 229.613281 175.507812 229.511719 175.75 C 229.339844 176.164062 229.183594 176.578125 229.027344 176.996094 C 228.742188 177.730469 228.464844 178.523438 228.277344 179.285156 C 228.046875 180.195312 227.816406 181.105469 227.640625 182.027344 C 227.550781 182.472656 227.492188 182.921875 227.425781 183.371094 C 227.421875 183.386719 227.421875 183.398438 227.421875 183.410156 C 227.417969 183.421875 227.417969 183.433594 227.414062 183.449219 C 227.398438 183.582031 227.382812 183.71875 227.367188 183.851562 C 227.34375 184.050781 227.3125 184.246094 227.292969 184.445312 C 227.117188 186.253906 227.097656 188.035156 227.183594 189.847656 C 227.203125 190.25 227.246094 190.652344 227.292969 191.046875 C 227.324219 191.292969 227.351562 191.539062 227.382812 191.785156 C 227.394531 191.878906 227.40625 191.96875 227.417969 192.058594 C 227.421875 192.082031 227.425781 192.113281 227.433594 192.167969 C 227.566406 193.09375 227.734375 194.007812 227.960938 194.917969 C 228.375 196.582031 228.875 198.21875 229.539062 199.800781 C 229.609375 199.964844 229.675781 200.125 229.742188 200.285156 C 229.765625 200.339844 229.894531 200.613281 229.78125 200.375 C 229.890625 200.601562 229.996094 200.828125 230.101562 201.054688 C 230.296875 201.464844 230.507812 201.871094 230.714844 202.273438 C 231.074219 202.980469 231.476562 203.6875 231.910156 204.347656 C 232.417969 205.121094 232.917969 205.894531 233.476562 206.632812 C 233.546875 206.726562 233.617188 206.820312 233.6875 206.910156 C 233.667969 206.886719 233.695312 206.921875 233.765625 207.003906 C 233.945312 207.230469 234.128906 207.453125 234.3125 207.675781 C 234.5625 207.984375 234.824219 208.292969 235.09375 208.585938 C 235.675781 209.210938 236.246094 209.855469 236.878906 210.425781 C 237.566406 211.050781 238.265625 211.65625 238.988281 212.246094 C 239.011719 212.265625 239.035156 212.285156 239.0625 212.304688 C 239.164062 212.382812 239.265625 212.453125 239.367188 212.527344 C 239.546875 212.664062 239.726562 212.804688 239.914062 212.933594 C 240.246094 213.167969 240.570312 213.414062 240.910156 213.636719 C 241.703125 214.148438 242.496094 214.648438 243.320312 215.105469 C 243.714844 215.324219 244.121094 215.53125 244.523438 215.738281 C 244.683594 215.820312 244.847656 215.890625 245.011719 215.964844 C 245.148438 216.023438 245.285156 216.085938 245.425781 216.148438 C 245.464844 216.167969 245.660156 216.25 245.601562 216.226562 C 246.382812 216.558594 247.164062 216.875 247.960938 217.160156 C 249.574219 217.742188 251.273438 218.21875 252.972656 218.46875 C 253.265625 218.511719 253.558594 218.554688 253.855469 218.597656 C 253.867188 218.601562 253.878906 218.601562 253.890625 218.605469 C 254.011719 218.621094 254.132812 218.632812 254.257812 218.648438 C 254.730469 218.707031 255.199219 218.753906 255.671875 218.800781 Z M 255.671875 218.800781 " fill-opacity="1" fill-rule="nonzero"/><path fill="#bd7877" d="M 206.273438 209.324219 C 206.203125 209.15625 206.253906 209.285156 206.273438 209.324219 Z M 206.273438 209.324219 " fill-opacity="1" fill-rule="nonzero"/><path fill="#bd7877" d="M 252.085938 248.820312 C 252.753906 248.878906 253.421875 248.9375 254.089844 248.984375 C 255.308594 249.070312 256.53125 249.105469 257.75 249.128906 C 257.75 247.777344 257.75 246.425781 257.75 245.070312 C 257.59375 245.066406 257.433594 245.066406 257.273438 245.0625 C 252.308594 244.972656 247.371094 244.21875 242.589844 242.886719 C 237.84375 241.5625 233.195312 239.558594 228.976562 237.003906 C 224.730469 234.433594 220.796875 231.390625 217.332031 227.824219 C 213.847656 224.246094 210.933594 220.261719 208.425781 215.949219 C 205.960938 211.707031 204.003906 206.953125 202.855469 202.179688 C 202.269531 199.746094 201.773438 197.320312 201.460938 194.835938 C 201.148438 192.367188 201.023438 189.90625 201.023438 187.417969 C 201.023438 182.464844 201.691406 177.453125 203.015625 172.675781 C 204.347656 167.871094 206.261719 163.253906 208.765625 158.949219 C 211.265625 154.660156 214.28125 150.617188 217.835938 147.140625 C 221.386719 143.671875 225.296875 140.480469 229.652344 138.074219 C 234.027344 135.652344 238.574219 133.625 243.425781 132.363281 C 248.140625 131.140625 252.890625 130.535156 257.75 130.417969 C 257.75 129.0625 257.75 127.710938 257.75 126.359375 C 255.402344 126.414062 253.074219 126.5625 250.734375 126.808594 C 250.648438 126.816406 250.617188 126.820312 250.609375 126.820312 C 250.605469 126.820312 250.597656 126.820312 250.585938 126.824219 C 250.386719 126.851562 250.183594 126.878906 249.980469 126.90625 C 249.699219 126.945312 249.417969 126.980469 249.136719 127.023438 C 248.550781 127.117188 247.960938 127.199219 247.375 127.3125 C 246.101562 127.558594 244.835938 127.820312 243.574219 128.132812 C 240.945312 128.792969 238.378906 129.617188 235.855469 130.601562 C 235.546875 130.722656 235.234375 130.84375 234.925781 130.964844 C 234.757812 131.03125 234.589844 131.097656 234.421875 131.164062 C 234.527344 131.121094 234.394531 131.175781 234.25 131.242188 C 233.574219 131.546875 232.894531 131.855469 232.214844 132.164062 C 231.050781 132.695312 229.902344 133.28125 228.789062 133.90625 C 223.792969 136.714844 219.699219 139.746094 215.585938 143.671875 C 214.660156 144.558594 213.773438 145.492188 212.910156 146.445312 C 212.410156 146.996094 211.921875 147.558594 211.433594 148.125 C 211.25 148.339844 211.070312 148.554688 210.886719 148.773438 C 210.738281 148.945312 210.59375 149.121094 210.445312 149.296875 C 210.402344 149.351562 210.355469 149.40625 210.308594 149.460938 C 210.300781 149.46875 210.296875 149.472656 210.292969 149.476562 C 208.667969 151.617188 207.054688 153.792969 205.707031 156.121094 C 204.316406 158.523438 203.035156 160.964844 201.933594 163.515625 C 201.90625 163.582031 201.695312 164.074219 201.792969 163.84375 C 201.734375 163.988281 201.675781 164.128906 201.617188 164.273438 C 201.480469 164.605469 201.335938 164.9375 201.210938 165.269531 C 200.992188 165.863281 200.773438 166.457031 200.554688 167.050781 C 200.0625 168.382812 199.667969 169.738281 199.25 171.097656 C 198.480469 173.582031 197.960938 176.246094 197.601562 178.824219 C 197.539062 179.257812 197.476562 179.6875 197.417969 180.121094 C 197.433594 180.003906 197.417969 180.144531 197.402344 180.304688 C 197.378906 180.535156 197.355469 180.761719 197.332031 180.992188 C 197.257812 181.679688 197.199219 182.367188 197.140625 183.058594 C 197.023438 184.378906 196.984375 185.703125 196.960938 187.027344 C 196.914062 189.785156 197.128906 192.527344 197.410156 195.269531 C 197.421875 195.355469 197.421875 195.386719 197.421875 195.390625 C 197.425781 195.410156 197.429688 195.4375 197.4375 195.488281 C 197.46875 195.703125 197.496094 195.917969 197.527344 196.132812 C 197.566406 196.402344 197.597656 196.667969 197.644531 196.933594 C 197.765625 197.640625 197.890625 198.347656 198.023438 199.050781 C 198.273438 200.347656 198.519531 201.652344 198.859375 202.929688 C 199.558594 205.546875 200.371094 208.140625 201.390625 210.652344 C 201.496094 210.902344 201.59375 211.15625 201.695312 211.40625 C 201.753906 211.550781 201.8125 211.683594 201.765625 211.578125 C 201.929688 211.953125 202.089844 212.328125 202.253906 212.703125 C 202.492188 213.261719 202.769531 213.796875 203.027344 214.34375 C 203.644531 215.625 204.292969 216.878906 204.992188 218.117188 C 206.324219 220.46875 207.839844 222.660156 209.417969 224.851562 C 209.273438 224.648438 209.589844 225.070312 209.636719 225.128906 C 209.777344 225.3125 209.917969 225.496094 210.0625 225.675781 C 210.210938 225.867188 210.359375 226.058594 210.511719 226.242188 C 210.992188 226.828125 211.472656 227.402344 211.964844 227.972656 C 212.796875 228.9375 213.660156 229.882812 214.558594 230.785156 C 216.511719 232.746094 218.574219 234.554688 220.730469 236.285156 C 220.902344 236.421875 221.074219 236.558594 221.246094 236.699219 C 221.15625 236.628906 221.269531 236.714844 221.398438 236.808594 C 221.730469 237.046875 222.0625 237.289062 222.390625 237.53125 C 222.863281 237.875 223.34375 238.214844 223.828125 238.535156 C 225.046875 239.332031 226.273438 240.113281 227.523438 240.863281 C 228.628906 241.527344 229.78125 242.121094 230.933594 242.699219 C 231.589844 243.03125 232.253906 243.335938 232.925781 243.640625 C 233.191406 243.761719 233.464844 243.878906 233.734375 243.996094 C 233.933594 244.082031 234.132812 244.171875 234.332031 244.257812 C 234.382812 244.277344 234.410156 244.289062 234.425781 244.296875 C 234.4375 244.304688 234.453125 244.308594 234.472656 244.316406 C 237.003906 245.351562 239.558594 246.28125 242.199219 246.988281 C 244.875 247.707031 247.585938 248.246094 250.328125 248.625 C 250.410156 248.636719 250.496094 248.648438 250.582031 248.660156 C 250.585938 248.660156 250.597656 248.660156 250.609375 248.660156 C 250.785156 248.679688 250.964844 248.699219 251.140625 248.71875 C 251.453125 248.753906 251.769531 248.792969 252.085938 248.820312 Z M 252.085938 248.820312 " fill-opacity="1" fill-rule="nonzero"/><path fill="#bd7877" d="M 239.058594 212.300781 C 239.058594 212.300781 239.058594 212.304688 239.0625 212.304688 C 238.953125 212.214844 239.027344 212.277344 239.058594 212.300781 Z M 239.058594 212.300781 " fill-opacity="1" fill-rule="nonzero"/><path fill="#bd7877" d="M 222.398438 183.015625 C 222.398438 183.003906 222.398438 182.988281 222.402344 182.96875 C 222.398438 182.984375 222.398438 183 222.398438 183.015625 Z M 222.398438 183.015625 " fill-opacity="1" fill-rule="nonzero"/><path fill="#bd7877" d="M 255.707031 146.574219 C 255.285156 146.601562 254.859375 146.613281 254.441406 146.65625 C 254.171875 146.6875 253.90625 146.714844 253.640625 146.742188 C 253.519531 146.757812 253.398438 146.769531 253.273438 146.78125 C 253.269531 146.78125 253.269531 146.78125 253.261719 146.785156 C 251.617188 147.027344 249.933594 147.261719 248.324219 147.691406 C 246.558594 148.164062 244.828125 148.71875 243.125 149.378906 C 242.957031 149.441406 242.789062 149.507812 242.625 149.574219 C 242.570312 149.59375 242.292969 149.707031 242.539062 149.601562 C 242.304688 149.703125 242.078125 149.800781 241.84375 149.902344 C 241.410156 150.089844 240.980469 150.289062 240.550781 150.492188 C 239.71875 150.878906 238.914062 151.3125 238.113281 151.761719 C 236.589844 152.621094 235.128906 153.578125 233.71875 154.617188 C 233.46875 154.804688 233.214844 154.992188 232.960938 155.175781 C 232.917969 155.210938 232.683594 155.394531 232.882812 155.230469 C 232.8125 155.289062 232.742188 155.347656 232.671875 155.40625 C 232.308594 155.703125 231.941406 156 231.582031 156.308594 C 230.863281 156.929688 230.164062 157.566406 229.480469 158.230469 C 228.175781 159.5 226.96875 160.847656 225.84375 162.28125 C 225.824219 162.3125 225.777344 162.371094 225.742188 162.414062 C 225.648438 162.539062 225.554688 162.660156 225.460938 162.785156 C 225.339844 162.941406 225.214844 163.097656 225.097656 163.261719 C 224.851562 163.613281 224.59375 163.957031 224.355469 164.3125 C 223.851562 165.0625 223.351562 165.808594 222.894531 166.585938 C 221.941406 168.21875 221.078125 169.890625 220.332031 171.625 C 220.285156 171.730469 220.242188 171.832031 220.195312 171.9375 C 220.203125 171.925781 220.1875 171.960938 220.152344 172.050781 C 220.046875 172.328125 219.941406 172.605469 219.832031 172.882812 C 219.667969 173.304688 219.519531 173.734375 219.367188 174.160156 C 219.070312 174.976562 218.804688 175.8125 218.589844 176.652344 C 218.132812 178.398438 217.738281 180.144531 217.476562 181.933594 C 217.433594 182.199219 217.394531 182.46875 217.355469 182.738281 C 217.351562 182.753906 217.347656 182.789062 217.339844 182.855469 C 217.324219 183 217.3125 183.144531 217.292969 183.289062 C 217.246094 183.761719 217.207031 184.230469 217.175781 184.707031 C 217.117188 185.625 217.089844 186.542969 217.070312 187.464844 C 217.050781 188.371094 217.101562 189.285156 217.140625 190.1875 C 217.160156 190.628906 217.195312 191.0625 217.222656 191.503906 C 217.234375 191.707031 217.265625 191.910156 217.285156 192.113281 C 217.300781 192.265625 217.316406 192.417969 217.335938 192.570312 C 217.339844 192.621094 217.371094 192.855469 217.351562 192.734375 C 217.617188 194.507812 217.914062 196.277344 218.375 198.011719 C 218.863281 199.84375 219.453125 201.613281 220.132812 203.378906 C 220.171875 203.488281 220.242188 203.652344 220.167969 203.484375 C 220.210938 203.585938 220.253906 203.6875 220.300781 203.785156 C 220.414062 204.050781 220.527344 204.3125 220.640625 204.578125 C 220.808594 204.972656 221.007812 205.355469 221.191406 205.746094 C 221.554688 206.507812 221.949219 207.285156 222.375 208.011719 C 223.308594 209.605469 224.292969 211.167969 225.410156 212.636719 C 225.519531 212.78125 225.632812 212.925781 225.742188 213.070312 C 225.777344 213.113281 225.964844 213.351562 225.800781 213.148438 C 225.953125 213.335938 226.101562 213.527344 226.253906 213.714844 C 226.550781 214.082031 226.855469 214.4375 227.160156 214.792969 C 227.761719 215.496094 228.402344 216.160156 229.046875 216.828125 C 229.648438 217.453125 230.292969 218.0625 230.949219 218.632812 C 231.273438 218.914062 231.59375 219.203125 231.925781 219.476562 C 232.15625 219.660156 232.382812 219.847656 232.613281 220.035156 C 232.6875 220.09375 232.757812 220.152344 232.828125 220.210938 C 232.84375 220.222656 232.871094 220.242188 232.910156 220.273438 C 234.429688 221.390625 235.957031 222.460938 237.585938 223.414062 C 239.152344 224.335938 240.785156 225.121094 242.449219 225.84375 C 242.421875 225.832031 242.535156 225.878906 242.621094 225.914062 C 242.765625 225.964844 242.90625 226.023438 243.046875 226.078125 C 243.230469 226.148438 243.414062 226.222656 243.601562 226.289062 C 244.007812 226.4375 244.410156 226.597656 244.820312 226.734375 C 245.6875 227.023438 246.558594 227.292969 247.445312 227.53125 C 248.332031 227.769531 249.21875 227.996094 250.117188 228.171875 C 250.582031 228.261719 251.046875 228.347656 251.511719 228.425781 C 251.675781 228.457031 251.835938 228.480469 251.996094 228.511719 C 252.03125 228.515625 252.050781 228.519531 252.0625 228.523438 C 252.332031 228.554688 252.597656 228.589844 252.867188 228.625 C 254.492188 228.832031 256.117188 228.933594 257.75 228.976562 C 257.75 227.625 257.75 226.273438 257.75 224.917969 C 256.246094 224.875 254.75 224.785156 253.253906 224.585938 C 251.46875 224.347656 249.707031 223.964844 247.972656 223.480469 C 244.601562 222.539062 241.359375 221.042969 238.40625 219.167969 C 236.820312 218.164062 235.332031 217.035156 233.90625 215.816406 C 232.632812 214.722656 231.371094 213.539062 230.300781 212.246094 C 229.148438 210.847656 228.007812 209.441406 227.039062 207.90625 C 226.082031 206.382812 225.222656 204.8125 224.464844 203.179688 C 222.972656 199.945312 222.054688 196.53125 221.5 193.023438 C 220.960938 189.617188 220.9375 186.003906 221.476562 182.601562 C 221.765625 180.796875 222.097656 179.019531 222.625 177.273438 C 223.128906 175.597656 223.710938 173.945312 224.441406 172.359375 C 225.953125 169.09375 227.871094 166.101562 230.199219 163.363281 C 232.460938 160.695312 235.191406 158.355469 238.144531 156.484375 C 241.101562 154.609375 244.304688 153.03125 247.6875 152.085938 C 249.480469 151.585938 251.273438 151.164062 253.121094 150.917969 C 254.660156 150.714844 256.199219 150.613281 257.75 150.566406 C 257.75 149.214844 257.75 147.859375 257.75 146.507812 C 257.070312 146.519531 256.390625 146.53125 255.707031 146.574219 Z M 255.707031 146.574219 " fill-opacity="1" fill-rule="nonzero"/><path fill="#bd7877" d="M 257.035156 176.78125 C 256.851562 176.800781 256.667969 176.824219 256.484375 176.847656 C 256.441406 176.855469 256.398438 176.859375 256.355469 176.863281 C 256.347656 176.867188 256.34375 176.867188 256.332031 176.867188 C 256.222656 176.890625 256.113281 176.914062 256.003906 176.933594 C 255.269531 177.082031 254.5625 177.34375 253.859375 177.609375 C 253.855469 177.613281 253.84375 177.617188 253.832031 177.621094 C 253.769531 177.652344 253.707031 177.683594 253.644531 177.714844 C 253.535156 177.765625 253.425781 177.820312 253.3125 177.871094 C 253.125 177.964844 252.941406 178.074219 252.757812 178.175781 C 252.382812 178.378906 252.03125 178.628906 251.679688 178.867188 C 251.65625 178.882812 251.640625 178.890625 251.632812 178.898438 C 251.597656 178.925781 251.5625 178.953125 251.527344 178.980469 C 251.417969 179.066406 251.3125 179.152344 251.203125 179.238281 C 251.039062 179.371094 250.886719 179.519531 250.726562 179.660156 C 250.402344 179.953125 250.113281 180.285156 249.824219 180.609375 C 249.800781 180.632812 249.789062 180.648438 249.785156 180.652344 C 249.757812 180.6875 249.734375 180.722656 249.707031 180.757812 C 249.628906 180.863281 249.546875 180.972656 249.464844 181.078125 C 249.339844 181.246094 249.21875 181.410156 249.09375 181.574219 C 248.839844 181.914062 248.652344 182.316406 248.449219 182.6875 C 248.339844 182.886719 248.246094 183.089844 248.148438 183.292969 C 248.128906 183.335938 248.117188 183.363281 248.109375 183.378906 C 248.105469 183.382812 248.101562 183.390625 248.097656 183.398438 C 248.050781 183.527344 248 183.660156 247.949219 183.789062 C 247.796875 184.183594 247.675781 184.585938 247.574219 184.996094 C 247.519531 185.214844 247.46875 185.433594 247.414062 185.652344 C 247.402344 185.710938 247.386719 185.773438 247.371094 185.832031 C 247.371094 185.839844 247.367188 185.847656 247.367188 185.851562 C 247.351562 185.964844 247.339844 186.078125 247.324219 186.1875 C 247.277344 186.605469 247.25 187.027344 247.230469 187.445312 C 247.214844 187.867188 247.238281 188.285156 247.269531 188.703125 C 247.289062 188.925781 247.308594 189.148438 247.335938 189.371094 C 247.351562 189.488281 247.363281 189.609375 247.378906 189.730469 C 247.347656 189.46875 247.417969 189.84375 247.433594 189.90625 C 247.53125 190.316406 247.617188 190.726562 247.75 191.128906 C 247.820312 191.339844 247.894531 191.550781 247.972656 191.757812 C 248.015625 191.871094 248.058594 191.984375 248.105469 192.097656 C 248.128906 192.148438 248.152344 192.203125 248.179688 192.253906 C 248.550781 193.03125 248.980469 193.757812 249.492188 194.441406 C 249.589844 194.574219 249.6875 194.703125 249.785156 194.832031 C 249.785156 194.835938 249.789062 194.839844 249.792969 194.839844 C 249.800781 194.847656 249.820312 194.871094 249.863281 194.917969 C 250 195.070312 250.128906 195.234375 250.277344 195.375 C 250.582031 195.660156 250.875 195.984375 251.203125 196.246094 C 251.328125 196.34375 251.457031 196.445312 251.582031 196.546875 C 251.621094 196.578125 251.65625 196.609375 251.691406 196.636719 C 251.523438 196.503906 251.640625 196.59375 251.679688 196.617188 C 251.851562 196.734375 252.019531 196.855469 252.195312 196.964844 C 252.558594 197.191406 252.925781 197.425781 253.3125 197.613281 C 253.445312 197.675781 253.582031 197.738281 253.710938 197.804688 C 253.761719 197.828125 253.8125 197.851562 253.863281 197.878906 C 254.058594 197.949219 254.25 198.03125 254.445312 198.09375 C 254.855469 198.234375 255.285156 198.40625 255.710938 198.492188 C 255.832031 198.515625 255.957031 198.539062 256.082031 198.566406 C 256.136719 198.578125 256.515625 198.640625 256.257812 198.609375 C 256.46875 198.636719 256.679688 198.671875 256.894531 198.6875 C 257.179688 198.710938 257.464844 198.730469 257.75 198.742188 C 257.75 197.472656 257.75 196.199219 257.75 194.929688 C 257.75 194.855469 257.75 194.78125 257.75 194.707031 C 256.902344 194.699219 256.0625 194.371094 255.292969 194.050781 C 254.476562 193.714844 253.730469 193.132812 253.136719 192.484375 C 251.925781 191.171875 251.179688 189.351562 251.277344 187.542969 C 251.378906 185.703125 252.070312 183.957031 253.4375 182.691406 C 254.644531 181.574219 256.128906 180.90625 257.75 180.792969 C 257.75 179.4375 257.75 178.082031 257.75 176.726562 C 257.515625 176.734375 257.277344 176.75 257.035156 176.78125 Z M 257.035156 176.78125 " fill-opacity="1" fill-rule="nonzero"/><g clip-path="url(#211fb3f47c)"><path fill="#bd7877" d="M 254.917969 116.351562 C 253.328125 116.453125 251.742188 116.578125 250.15625 116.730469 C 249.8125 116.765625 249.46875 116.8125 249.125 116.859375 C 248.890625 116.886719 248.65625 116.917969 248.425781 116.949219 C 248.398438 116.953125 248.378906 116.953125 248.367188 116.957031 C 248.355469 116.957031 248.320312 116.964844 248.226562 116.976562 C 247.386719 117.101562 246.550781 117.230469 245.71875 117.382812 C 242.777344 117.902344 239.839844 118.597656 236.996094 119.515625 C 235.457031 120.011719 233.9375 120.558594 232.421875 121.125 C 230.816406 121.726562 229.546875 122.300781 228.148438 122.941406 C 225.4375 124.179688 222.835938 125.648438 220.3125 127.226562 C 217.492188 128.988281 215.195312 130.738281 212.710938 132.722656 C 210.328125 134.625 208.164062 136.804688 206.066406 139.007812 C 201.738281 143.558594 198.378906 148.464844 195.335938 154.054688 C 194.628906 155.359375 193.980469 156.695312 193.355469 158.042969 C 192.792969 159.257812 192.203125 160.695312 191.640625 162.179688 C 190.515625 165.164062 189.589844 168.183594 188.832031 171.28125 C 188.472656 172.753906 188.1875 174.242188 187.917969 175.734375 C 187.625 177.363281 187.480469 178.480469 187.320312 180.144531 C 187.023438 183.214844 186.835938 186.308594 186.933594 189.394531 C 186.984375 190.992188 187.082031 192.578125 187.210938 194.171875 C 187.261719 194.832031 187.316406 195.496094 187.402344 196.152344 C 187.464844 196.644531 187.527344 197.136719 187.589844 197.625 C 187.574219 197.519531 187.601562 197.699219 187.625 197.863281 C 187.664062 198.125 187.699219 198.386719 187.738281 198.648438 C 188.164062 201.59375 188.796875 204.578125 189.660156 207.421875 C 190.585938 210.46875 191.648438 213.441406 192.878906 216.375 C 192.917969 216.464844 192.957031 216.558594 192.996094 216.648438 C 192.90625 216.4375 192.988281 216.625 193.003906 216.65625 C 193.101562 216.875 193.199219 217.085938 193.296875 217.304688 C 193.429688 217.59375 193.558594 217.886719 193.695312 218.175781 C 194.058594 218.929688 194.421875 219.679688 194.808594 220.425781 C 195.488281 221.746094 196.207031 223.050781 196.972656 224.320312 C 200.234375 229.738281 203.824219 234.367188 208.390625 238.847656 C 212.933594 243.300781 217.625 246.820312 223.167969 249.949219 C 224.457031 250.679688 225.765625 251.355469 227.089844 252.019531 C 227.835938 252.394531 228.59375 252.734375 229.359375 253.074219 C 229.691406 253.21875 230.023438 253.367188 230.355469 253.511719 C 230.546875 253.597656 230.738281 253.679688 230.933594 253.765625 C 230.839844 253.722656 231.007812 253.792969 231.160156 253.855469 C 234.121094 255.035156 237.117188 256.003906 240.183594 256.878906 C 241.640625 257.292969 243.136719 257.570312 244.621094 257.886719 C 245.34375 258.042969 246.078125 258.148438 246.8125 258.269531 C 247.25 258.34375 247.6875 258.414062 248.125 258.484375 C 248.292969 258.511719 248.464844 258.539062 248.359375 258.527344 C 248.570312 258.554688 248.777344 258.582031 248.988281 258.609375 C 251.898438 258.984375 254.820312 259.144531 257.753906 259.203125 C 257.753906 258.757812 257.753906 258.3125 257.753906 257.867188 C 257.753906 256.960938 257.753906 256.050781 257.753906 255.144531 C 256.09375 255.109375 254.441406 255.050781 252.785156 254.914062 C 247.03125 254.441406 241.390625 253.214844 235.933594 251.328125 C 230.597656 249.480469 225.433594 246.902344 220.765625 243.714844 C 216.082031 240.519531 211.554688 236.796875 207.878906 232.453125 C 204.152344 228.042969 200.8125 223.382812 198.226562 218.203125 C 196.933594 215.609375 195.832031 212.964844 194.832031 210.246094 C 193.886719 207.667969 193.0625 204.960938 192.527344 202.265625 C 191.367188 196.449219 190.828125 190.648438 191.023438 184.71875 C 191.214844 179.039062 192.265625 173.300781 193.941406 167.882812 C 195.644531 162.378906 198.050781 157.128906 201.0625 152.222656 C 204.011719 147.417969 207.613281 142.96875 211.683594 139.074219 C 215.808594 135.117188 220.484375 131.554688 225.519531 128.84375 C 230.523438 126.152344 235.753906 123.914062 241.269531 122.507812 C 246.679688 121.128906 252.179688 120.464844 257.75 120.339844 C 257.75 118.984375 257.75 117.632812 257.75 116.277344 C 256.808594 116.289062 255.859375 116.289062 254.917969 116.351562 Z M 254.917969 116.351562 " fill-opacity="1" fill-rule="nonzero"/></g><path fill="#bd7877" d="M 245.617188 177.824219 C 245.726562 177.6875 245.644531 177.789062 245.621094 177.820312 C 245.617188 177.820312 245.617188 177.820312 245.617188 177.824219 Z M 245.617188 177.824219 " fill-opacity="1" fill-rule="nonzero"/><path fill="#bd7877" d="M 248.445312 163.503906 C 248.640625 163.433594 248.53125 163.464844 248.488281 163.484375 C 248.472656 163.492188 248.457031 163.496094 248.445312 163.503906 Z M 248.445312 163.503906 " fill-opacity="1" fill-rule="nonzero"/><path fill="#bd7877" d="M 256.441406 166.71875 C 256.152344 166.746094 255.863281 166.769531 255.578125 166.796875 C 255.558594 166.796875 255.546875 166.800781 255.535156 166.800781 C 255.484375 166.808594 255.429688 166.816406 255.375 166.824219 C 255.183594 166.851562 254.992188 166.878906 254.800781 166.910156 C 253.933594 167.035156 253.074219 167.277344 252.226562 167.507812 C 251.859375 167.609375 251.492188 167.730469 251.136719 167.863281 C 250.878906 167.960938 250.621094 168.058594 250.363281 168.15625 C 250.332031 168.171875 250.296875 168.1875 250.261719 168.199219 C 250.125 168.265625 249.984375 168.328125 249.847656 168.390625 C 249.050781 168.75 248.289062 169.136719 247.53125 169.570312 C 247.140625 169.789062 246.757812 170.023438 246.394531 170.28125 C 246.183594 170.433594 245.96875 170.585938 245.753906 170.742188 C 245.710938 170.773438 245.691406 170.785156 245.679688 170.792969 C 245.574219 170.875 245.46875 170.957031 245.359375 171.042969 C 244 172.105469 242.757812 173.304688 241.699219 174.671875 C 241.59375 174.8125 241.484375 174.953125 241.375 175.089844 C 241.359375 175.113281 241.34375 175.132812 241.328125 175.152344 C 241.328125 175.15625 241.324219 175.160156 241.316406 175.171875 C 241.160156 175.390625 241.003906 175.609375 240.847656 175.828125 C 240.617188 176.148438 240.398438 176.484375 240.203125 176.828125 C 239.761719 177.609375 239.335938 178.371094 238.976562 179.195312 C 238.871094 179.441406 238.761719 179.6875 238.65625 179.933594 C 238.761719 179.6875 238.628906 180.011719 238.609375 180.066406 C 238.554688 180.210938 238.5 180.355469 238.449219 180.496094 C 238.3125 180.855469 238.179688 181.21875 238.078125 181.589844 C 237.84375 182.453125 237.582031 183.332031 237.449219 184.21875 C 237.414062 184.480469 237.375 184.738281 237.335938 185 C 237.335938 185.011719 237.332031 185.023438 237.332031 185.03125 C 237.332031 185.039062 237.332031 185.050781 237.328125 185.070312 C 237.316406 185.210938 237.304688 185.351562 237.292969 185.488281 C 237.253906 185.933594 237.214844 186.378906 237.175781 186.828125 C 237.101562 187.707031 237.175781 188.632812 237.25 189.511719 C 237.269531 189.726562 237.289062 189.9375 237.304688 190.152344 C 237.316406 190.261719 237.324219 190.371094 237.335938 190.476562 C 237.3125 190.207031 237.347656 190.558594 237.355469 190.617188 C 237.425781 191.101562 237.515625 191.574219 237.613281 192.054688 C 237.789062 192.910156 238.03125 193.75 238.304688 194.582031 C 238.367188 194.761719 238.433594 194.941406 238.5 195.121094 C 238.550781 195.261719 238.605469 195.402344 238.65625 195.542969 C 238.671875 195.582031 238.679688 195.605469 238.683594 195.617188 C 238.875 196.050781 239.0625 196.484375 239.257812 196.917969 C 239.617188 197.722656 240.09375 198.503906 240.574219 199.242188 C 240.683594 199.414062 240.796875 199.582031 240.914062 199.75 C 241.003906 199.875 241.09375 200 241.183594 200.128906 C 241.214844 200.171875 241.421875 200.453125 241.265625 200.25 C 241.546875 200.617188 241.832031 200.984375 242.132812 201.339844 C 242.695312 202.003906 243.285156 202.664062 243.9375 203.242188 C 244.289062 203.554688 244.644531 203.859375 245.003906 204.164062 C 245.179688 204.3125 245.363281 204.445312 245.542969 204.585938 C 245.585938 204.621094 245.867188 204.824219 245.65625 204.675781 C 245.746094 204.738281 245.832031 204.800781 245.921875 204.867188 C 246.644531 205.382812 247.382812 205.863281 248.175781 206.273438 C 248.609375 206.5 249.050781 206.71875 249.492188 206.933594 C 249.679688 207.023438 249.867188 207.105469 250.054688 207.191406 C 250.15625 207.238281 250.257812 207.285156 250.359375 207.332031 C 250.402344 207.347656 250.449219 207.363281 250.492188 207.378906 C 251.308594 207.6875 252.132812 207.980469 252.984375 208.183594 C 253.453125 208.292969 253.917969 208.394531 254.390625 208.480469 C 254.589844 208.515625 254.785156 208.550781 254.984375 208.585938 C 255.136719 208.613281 255.289062 208.636719 255.441406 208.664062 C 255.480469 208.671875 255.519531 208.679688 255.558594 208.6875 C 256.289062 208.75 257.015625 208.796875 257.75 208.824219 C 257.75 207.472656 257.75 206.117188 257.75 204.761719 C 256.082031 204.675781 254.480469 204.4375 252.878906 203.921875 C 251.253906 203.398438 249.648438 202.59375 248.285156 201.566406 C 245.363281 199.371094 243.15625 196.449219 242.035156 192.949219 C 240.929688 189.503906 240.980469 185.828125 242.078125 182.394531 C 242.605469 180.753906 243.394531 179.167969 244.425781 177.789062 C 244.988281 177.039062 245.582031 176.332031 246.226562 175.652344 C 246.863281 174.984375 247.597656 174.4375 248.332031 173.882812 C 251.007812 171.871094 254.417969 170.804688 257.75 170.710938 C 257.75 169.355469 257.75 168 257.75 166.648438 C 257.3125 166.65625 256.882812 166.683594 256.441406 166.71875 Z M 256.441406 166.71875 " fill-opacity="1" fill-rule="nonzero"/><path fill="#171539" d="M 288.945312 157.265625 C 285.640625 158.75 282.613281 160.703125 279.925781 163.140625 C 278.648438 164.296875 277.429688 165.558594 276.367188 166.914062 C 275.769531 167.675781 275.214844 168.460938 274.667969 169.261719 C 274.203125 169.945312 273.707031 170.667969 273.328125 171.402344 C 272.484375 173.054688 271.679688 174.703125 271.050781 176.453125 C 270.46875 178.089844 269.960938 179.777344 269.675781 181.492188 C 269.390625 183.214844 269.09375 184.976562 269.09375 186.726562 C 269.09375 187.675781 269.078125 188.617188 269.148438 189.5625 C 269.210938 190.433594 269.285156 191.296875 269.386719 192.164062 C 269.601562 193.976562 270.042969 195.777344 270.5625 197.519531 C 271.0625 199.195312 271.726562 200.839844 272.523438 202.394531 C 273.324219 203.960938 274.171875 205.496094 275.207031 206.921875 C 276.300781 208.433594 277.488281 209.832031 278.785156 211.175781 C 281.199219 213.679688 284.175781 215.820312 287.296875 217.34375 C 288.90625 218.128906 290.535156 218.859375 292.253906 219.378906 C 294.015625 219.910156 295.785156 220.324219 297.609375 220.585938 C 299.148438 220.808594 300.683594 220.90625 302.238281 220.90625 C 305.824219 220.90625 309.339844 220.320312 312.746094 219.210938 C 316.167969 218.09375 319.332031 216.339844 322.222656 214.207031 C 323.675781 213.132812 324.988281 211.882812 326.265625 210.601562 C 326.855469 210.007812 327.417969 209.34375 327.9375 208.683594 C 328.492188 207.976562 329.070312 207.28125 329.5625 206.527344 C 330.53125 205.050781 331.425781 203.550781 332.179688 201.953125 C 332.980469 200.253906 333.613281 198.523438 334.152344 196.726562 C 335.152344 193.390625 335.539062 189.761719 335.367188 186.285156 C 335.191406 182.640625 334.453125 179.070312 333.144531 175.664062 C 331.886719 172.386719 330.089844 169.25 327.828125 166.566406 C 325.480469 163.769531 322.734375 161.371094 319.648438 159.421875 C 318.167969 158.492188 316.59375 157.703125 314.980469 157.039062 C 313.367188 156.375 311.703125 155.773438 309.996094 155.398438 C 306.429688 154.613281 302.824219 154.28125 299.179688 154.628906 C 295.664062 154.960938 292.175781 155.816406 288.945312 157.265625 Z M 288.945312 157.265625 " fill-opacity="1" fill-rule="nonzero"/><path fill="#171539" d="M 60.292969 157.265625 C 56.988281 158.75 53.960938 160.703125 51.273438 163.140625 C 49.996094 164.296875 48.78125 165.558594 47.714844 166.914062 C 47.117188 167.675781 46.5625 168.460938 46.015625 169.261719 C 45.550781 169.945312 45.054688 170.667969 44.675781 171.402344 C 43.832031 173.054688 43.023438 174.703125 42.398438 176.453125 C 41.816406 178.089844 41.308594 179.777344 41.023438 181.492188 C 40.738281 183.214844 40.441406 184.976562 40.441406 186.726562 C 40.441406 187.675781 40.429688 188.617188 40.496094 189.5625 C 40.558594 190.433594 40.628906 191.296875 40.734375 192.164062 C 40.949219 193.976562 41.390625 195.777344 41.910156 197.519531 C 42.410156 199.195312 43.074219 200.839844 43.871094 202.394531 C 44.667969 203.960938 45.519531 205.496094 46.554688 206.921875 C 47.648438 208.433594 48.835938 209.832031 50.132812 211.175781 C 52.546875 213.679688 55.523438 215.820312 58.648438 217.34375 C 60.253906 218.128906 61.882812 218.859375 63.597656 219.378906 C 65.363281 219.910156 67.128906 220.324219 68.957031 220.585938 C 70.496094 220.808594 72.03125 220.90625 73.585938 220.90625 C 77.167969 220.90625 80.6875 220.320312 84.09375 219.210938 C 87.515625 218.09375 90.679688 216.339844 93.566406 214.207031 C 95.023438 213.132812 96.335938 211.882812 97.613281 210.601562 C 98.203125 210.007812 98.765625 209.34375 99.285156 208.683594 C 99.839844 207.976562 100.417969 207.28125 100.910156 206.527344 C 101.878906 205.050781 102.773438 203.550781 103.527344 201.953125 C 104.328125 200.253906 104.960938 198.523438 105.5 196.726562 C 106.5 193.390625 106.882812 189.761719 106.714844 186.285156 C 106.539062 182.640625 105.796875 179.070312 104.492188 175.664062 C 103.234375 172.386719 101.4375 169.25 99.175781 166.566406 C 96.828125 163.769531 94.082031 161.371094 90.996094 159.421875 C 89.515625 158.492188 87.941406 157.703125 86.328125 157.039062 C 84.714844 156.375 83.050781 155.773438 81.34375 155.398438 C 77.777344 154.613281 74.171875 154.28125 70.527344 154.628906 C 67.011719 154.960938 63.523438 155.816406 60.292969 157.265625 Z M 60.292969 157.265625 " fill-opacity="1" fill-rule="nonzero"/><path fill="#bd7877" d="M 135.910156 234.773438 C 135.964844 234.746094 135.976562 234.742188 135.910156 234.773438 Z M 135.910156 234.773438 " fill-opacity="1" fill-rule="nonzero"/><path fill="#bd7877" d="M 117.085938 238.90625 C 118.140625 238.890625 119.203125 238.839844 120.25 238.742188 C 120.597656 238.707031 120.941406 238.675781 121.285156 238.640625 C 121.011719 238.667969 121.378906 238.628906 121.4375 238.621094 C 121.625 238.597656 121.8125 238.570312 122 238.546875 C 122.578125 238.46875 123.152344 238.378906 123.730469 238.289062 C 125.894531 237.957031 128.023438 237.464844 130.125 236.847656 C 131.21875 236.523438 132.296875 236.160156 133.375 235.785156 C 133.847656 235.621094 134.324219 235.4375 134.785156 235.246094 C 135.125 235.101562 135.464844 234.960938 135.808594 234.816406 C 135.851562 234.800781 135.886719 234.785156 135.910156 234.773438 C 136.035156 234.714844 136.160156 234.660156 136.285156 234.601562 C 138.292969 233.675781 140.3125 232.742188 142.179688 231.550781 C 143.15625 230.925781 144.125 230.296875 145.082031 229.644531 C 145.570312 229.3125 146.042969 228.964844 146.519531 228.609375 C 146.574219 228.570312 146.632812 228.527344 146.691406 228.484375 C 146.792969 228.402344 146.894531 228.320312 146.996094 228.238281 C 147.238281 228.042969 147.480469 227.84375 147.722656 227.652344 C 149.5 226.21875 151.15625 224.683594 152.746094 223.046875 C 153.46875 222.300781 154.167969 221.519531 154.832031 220.71875 C 155.074219 220.421875 155.320312 220.128906 155.5625 219.832031 C 155.597656 219.789062 155.617188 219.769531 155.625 219.761719 C 155.71875 219.636719 155.8125 219.511719 155.90625 219.386719 C 156.269531 218.910156 156.632812 218.429688 156.996094 217.953125 C 158.308594 216.226562 159.4375 214.363281 160.5 212.472656 C 161.082031 211.4375 161.609375 210.378906 162.105469 209.296875 C 162.328125 208.8125 162.546875 208.328125 162.769531 207.84375 C 162.660156 208.085938 162.835938 207.679688 162.863281 207.621094 C 162.933594 207.441406 163.007812 207.265625 163.082031 207.085938 C 163.15625 206.90625 163.234375 206.726562 163.300781 206.546875 C 164.121094 204.386719 164.796875 202.214844 165.402344 199.992188 C 165.683594 198.96875 165.859375 197.921875 166.0625 196.882812 C 166.175781 196.300781 166.277344 195.726562 166.355469 195.136719 C 166.382812 194.953125 166.40625 194.769531 166.429688 194.585938 C 166.433594 194.582031 166.4375 194.558594 166.445312 194.488281 C 166.492188 194.128906 166.539062 193.769531 166.585938 193.410156 C 166.871094 191.242188 166.90625 189.039062 166.90625 186.855469 C 166.90625 185.714844 166.8125 184.574219 166.75 183.4375 C 166.734375 183.179688 166.699219 182.917969 166.675781 182.660156 C 166.660156 182.488281 166.644531 182.320312 166.625 182.148438 C 166.621094 182.082031 166.617188 182.054688 166.617188 182.050781 C 166.542969 181.5 166.472656 180.949219 166.398438 180.402344 C 166.097656 178.1875 165.628906 176 165.027344 173.851562 C 164.40625 171.632812 163.625 169.488281 162.757812 167.355469 C 162.738281 167.308594 162.714844 167.257812 162.691406 167.207031 C 162.613281 167.039062 162.539062 166.871094 162.460938 166.707031 C 162.367188 166.496094 162.269531 166.289062 162.175781 166.078125 C 161.945312 165.582031 161.730469 165.074219 161.476562 164.589844 C 160.929688 163.535156 160.359375 162.496094 159.761719 161.464844 C 158.675781 159.574219 157.40625 157.808594 156.089844 156.074219 C 155.957031 155.902344 155.824219 155.730469 155.695312 155.558594 C 155.660156 155.511719 155.632812 155.480469 155.617188 155.457031 C 155.402344 155.207031 155.191406 154.957031 154.980469 154.707031 C 154.617188 154.277344 154.253906 153.851562 153.890625 153.421875 C 153.226562 152.640625 152.484375 151.921875 151.761719 151.195312 C 150.925781 150.355469 150.066406 149.550781 149.164062 148.78125 C 148.722656 148.40625 148.277344 148.035156 147.835938 147.664062 C 147.660156 147.519531 147.480469 147.382812 147.300781 147.242188 C 147.152344 147.128906 147.003906 147.011719 146.855469 146.894531 C 146.832031 146.875 146.722656 146.792969 146.679688 146.757812 C 144.855469 145.367188 142.9375 144.144531 140.960938 142.980469 C 140.082031 142.460938 139.160156 141.988281 138.238281 141.546875 C 137.710938 141.289062 137.179688 141.035156 136.644531 140.789062 C 136.449219 140.699219 136.25 140.609375 136.054688 140.519531 C 135.917969 140.453125 135.847656 140.421875 135.957031 140.46875 C 135.652344 140.34375 135.347656 140.214844 135.042969 140.089844 C 133.050781 139.253906 130.957031 138.5625 128.867188 138.027344 C 127.730469 137.738281 126.585938 137.476562 125.4375 137.234375 C 124.9375 137.125 124.429688 137.042969 123.925781 136.964844 C 123.617188 136.917969 123.304688 136.871094 122.992188 136.820312 C 122.875 136.804688 122.757812 136.785156 122.636719 136.765625 C 122.644531 136.769531 122.582031 136.757812 122.476562 136.746094 C 120.375 136.503906 118.285156 136.355469 116.175781 136.304688 C 116.175781 137.652344 116.175781 139.007812 116.175781 140.359375 C 116.625 140.367188 117.074219 140.375 117.527344 140.394531 C 121.578125 140.558594 125.648438 141.21875 129.519531 142.429688 C 133.382812 143.644531 137.203125 145.292969 140.617188 147.492188 C 142.339844 148.601562 143.992188 149.769531 145.578125 151.074219 C 147.152344 152.367188 148.621094 153.753906 150.039062 155.214844 C 152.886719 158.152344 155.261719 161.597656 157.207031 165.183594 C 159.15625 168.777344 160.574219 172.621094 161.542969 176.589844 C 162.511719 180.554688 162.917969 184.625 162.839844 188.703125 C 162.757812 192.808594 162.050781 196.800781 161 200.761719 C 159.964844 204.675781 158.179688 208.417969 156.15625 211.90625 C 154.101562 215.445312 151.464844 218.539062 148.628906 221.464844 C 147.265625 222.871094 145.6875 224.144531 144.125 225.320312 C 142.460938 226.574219 140.726562 227.710938 138.917969 228.742188 C 135.390625 230.753906 131.613281 232.246094 127.703125 233.3125 C 123.929688 234.335938 120.070312 234.761719 116.175781 234.863281 C 116.175781 236.21875 116.175781 237.570312 116.175781 238.925781 C 116.476562 238.917969 116.78125 238.914062 117.085938 238.90625 Z M 117.085938 238.90625 " fill-opacity="1" fill-rule="nonzero"/><path fill="#bd7877" d="M 155.617188 155.457031 C 155.585938 155.421875 155.582031 155.417969 155.617188 155.457031 Z M 155.617188 155.457031 " fill-opacity="1" fill-rule="nonzero"/><path fill="#bd7877" d="M 118.253906 156.554688 C 117.5625 156.488281 116.867188 156.46875 116.175781 156.449219 C 116.175781 157.804688 116.175781 159.160156 116.175781 160.515625 C 117.703125 160.574219 119.203125 160.726562 120.71875 160.96875 C 122.3125 161.21875 123.875 161.753906 125.386719 162.300781 C 128.78125 163.527344 131.824219 165.609375 134.449219 168.054688 C 135.730469 169.246094 136.871094 170.625 137.859375 172.0625 C 138.867188 173.53125 139.792969 175.082031 140.480469 176.730469 C 141.160156 178.371094 141.75 180.019531 142.113281 181.761719 C 142.488281 183.570312 142.714844 185.378906 142.761719 187.226562 C 142.855469 190.796875 142.105469 194.386719 140.820312 197.703125 C 139.554688 200.964844 137.535156 204.078125 135.066406 206.550781 C 132.484375 209.140625 129.515625 211.171875 126.15625 212.621094 C 124.480469 213.339844 122.734375 213.832031 120.957031 214.214844 C 119.382812 214.558594 117.78125 214.664062 116.175781 214.714844 C 116.175781 216.066406 116.175781 217.417969 116.175781 218.773438 C 117.390625 218.738281 118.605469 218.675781 119.816406 218.527344 C 119.878906 218.519531 120.25 218.460938 119.972656 218.507812 C 120.066406 218.492188 120.160156 218.476562 120.25 218.460938 C 120.511719 218.417969 120.769531 218.375 121.03125 218.328125 C 121.410156 218.261719 121.796875 218.1875 122.171875 218.105469 C 123.046875 217.90625 123.90625 217.6875 124.765625 217.429688 C 125.640625 217.164062 126.496094 216.863281 127.351562 216.53125 C 127.355469 216.53125 127.355469 216.53125 127.359375 216.527344 C 127.386719 216.515625 127.410156 216.507812 127.4375 216.492188 C 127.566406 216.4375 127.699219 216.375 127.832031 216.316406 C 127.996094 216.242188 128.164062 216.167969 128.328125 216.09375 C 128.722656 215.917969 129.121094 215.75 129.503906 215.554688 C 131.082031 214.742188 132.59375 213.851562 134.019531 212.796875 C 134.242188 212.632812 134.460938 212.472656 134.683594 212.308594 C 134.757812 212.253906 134.835938 212.195312 134.910156 212.140625 C 134.703125 212.292969 134.941406 212.109375 134.988281 212.074219 C 135.347656 211.78125 135.703125 211.488281 136.050781 211.183594 C 136.746094 210.578125 137.40625 209.960938 138.042969 209.296875 C 138.601562 208.71875 139.132812 208.117188 139.652344 207.503906 C 139.84375 207.277344 140.035156 207.050781 140.226562 206.824219 C 140.230469 206.816406 140.234375 206.8125 140.238281 206.808594 C 140.242188 206.804688 140.246094 206.796875 140.253906 206.789062 C 140.335938 206.675781 140.417969 206.566406 140.5 206.453125 C 140.777344 206.074219 141.042969 205.6875 141.304688 205.296875 C 142.265625 203.875 143.125 202.40625 143.855469 200.851562 C 143.933594 200.695312 144.003906 200.539062 144.078125 200.382812 C 144.140625 200.25 144.152344 200.226562 144.109375 200.332031 C 144.210938 200.089844 144.3125 199.847656 144.414062 199.605469 C 144.585938 199.195312 144.742188 198.777344 144.902344 198.359375 C 145.183594 197.625 145.460938 196.835938 145.652344 196.074219 C 145.878906 195.160156 146.109375 194.25 146.289062 193.328125 C 146.375 192.882812 146.4375 192.433594 146.5 191.984375 C 146.503906 191.96875 146.503906 191.957031 146.507812 191.945312 C 146.507812 191.9375 146.511719 191.925781 146.511719 191.90625 C 146.527344 191.773438 146.546875 191.636719 146.5625 191.503906 C 146.585938 191.304688 146.613281 191.109375 146.632812 190.910156 C 146.808594 189.105469 146.832031 187.320312 146.742188 185.507812 C 146.722656 185.105469 146.679688 184.703125 146.632812 184.308594 C 146.601562 184.0625 146.570312 183.816406 146.542969 183.570312 C 146.53125 183.476562 146.519531 183.386719 146.507812 183.296875 C 146.507812 183.277344 146.5 183.242188 146.492188 183.1875 C 146.359375 182.261719 146.191406 181.347656 145.964844 180.4375 C 145.550781 178.773438 145.050781 177.136719 144.386719 175.554688 C 144.320312 175.390625 144.25 175.230469 144.183594 175.070312 C 144.160156 175.015625 144.03125 174.742188 144.144531 174.980469 C 144.035156 174.753906 143.933594 174.527344 143.824219 174.300781 C 143.628906 173.890625 143.417969 173.484375 143.210938 173.082031 C 142.851562 172.375 142.449219 171.667969 142.015625 171.007812 C 141.507812 170.234375 141.007812 169.460938 140.449219 168.722656 C 140.378906 168.628906 140.308594 168.539062 140.242188 168.445312 C 140.261719 168.472656 140.230469 168.433594 140.164062 168.347656 C 139.980469 168.125 139.796875 167.902344 139.613281 167.679688 C 139.363281 167.371094 139.101562 167.0625 138.832031 166.769531 C 138.25 166.144531 137.679688 165.5 137.046875 164.925781 C 136.359375 164.304688 135.660156 163.695312 134.9375 163.109375 C 134.914062 163.089844 134.890625 163.070312 134.863281 163.046875 C 134.761719 162.972656 134.660156 162.898438 134.558594 162.824219 C 134.378906 162.691406 134.199219 162.550781 134.011719 162.421875 C 133.679688 162.1875 133.355469 161.941406 133.015625 161.71875 C 132.222656 161.207031 131.429688 160.707031 130.605469 160.25 C 130.207031 160.027344 129.804688 159.824219 129.402344 159.617188 C 129.242188 159.535156 129.078125 159.464844 128.914062 159.390625 C 128.777344 159.332031 128.640625 159.269531 128.5 159.207031 C 128.460938 159.1875 128.265625 159.105469 128.324219 159.128906 C 127.542969 158.800781 126.761719 158.480469 125.964844 158.195312 C 124.351562 157.613281 122.652344 157.136719 120.953125 156.886719 C 120.660156 156.84375 120.367188 156.800781 120.070312 156.757812 C 120.058594 156.753906 120.046875 156.753906 120.035156 156.75 C 119.914062 156.734375 119.792969 156.722656 119.667969 156.707031 C 119.195312 156.648438 118.726562 156.601562 118.253906 156.554688 Z M 118.253906 156.554688 " fill-opacity="1" fill-rule="nonzero"/><path fill="#bd7877" d="M 167.652344 166.03125 C 167.722656 166.199219 167.671875 166.070312 167.652344 166.03125 Z M 167.652344 166.03125 " fill-opacity="1" fill-rule="nonzero"/><path fill="#bd7877" d="M 121.839844 126.535156 C 121.171875 126.476562 120.503906 126.417969 119.835938 126.371094 C 118.617188 126.285156 117.398438 126.25 116.175781 126.226562 C 116.175781 127.578125 116.175781 128.929688 116.175781 130.285156 C 116.332031 130.285156 116.492188 130.289062 116.652344 130.292969 C 121.617188 130.382812 126.554688 131.136719 131.335938 132.46875 C 136.082031 133.792969 140.730469 135.796875 144.949219 138.351562 C 149.195312 140.921875 153.128906 143.964844 156.59375 147.527344 C 160.074219 151.109375 162.992188 155.089844 165.5 159.40625 C 167.964844 163.648438 169.921875 168.402344 171.070312 173.175781 C 171.65625 175.609375 172.152344 178.035156 172.464844 180.519531 C 172.777344 182.992188 172.902344 185.449219 172.902344 187.9375 C 172.902344 192.890625 172.234375 197.90625 170.910156 202.679688 C 169.578125 207.480469 167.664062 212.101562 165.160156 216.40625 C 162.664062 220.695312 159.644531 224.738281 156.089844 228.214844 C 152.539062 231.683594 148.628906 234.875 144.273438 237.28125 C 139.898438 239.703125 135.351562 241.730469 130.5 242.992188 C 125.785156 244.214844 121.035156 244.820312 116.175781 244.9375 C 116.175781 246.292969 116.175781 247.644531 116.175781 248.996094 C 118.523438 248.945312 120.851562 248.792969 123.191406 248.546875 C 123.277344 248.539062 123.308594 248.535156 123.316406 248.535156 C 123.324219 248.535156 123.332031 248.535156 123.339844 248.53125 C 123.542969 248.503906 123.742188 248.476562 123.945312 248.449219 C 124.226562 248.410156 124.507812 248.375 124.789062 248.332031 C 125.375 248.238281 125.96875 248.15625 126.550781 248.042969 C 127.828125 247.796875 129.09375 247.539062 130.351562 247.222656 C 132.980469 246.5625 135.546875 245.738281 138.070312 244.753906 C 138.382812 244.632812 138.691406 244.511719 139 244.390625 C 139.167969 244.324219 139.335938 244.257812 139.507812 244.191406 C 139.398438 244.234375 139.53125 244.179688 139.675781 244.113281 C 140.355469 243.804688 141.035156 243.496094 141.710938 243.191406 C 142.878906 242.660156 144.023438 242.074219 145.140625 241.445312 C 150.132812 238.640625 154.226562 235.609375 158.339844 231.683594 C 159.269531 230.796875 160.15625 229.863281 161.015625 228.910156 C 161.515625 228.359375 162.003906 227.796875 162.492188 227.230469 C 162.675781 227.015625 162.859375 226.800781 163.042969 226.582031 C 163.1875 226.40625 163.332031 226.234375 163.480469 226.058594 C 163.527344 226.003906 163.570312 225.949219 163.617188 225.894531 C 163.625 225.886719 163.628906 225.882812 163.632812 225.878906 C 165.257812 223.734375 166.871094 221.5625 168.21875 219.230469 C 169.609375 216.832031 170.894531 214.386719 171.992188 211.839844 C 172.023438 211.773438 172.230469 211.277344 172.136719 211.511719 C 172.195312 211.367188 172.253906 211.222656 172.3125 211.082031 C 172.445312 210.75 172.589844 210.421875 172.714844 210.085938 C 172.933594 209.492188 173.152344 208.898438 173.371094 208.304688 C 173.863281 206.972656 174.257812 205.613281 174.679688 204.257812 C 175.445312 201.773438 175.964844 199.109375 176.328125 196.53125 C 176.386719 196.097656 176.449219 195.664062 176.507812 195.234375 C 176.492188 195.351562 176.507812 195.210938 176.523438 195.050781 C 176.546875 194.820312 176.570312 194.589844 176.59375 194.363281 C 176.667969 193.675781 176.726562 192.984375 176.785156 192.296875 C 176.902344 190.976562 176.941406 189.652344 176.964844 188.324219 C 177.011719 185.570312 176.796875 182.828125 176.515625 180.085938 C 176.507812 179.996094 176.503906 179.96875 176.503906 179.964844 C 176.5 179.945312 176.496094 179.914062 176.488281 179.867188 C 176.460938 179.652344 176.429688 179.4375 176.398438 179.222656 C 176.363281 178.953125 176.328125 178.683594 176.285156 178.417969 C 176.160156 177.714844 176.039062 177.007812 175.902344 176.300781 C 175.652344 175.007812 175.410156 173.699219 175.066406 172.425781 C 174.367188 169.808594 173.554688 167.210938 172.535156 164.699219 C 172.433594 164.449219 172.332031 164.199219 172.230469 163.949219 C 172.171875 163.804688 172.113281 163.671875 172.160156 163.777344 C 171.996094 163.398438 171.835938 163.023438 171.671875 162.648438 C 171.433594 162.09375 171.160156 161.554688 170.898438 161.011719 C 170.285156 159.726562 169.632812 158.476562 168.933594 157.238281 C 167.601562 154.886719 166.085938 152.695312 164.507812 150.503906 C 164.652344 150.703125 164.335938 150.28125 164.289062 150.222656 C 164.148438 150.042969 164.007812 149.859375 163.863281 149.675781 C 163.714844 149.484375 163.566406 149.296875 163.414062 149.109375 C 162.933594 148.527344 162.453125 147.953125 161.960938 147.378906 C 161.128906 146.414062 160.265625 145.472656 159.367188 144.566406 C 157.414062 142.605469 155.355469 140.796875 153.195312 139.066406 C 153.023438 138.929688 152.851562 138.792969 152.683594 138.65625 C 152.769531 138.726562 152.65625 138.636719 152.53125 138.546875 C 152.199219 138.304688 151.867188 138.066406 151.535156 137.824219 C 151.0625 137.480469 150.585938 137.136719 150.097656 136.816406 C 148.878906 136.019531 147.652344 135.242188 146.402344 134.488281 C 145.296875 133.828125 144.148438 133.230469 142.992188 132.652344 C 142.335938 132.320312 141.671875 132.015625 141 131.710938 C 140.734375 131.589844 140.460938 131.472656 140.191406 131.355469 C 139.992188 131.269531 139.792969 131.183594 139.59375 131.097656 C 139.546875 131.074219 139.515625 131.0625 139.5 131.054688 C 139.488281 131.050781 139.476562 131.046875 139.453125 131.035156 C 136.921875 130.003906 134.367188 129.074219 131.726562 128.363281 C 129.050781 127.644531 126.339844 127.109375 123.597656 126.730469 C 123.515625 126.71875 123.429688 126.707031 123.34375 126.695312 C 123.339844 126.691406 123.332031 126.691406 123.316406 126.691406 C 123.140625 126.671875 122.964844 126.652344 122.785156 126.632812 C 122.472656 126.601562 122.15625 126.5625 121.839844 126.535156 Z M 121.839844 126.535156 " fill-opacity="1" fill-rule="nonzero"/><path fill="#bd7877" d="M 134.867188 163.050781 C 134.867188 163.050781 134.867188 163.050781 134.863281 163.050781 C 134.972656 163.140625 134.898438 163.078125 134.867188 163.050781 Z M 134.867188 163.050781 " fill-opacity="1" fill-rule="nonzero"/><path fill="#bd7877" d="M 151.527344 192.339844 C 151.527344 192.351562 151.527344 192.367188 151.523438 192.386719 C 151.527344 192.371094 151.527344 192.355469 151.527344 192.339844 Z M 151.527344 192.339844 " fill-opacity="1" fill-rule="nonzero"/><path fill="#bd7877" d="M 118.21875 228.78125 C 118.640625 228.753906 119.066406 228.742188 119.488281 228.699219 C 119.753906 228.667969 120.019531 228.640625 120.285156 228.613281 C 120.40625 228.601562 120.527344 228.585938 120.648438 228.574219 C 120.65625 228.574219 120.660156 228.574219 120.664062 228.574219 C 122.308594 228.328125 123.992188 228.09375 125.605469 227.664062 C 127.367188 227.191406 129.097656 226.636719 130.800781 225.976562 C 130.96875 225.914062 131.132812 225.847656 131.300781 225.78125 C 131.355469 225.761719 131.632812 225.648438 131.390625 225.753906 C 131.617188 225.652344 131.851562 225.550781 132.082031 225.453125 C 132.515625 225.261719 132.945312 225.066406 133.375 224.863281 C 134.207031 224.476562 135.011719 224.042969 135.8125 223.59375 C 137.335938 222.734375 138.796875 221.777344 140.207031 220.738281 C 140.460938 220.550781 140.710938 220.363281 140.964844 220.175781 C 141.007812 220.144531 141.242188 219.960938 141.042969 220.125 C 141.113281 220.066406 141.183594 220.007812 141.253906 219.949219 C 141.621094 219.652344 141.984375 219.355469 142.34375 219.046875 C 143.0625 218.429688 143.761719 217.789062 144.445312 217.125 C 145.75 215.855469 146.957031 214.507812 148.082031 213.074219 C 148.105469 213.042969 148.148438 212.984375 148.183594 212.941406 C 148.277344 212.820312 148.371094 212.695312 148.464844 212.574219 C 148.585938 212.414062 148.710938 212.257812 148.828125 212.09375 C 149.074219 211.742188 149.332031 211.398438 149.570312 211.039062 C 150.074219 210.292969 150.574219 209.546875 151.03125 208.769531 C 151.984375 207.136719 152.84375 205.464844 153.59375 203.726562 C 153.640625 203.625 153.683594 203.523438 153.726562 203.417969 C 153.722656 203.429688 153.738281 203.394531 153.773438 203.304688 C 153.878906 203.027344 153.984375 202.75 154.09375 202.472656 C 154.257812 202.050781 154.40625 201.621094 154.558594 201.195312 C 154.855469 200.378906 155.117188 199.542969 155.335938 198.703125 C 155.792969 196.957031 156.1875 195.210938 156.453125 193.425781 C 156.492188 193.15625 156.53125 192.886719 156.570312 192.617188 C 156.574219 192.605469 156.578125 192.566406 156.585938 192.5 C 156.601562 192.355469 156.617188 192.210938 156.632812 192.066406 C 156.679688 191.59375 156.71875 191.125 156.75 190.648438 C 156.808594 189.730469 156.835938 188.8125 156.855469 187.890625 C 156.875 186.980469 156.824219 186.074219 156.785156 185.164062 C 156.765625 184.726562 156.730469 184.289062 156.703125 183.855469 C 156.691406 183.648438 156.660156 183.445312 156.640625 183.242188 C 156.625 183.089844 156.609375 182.9375 156.589844 182.785156 C 156.585938 182.734375 156.554688 182.5 156.574219 182.625 C 156.308594 180.847656 156.011719 179.078125 155.550781 177.34375 C 155.0625 175.515625 154.476562 173.742188 153.796875 171.976562 C 153.753906 171.867188 153.683594 171.703125 153.757812 171.871094 C 153.714844 171.769531 153.671875 171.667969 153.628906 171.570312 C 153.511719 171.304688 153.398438 171.042969 153.285156 170.777344 C 153.117188 170.382812 152.917969 170 152.734375 169.609375 C 152.371094 168.847656 151.976562 168.074219 151.550781 167.34375 C 150.621094 165.75 149.632812 164.1875 148.515625 162.71875 C 148.40625 162.574219 148.292969 162.429688 148.183594 162.285156 C 148.152344 162.242188 147.960938 162.003906 148.125 162.207031 C 147.976562 162.019531 147.824219 161.828125 147.671875 161.640625 C 147.375 161.273438 147.074219 160.917969 146.765625 160.5625 C 146.164062 159.859375 145.523438 159.195312 144.882812 158.527344 C 144.277344 157.902344 143.636719 157.289062 142.976562 156.722656 C 142.652344 156.441406 142.332031 156.152344 142 155.878906 C 141.769531 155.695312 141.539062 155.507812 141.3125 155.320312 C 141.238281 155.261719 141.167969 155.203125 141.097656 155.144531 C 141.082031 155.132812 141.054688 155.113281 141.015625 155.085938 C 139.496094 153.960938 137.96875 152.894531 136.339844 151.941406 C 134.773438 151.019531 133.140625 150.234375 131.472656 149.511719 C 131.507812 149.527344 131.390625 149.476562 131.304688 149.445312 C 131.160156 149.390625 131.019531 149.335938 130.878906 149.28125 C 130.695312 149.207031 130.511719 149.132812 130.324219 149.066406 C 129.917969 148.917969 129.515625 148.761719 129.105469 148.625 C 128.238281 148.332031 127.367188 148.0625 126.480469 147.824219 C 125.59375 147.589844 124.707031 147.363281 123.808594 147.1875 C 123.34375 147.09375 122.878906 147.007812 122.414062 146.929688 C 122.253906 146.902344 122.089844 146.875 121.929688 146.847656 C 121.894531 146.839844 121.875 146.835938 121.863281 146.835938 C 121.59375 146.800781 121.328125 146.765625 121.058594 146.730469 C 119.433594 146.523438 117.808594 146.425781 116.175781 146.378906 C 116.175781 147.734375 116.175781 149.085938 116.175781 150.4375 C 117.679688 150.480469 119.175781 150.574219 120.671875 150.773438 C 122.457031 151.011719 124.21875 151.390625 125.953125 151.875 C 129.324219 152.820312 132.566406 154.316406 135.519531 156.1875 C 137.105469 157.195312 138.597656 158.320312 140.023438 159.542969 C 141.292969 160.632812 142.554688 161.816406 143.625 163.109375 C 144.777344 164.507812 145.917969 165.917969 146.886719 167.453125 C 147.84375 168.972656 148.703125 170.546875 149.460938 172.179688 C 150.953125 175.410156 151.871094 178.824219 152.425781 182.335938 C 152.96875 185.738281 152.988281 189.351562 152.449219 192.757812 C 152.164062 194.558594 151.828125 196.335938 151.300781 198.085938 C 150.796875 199.757812 150.214844 201.410156 149.484375 203 C 147.972656 206.261719 146.054688 209.253906 143.730469 211.996094 C 141.464844 214.664062 138.734375 217.003906 135.785156 218.871094 C 132.828125 220.746094 129.621094 222.324219 126.238281 223.269531 C 124.445312 223.773438 122.652344 224.191406 120.804688 224.4375 C 119.261719 224.644531 117.726562 224.742188 116.175781 224.789062 C 116.175781 226.144531 116.175781 227.496094 116.175781 228.851562 C 116.855469 228.839844 117.539062 228.824219 118.21875 228.78125 Z M 118.21875 228.78125 " fill-opacity="1" fill-rule="nonzero"/><path fill="#bd7877" d="M 116.890625 198.574219 C 117.074219 198.554688 117.257812 198.53125 117.441406 198.507812 C 117.484375 198.5 117.527344 198.496094 117.570312 198.492188 C 117.578125 198.488281 117.582031 198.488281 117.59375 198.484375 C 117.703125 198.464844 117.8125 198.441406 117.921875 198.421875 C 118.65625 198.273438 119.363281 198.007812 120.0625 197.746094 C 120.074219 197.742188 120.082031 197.734375 120.09375 197.730469 C 120.15625 197.703125 120.21875 197.671875 120.28125 197.640625 C 120.390625 197.589844 120.5 197.535156 120.613281 197.484375 C 120.800781 197.390625 120.984375 197.28125 121.167969 197.179688 C 121.542969 196.972656 121.894531 196.722656 122.246094 196.488281 C 122.269531 196.472656 122.285156 196.464844 122.292969 196.457031 C 122.328125 196.429688 122.363281 196.402344 122.398438 196.375 C 122.507812 196.285156 122.613281 196.199219 122.722656 196.113281 C 122.886719 195.980469 123.039062 195.832031 123.199219 195.691406 C 123.523438 195.402344 123.8125 195.070312 124.101562 194.742188 C 124.121094 194.71875 124.136719 194.707031 124.144531 194.699219 C 124.167969 194.664062 124.191406 194.632812 124.21875 194.597656 C 124.300781 194.492188 124.382812 194.382812 124.460938 194.273438 C 124.582031 194.109375 124.707031 193.945312 124.832031 193.78125 C 125.085938 193.441406 125.273438 193.039062 125.476562 192.667969 C 125.585938 192.46875 125.679688 192.265625 125.777344 192.058594 C 125.796875 192.015625 125.808594 191.992188 125.816406 191.976562 C 125.820312 191.972656 125.824219 191.964844 125.824219 191.957031 C 125.875 191.828125 125.925781 191.695312 125.976562 191.566406 C 126.128906 191.171875 126.246094 190.769531 126.351562 190.359375 C 126.40625 190.140625 126.457031 189.921875 126.511719 189.699219 C 126.523438 189.640625 126.539062 189.582031 126.554688 189.523438 C 126.554688 189.511719 126.558594 189.507812 126.558594 189.5 C 126.574219 189.390625 126.585938 189.277344 126.597656 189.164062 C 126.648438 188.746094 126.675781 188.328125 126.691406 187.90625 C 126.710938 187.488281 126.6875 187.070312 126.65625 186.652344 C 126.636719 186.425781 126.617188 186.207031 126.589844 185.984375 C 126.574219 185.863281 126.5625 185.746094 126.546875 185.625 C 126.578125 185.886719 126.507812 185.507812 126.492188 185.449219 C 126.394531 185.039062 126.308594 184.625 126.171875 184.226562 C 126.101562 184.015625 126.03125 183.804688 125.953125 183.59375 C 125.910156 183.484375 125.867188 183.371094 125.820312 183.257812 C 125.796875 183.203125 125.773438 183.152344 125.746094 183.097656 C 125.375 182.324219 124.945312 181.597656 124.433594 180.910156 C 124.335938 180.78125 124.238281 180.652344 124.140625 180.519531 C 124.136719 180.515625 124.136719 180.515625 124.132812 180.511719 C 124.125 180.503906 124.105469 180.484375 124.0625 180.433594 C 123.925781 180.28125 123.796875 180.121094 123.648438 179.980469 C 123.34375 179.691406 123.046875 179.371094 122.722656 179.109375 C 122.59375 179.007812 122.46875 178.90625 122.34375 178.804688 C 122.304688 178.777344 122.269531 178.746094 122.234375 178.71875 C 122.402344 178.851562 122.285156 178.761719 122.246094 178.734375 C 122.074219 178.621094 121.90625 178.5 121.730469 178.390625 C 121.367188 178.164062 121 177.929688 120.613281 177.742188 C 120.476562 177.679688 120.34375 177.613281 120.210938 177.550781 C 120.160156 177.527344 120.113281 177.503906 120.0625 177.476562 C 119.867188 177.40625 119.675781 177.324219 119.480469 177.257812 C 119.066406 177.121094 118.640625 176.949219 118.214844 176.863281 C 118.089844 176.839844 117.96875 176.8125 117.84375 176.789062 C 117.785156 176.777344 117.40625 176.714844 117.667969 176.746094 C 117.457031 176.71875 117.246094 176.683594 117.03125 176.667969 C 116.746094 176.644531 116.460938 176.625 116.175781 176.613281 C 116.175781 177.882812 116.175781 179.15625 116.175781 180.425781 C 116.175781 180.5 116.175781 180.574219 116.175781 180.648438 C 117.019531 180.65625 117.863281 180.984375 118.632812 181.300781 C 119.449219 181.640625 120.191406 182.21875 120.789062 182.867188 C 122 184.183594 122.746094 186.003906 122.648438 187.8125 C 122.546875 189.652344 121.851562 191.398438 120.488281 192.664062 C 119.28125 193.777344 117.792969 194.449219 116.175781 194.558594 C 116.175781 195.914062 116.175781 197.273438 116.175781 198.628906 C 116.414062 198.621094 116.648438 198.605469 116.890625 198.574219 Z M 116.890625 198.574219 " fill-opacity="1" fill-rule="nonzero"/><g clip-path="url(#6b5f91fd4c)"><path fill="#bd7877" d="M 119.007812 259.003906 C 120.597656 258.902344 122.183594 258.777344 123.769531 258.625 C 124.113281 258.589844 124.457031 258.542969 124.800781 258.496094 C 125.035156 258.46875 125.269531 258.4375 125.503906 258.40625 C 125.527344 258.402344 125.546875 258.402344 125.558594 258.398438 C 125.570312 258.398438 125.605469 258.390625 125.699219 258.378906 C 126.539062 258.253906 127.375 258.121094 128.207031 257.976562 C 131.148438 257.453125 134.085938 256.757812 136.929688 255.839844 C 138.46875 255.34375 139.988281 254.796875 141.503906 254.230469 C 143.109375 253.628906 144.378906 253.054688 145.777344 252.414062 C 148.488281 251.175781 151.089844 249.707031 153.617188 248.128906 C 156.433594 246.367188 158.730469 244.617188 161.21875 242.632812 C 163.597656 240.730469 165.761719 238.550781 167.859375 236.347656 C 172.191406 231.796875 175.550781 226.894531 178.589844 221.300781 C 179.300781 219.996094 179.949219 218.664062 180.570312 217.3125 C 181.132812 216.097656 181.722656 214.660156 182.285156 213.179688 C 183.410156 210.191406 184.335938 207.175781 185.09375 204.074219 C 185.453125 202.601562 185.742188 201.117188 186.007812 199.625 C 186.300781 197.996094 186.445312 196.875 186.605469 195.214844 C 186.90625 192.140625 187.09375 189.050781 186.992188 185.960938 C 186.945312 184.363281 186.847656 182.777344 186.71875 181.1875 C 186.664062 180.523438 186.609375 179.859375 186.527344 179.203125 C 186.460938 178.710938 186.398438 178.222656 186.335938 177.730469 C 186.351562 177.839844 186.324219 177.65625 186.300781 177.492188 C 186.261719 177.230469 186.226562 176.96875 186.1875 176.707031 C 185.761719 173.765625 185.132812 170.777344 184.265625 167.933594 C 183.339844 164.886719 182.28125 161.914062 181.046875 158.980469 C 181.007812 158.890625 180.96875 158.800781 180.933594 158.707031 C 181.019531 158.917969 180.9375 158.730469 180.921875 158.699219 C 180.824219 158.484375 180.726562 158.269531 180.628906 158.050781 C 180.496094 157.761719 180.371094 157.46875 180.230469 157.179688 C 179.867188 156.425781 179.503906 155.671875 179.117188 154.929688 C 178.4375 153.609375 177.71875 152.308594 176.957031 151.035156 C 173.691406 145.617188 170.101562 140.992188 165.535156 136.507812 C 160.996094 132.054688 156.300781 128.539062 150.761719 125.40625 C 149.46875 124.679688 148.164062 124 146.835938 123.335938 C 146.089844 122.960938 145.335938 122.621094 144.566406 122.285156 C 144.234375 122.136719 143.90625 121.992188 143.574219 121.84375 C 143.378906 121.761719 143.1875 121.675781 142.992188 121.589844 C 143.089844 121.632812 142.917969 121.5625 142.765625 121.5 C 139.804688 120.320312 136.808594 119.351562 133.742188 118.480469 C 132.285156 118.066406 130.789062 117.785156 129.308594 117.46875 C 128.582031 117.3125 127.847656 117.207031 127.117188 117.085938 C 126.675781 117.015625 126.238281 116.941406 125.800781 116.871094 C 125.632812 116.84375 125.460938 116.816406 125.566406 116.832031 C 125.359375 116.804688 125.148438 116.777344 124.9375 116.75 C 122.027344 116.371094 119.105469 116.210938 116.175781 116.152344 C 116.175781 116.597656 116.175781 117.042969 116.175781 117.488281 C 116.175781 118.394531 116.175781 119.304688 116.175781 120.210938 C 117.832031 120.242188 119.488281 120.304688 121.140625 120.441406 C 126.894531 120.914062 132.539062 122.140625 137.992188 124.027344 C 143.332031 125.875 148.492188 128.453125 153.160156 131.640625 C 157.84375 134.835938 162.371094 138.558594 166.046875 142.902344 C 169.773438 147.3125 173.113281 151.972656 175.699219 157.152344 C 176.992188 159.746094 178.09375 162.390625 179.09375 165.109375 C 180.039062 167.6875 180.863281 170.394531 181.398438 173.089844 C 182.558594 178.90625 183.097656 184.707031 182.902344 190.636719 C 182.710938 196.316406 181.660156 202.054688 179.984375 207.472656 C 178.277344 212.976562 175.875 218.226562 172.863281 223.132812 C 169.914062 227.9375 166.3125 232.386719 162.246094 236.28125 C 158.117188 240.238281 153.441406 243.800781 148.402344 246.511719 C 143.402344 249.203125 138.171875 251.441406 132.65625 252.847656 C 127.246094 254.230469 121.746094 254.894531 116.175781 255.015625 C 116.175781 256.371094 116.175781 257.722656 116.175781 259.078125 C 117.117188 259.066406 118.066406 259.066406 119.007812 259.003906 Z M 119.007812 259.003906 " fill-opacity="1" fill-rule="nonzero"/></g><path fill="#bd7877" d="M 128.308594 197.53125 C 128.195312 197.667969 128.28125 197.566406 128.308594 197.535156 C 128.308594 197.535156 128.308594 197.535156 128.308594 197.53125 Z M 128.308594 197.53125 " fill-opacity="1" fill-rule="nonzero"/><path fill="#bd7877" d="M 125.484375 211.851562 C 125.285156 211.921875 125.394531 211.890625 125.441406 211.871094 C 125.453125 211.863281 125.46875 211.859375 125.484375 211.851562 Z M 125.484375 211.851562 " fill-opacity="1" fill-rule="nonzero"/><path fill="#bd7877" d="M 117.484375 208.632812 C 117.773438 208.609375 118.0625 208.585938 118.347656 208.558594 C 118.367188 208.554688 118.378906 208.554688 118.390625 208.554688 C 118.441406 208.546875 118.496094 208.539062 118.550781 208.53125 C 118.742188 208.503906 118.933594 208.472656 119.125 208.445312 C 119.992188 208.320312 120.855469 208.078125 121.699219 207.847656 C 122.066406 207.746094 122.433594 207.625 122.789062 207.492188 C 123.046875 207.394531 123.304688 207.296875 123.5625 207.199219 C 123.597656 207.183594 123.628906 207.171875 123.664062 207.152344 C 123.800781 207.089844 123.941406 207.027344 124.078125 206.964844 C 124.875 206.605469 125.636719 206.21875 126.394531 205.785156 C 126.785156 205.566406 127.167969 205.332031 127.53125 205.074219 C 127.742188 204.921875 127.957031 204.769531 128.171875 204.617188 C 128.214844 204.582031 128.234375 204.570312 128.246094 204.5625 C 128.351562 204.480469 128.460938 204.394531 128.566406 204.3125 C 129.925781 203.25 131.167969 202.050781 132.226562 200.683594 C 132.332031 200.542969 132.441406 200.402344 132.550781 200.261719 C 132.566406 200.242188 132.582031 200.222656 132.597656 200.203125 C 132.597656 200.199219 132.601562 200.195312 132.609375 200.183594 C 132.765625 199.964844 132.921875 199.746094 133.078125 199.527344 C 133.308594 199.207031 133.527344 198.871094 133.722656 198.527344 C 134.160156 197.746094 134.589844 196.984375 134.949219 196.160156 C 135.054688 195.914062 135.164062 195.667969 135.269531 195.421875 C 135.164062 195.667969 135.296875 195.34375 135.316406 195.289062 C 135.371094 195.144531 135.425781 195 135.476562 194.855469 C 135.613281 194.5 135.746094 194.132812 135.847656 193.765625 C 136.082031 192.902344 136.34375 192.023438 136.476562 191.132812 C 136.511719 190.875 136.550781 190.613281 136.589844 190.355469 C 136.589844 190.34375 136.59375 190.332031 136.59375 190.324219 C 136.59375 190.316406 136.59375 190.304688 136.597656 190.285156 C 136.609375 190.144531 136.621094 190.003906 136.632812 189.867188 C 136.671875 189.421875 136.710938 188.972656 136.75 188.527344 C 136.824219 187.648438 136.75 186.71875 136.675781 185.84375 C 136.65625 185.628906 136.636719 185.417969 136.621094 185.203125 C 136.609375 185.09375 136.601562 184.984375 136.589844 184.875 C 136.613281 185.148438 136.578125 184.796875 136.570312 184.738281 C 136.5 184.253906 136.410156 183.78125 136.3125 183.300781 C 136.136719 182.445312 135.894531 181.601562 135.621094 180.773438 C 135.558594 180.59375 135.492188 180.414062 135.425781 180.230469 C 135.375 180.09375 135.320312 179.953125 135.269531 179.8125 C 135.253906 179.773438 135.246094 179.75 135.242188 179.734375 C 135.050781 179.300781 134.863281 178.867188 134.667969 178.4375 C 134.308594 177.632812 133.832031 176.851562 133.351562 176.113281 C 133.242188 175.941406 133.128906 175.769531 133.011719 175.605469 C 132.921875 175.480469 132.832031 175.351562 132.742188 175.226562 C 132.710938 175.183594 132.503906 174.898438 132.664062 175.105469 C 132.375 174.738281 132.09375 174.371094 131.792969 174.015625 C 131.230469 173.351562 130.640625 172.691406 129.988281 172.113281 C 129.636719 171.800781 129.28125 171.496094 128.921875 171.191406 C 128.75 171.042969 128.5625 170.910156 128.382812 170.769531 C 128.339844 170.734375 128.058594 170.53125 128.269531 170.679688 C 128.179688 170.617188 128.09375 170.554688 128.003906 170.488281 C 127.28125 169.972656 126.542969 169.492188 125.753906 169.082031 C 125.316406 168.855469 124.875 168.636719 124.433594 168.421875 C 124.246094 168.332031 124.058594 168.25 123.871094 168.164062 C 123.769531 168.117188 123.667969 168.070312 123.566406 168.027344 C 123.523438 168.011719 123.476562 167.992188 123.433594 167.976562 C 122.617188 167.667969 121.792969 167.375 120.941406 167.175781 C 120.472656 167.066406 120.007812 166.960938 119.535156 166.875 C 119.335938 166.839844 119.140625 166.808594 118.941406 166.773438 C 118.789062 166.746094 118.636719 166.71875 118.484375 166.691406 C 118.445312 166.683594 118.40625 166.675781 118.367188 166.671875 C 117.636719 166.605469 116.910156 166.5625 116.179688 166.53125 C 116.179688 167.886719 116.179688 169.238281 116.179688 170.59375 C 117.839844 170.679688 119.445312 170.917969 121.046875 171.433594 C 122.671875 171.957031 124.277344 172.761719 125.640625 173.789062 C 128.5625 175.984375 130.769531 178.90625 131.890625 182.410156 C 132.996094 185.851562 132.945312 189.527344 131.847656 192.960938 C 131.320312 194.597656 130.53125 196.1875 129.496094 197.566406 C 128.9375 198.316406 128.34375 199.023438 127.699219 199.703125 C 127.0625 200.371094 126.332031 200.917969 125.59375 201.472656 C 122.917969 203.484375 119.507812 204.550781 116.179688 204.648438 C 116.179688 206 116.179688 207.351562 116.179688 208.707031 C 116.613281 208.695312 117.042969 208.675781 117.484375 208.632812 Z M 117.484375 208.632812 " fill-opacity="1" fill-rule="nonzero"/><g clip-path="url(#7129a8b661)"><path fill="#bd7877" d="M 368.992188 160.042969 L 368.226562 160.042969 L 367.457031 160.078125 L 366.722656 160.152344 L 365.953125 160.222656 L 365.1875 160.296875 L 364.457031 160.410156 L 363.722656 160.554688 L 362.957031 160.703125 L 362.226562 160.886719 L 361.492188 161.066406 L 360.761719 161.289062 L 360.066406 161.546875 L 359.335938 161.800781 L 358.636719 162.058594 L 357.941406 162.351562 L 357.25 162.683594 L 356.554688 163.011719 L 355.894531 163.382812 L 355.234375 163.746094 L 354.578125 164.113281 L 353.917969 164.519531 L 353.296875 164.957031 L 352.675781 165.398438 L 352.089844 165.875 L 351.503906 166.316406 L 350.917969 166.828125 L 350.332031 167.34375 L 349.785156 167.855469 L 349.273438 168.40625 L 348.726562 168.957031 L 348.25 169.507812 L 347.738281 170.09375 L 347.261719 170.683594 L 346.824219 171.269531 L 346.382812 171.894531 L 345.945312 172.554688 L 345.542969 173.179688 L 345.140625 173.839844 L 344.773438 174.5 L 344.445312 175.160156 L 344.117188 175.855469 L 343.785156 176.554688 L 343.492188 177.25 L 343.199219 177.949219 L 342.945312 178.644531 L 342.726562 179.382812 L 342.503906 180.113281 L 342.320312 180.847656 L 342.140625 181.582031 L 341.992188 182.316406 L 341.847656 183.085938 L 341.738281 183.820312 L 341.628906 184.589844 L 341.554688 185.324219 L 341.519531 186.097656 L 341.480469 186.867188 L 341.480469 188.371094 L 341.519531 189.140625 L 341.554688 189.875 L 341.628906 190.644531 L 341.738281 191.414062 L 341.847656 192.148438 L 341.992188 192.882812 L 342.140625 193.65625 L 342.320312 194.390625 L 342.503906 195.121094 L 342.726562 195.855469 L 342.945312 196.554688 L 343.199219 197.289062 L 343.492188 197.984375 L 343.785156 198.683594 L 344.117188 199.378906 L 344.445312 200.078125 L 344.773438 200.738281 L 345.140625 201.398438 L 345.542969 202.058594 L 345.945312 202.679688 L 346.382812 203.304688 L 346.824219 203.929688 L 347.261719 204.554688 L 347.738281 205.140625 L 348.25 205.726562 L 348.726562 206.277344 L 349.273438 206.828125 L 349.785156 207.378906 L 350.332031 207.890625 L 350.917969 208.40625 L 352.675781 209.835938 L 353.296875 210.277344 L 353.917969 210.679688 L 354.578125 211.085938 L 355.234375 211.488281 L 356.554688 212.222656 L 357.25 212.554688 L 357.941406 212.847656 L 358.636719 213.140625 L 359.335938 213.433594 L 360.066406 213.691406 L 360.761719 213.910156 L 361.492188 214.128906 L 362.226562 214.351562 L 362.957031 214.496094 L 363.722656 214.679688 L 364.457031 214.789062 L 365.1875 214.9375 L 365.953125 215.011719 L 366.722656 215.085938 L 367.457031 215.160156 L 368.226562 215.160156 L 368.992188 215.195312 " fill-opacity="1" fill-rule="nonzero"/></g><g clip-path="url(#f82ad477f7)"><path fill="#bd7877" d="M 5.960938 215.140625 L 6.730469 215.140625 L 7.5 215.105469 L 8.230469 215.03125 L 9 214.957031 L 9.765625 214.882812 L 10.5 214.773438 L 11.230469 214.625 L 12 214.480469 L 13.460938 214.113281 L 14.191406 213.890625 L 14.890625 213.636719 L 15.621094 213.378906 L 16.316406 213.121094 L 17.011719 212.828125 L 17.707031 212.5 L 18.398438 212.167969 L 19.71875 211.433594 L 20.375 211.066406 L 21.035156 210.664062 L 21.65625 210.222656 L 22.277344 209.785156 L 22.863281 209.304688 L 23.449219 208.867188 L 24.035156 208.351562 L 24.621094 207.839844 L 25.167969 207.324219 L 25.679688 206.773438 L 26.230469 206.222656 L 26.703125 205.671875 L 27.214844 205.085938 L 27.691406 204.496094 L 28.132812 203.914062 L 28.570312 203.289062 L 29.007812 202.628906 L 29.410156 202.003906 L 29.816406 201.34375 L 30.179688 200.679688 L 30.511719 200.019531 L 31.167969 198.628906 L 31.753906 197.230469 L 32.007812 196.535156 L 32.230469 195.800781 L 32.449219 195.066406 L 32.816406 193.597656 L 32.960938 192.863281 L 33.105469 192.09375 L 33.21875 191.363281 L 33.324219 190.589844 L 33.398438 189.855469 L 33.4375 189.085938 L 33.472656 188.316406 L 33.472656 186.8125 L 33.4375 186.039062 L 33.398438 185.308594 L 33.324219 184.535156 L 33.21875 183.765625 L 33.105469 183.03125 L 32.960938 182.296875 L 32.816406 181.527344 L 32.449219 180.058594 L 32.230469 179.324219 L 32.007812 178.628906 L 31.753906 177.894531 L 31.460938 177.195312 L 31.167969 176.5 L 30.839844 175.800781 L 30.511719 175.105469 L 30.179688 174.445312 L 29.816406 173.785156 L 29.410156 173.125 L 29.007812 172.5 L 28.132812 171.25 L 27.691406 170.628906 L 27.214844 170.042969 L 26.703125 169.453125 L 26.230469 168.902344 L 25.679688 168.351562 L 25.167969 167.800781 L 24.621094 167.289062 L 24.035156 166.777344 L 23.449219 166.296875 L 22.277344 165.34375 L 21.65625 164.902344 L 21.035156 164.5 L 20.375 164.097656 L 19.71875 163.691406 L 19.058594 163.324219 L 18.398438 162.960938 L 17.707031 162.628906 L 15.621094 161.75 L 14.890625 161.492188 L 14.191406 161.269531 L 12.730469 160.832031 L 12 160.683594 L 11.230469 160.5 L 10.5 160.390625 L 9.765625 160.242188 L 9 160.171875 L 8.230469 160.097656 L 7.5 160.023438 L 6.730469 160.023438 L 5.960938 159.988281 " fill-opacity="1" fill-rule="nonzero"/></g></svg>