<svg xmlns="http://www.w3.org/2000/svg" xmlns:xlink="http://www.w3.org/1999/xlink" width="500" zoomAndPan="magnify" viewBox="0 0 375 374.999991" height="500" preserveAspectRatio="xMidYMid meet" version="1.0"><defs><clipPath id="399722e89c"><path d="M 21.570312 29.035156 L 339.570312 29.035156 L 339.570312 346.285156 L 21.570312 346.285156 Z M 21.570312 29.035156 " clip-rule="nonzero"/></clipPath><clipPath id="771dcfdb31"><path d="M 147.816406 158.960938 L 353.042969 158.960938 L 353.042969 285.699219 L 147.816406 285.699219 Z M 147.816406 158.960938 " clip-rule="nonzero"/></clipPath></defs><path fill="#c9974e" d="M 180.578125 110.324219 C 220.394531 110.324219 252.71875 143.140625 252.71875 183.566406 C 252.71875 223.992188 220.394531 256.816406 180.578125 256.816406 C 140.761719 256.816406 108.4375 223.992188 108.4375 183.566406 C 108.4375 143.140625 140.761719 110.324219 180.578125 110.324219 Z M 180.578125 110.324219 " fill-opacity="1" fill-rule="evenodd"/><g clip-path="url(#399722e89c)"><path fill="#c9974e" d="M 191.777344 269.226562 L 200.425781 343.042969 C 200.46875 343.425781 200.441406 343.804688 200.335938 344.175781 C 200.230469 344.546875 200.054688 344.886719 199.816406 345.1875 C 199.578125 345.492188 199.289062 345.738281 198.953125 345.925781 C 198.613281 346.117188 198.253906 346.234375 197.871094 346.277344 L 197.578125 346.277344 C 197.214844 346.285156 196.867188 346.222656 196.53125 346.101562 C 196.191406 345.976562 195.886719 345.796875 195.617188 345.558594 C 195.34375 345.320312 195.125 345.042969 194.957031 344.722656 C 194.789062 344.40625 194.683594 344.066406 194.644531 343.707031 L 185.980469 269.800781 C 187.933594 269.683594 189.851562 269.496094 191.777344 269.25 Z M 166.683594 268.832031 C 168.589844 269.140625 170.511719 269.386719 172.460938 269.566406 L 163.789062 343.722656 L 158.007812 343.042969 Z M 210.628906 264.566406 L 235.867188 333.9375 C 236.003906 334.300781 236.0625 334.675781 236.046875 335.0625 C 236.027344 335.449219 235.941406 335.816406 235.777344 336.167969 C 235.613281 336.519531 235.390625 336.824219 235.105469 337.085938 C 234.820312 337.347656 234.496094 337.546875 234.132812 337.679688 C 233.855469 337.777344 233.570312 337.832031 233.277344 337.847656 L 233.128906 337.847656 C 232.519531 337.847656 231.960938 337.671875 231.460938 337.320312 C 230.960938 336.972656 230.605469 336.507812 230.394531 335.9375 L 205.070312 266.410156 C 206.933594 265.859375 208.785156 265.238281 210.597656 264.566406 Z M 148.125 263.605469 C 149.917969 264.335938 151.738281 265.007812 153.59375 265.621094 L 128.011719 335.914062 L 122.542969 333.914062 Z M 228.050781 255.703125 L 268.300781 316.859375 L 263.425781 320.121094 L 223.082031 258.785156 C 224.773438 257.824219 226.429688 256.808594 228.050781 255.742188 Z M 131.203125 254.417969 C 132.796875 255.523438 134.421875 256.585938 136.085938 257.582031 L 94.992188 320.121094 L 90.125 316.921875 L 131.203125 254.457031 Z M 243.160156 243.058594 L 295.894531 292.824219 C 296.324219 293.226562 296.605469 293.714844 296.738281 294.289062 C 296.871094 294.863281 296.832031 295.429688 296.625 295.980469 C 296.414062 296.53125 296.070312 296.976562 295.589844 297.320312 C 295.109375 297.660156 294.574219 297.839844 293.984375 297.855469 L 293.84375 297.855469 C 293.097656 297.84375 292.453125 297.585938 291.902344 297.082031 L 239.003906 247.164062 C 240.4375 245.847656 241.824219 244.484375 243.160156 243.074219 Z M 116.710938 241.683594 C 118.019531 243.121094 119.375 244.507812 120.777344 245.855469 L 66.515625 297.089844 L 62.523438 292.847656 L 116.703125 241.707031 Z M 255.125 227.222656 L 317.21875 263.070312 C 317.488281 263.230469 317.726562 263.421875 317.933594 263.65625 C 318.140625 263.886719 318.304688 264.148438 318.429688 264.433594 C 318.550781 264.71875 318.628906 265.015625 318.65625 265.324219 C 318.683594 265.636719 318.664062 265.941406 318.59375 266.246094 C 318.523438 266.546875 318.40625 266.832031 318.246094 267.097656 C 318.082031 267.363281 317.886719 267.597656 317.648438 267.800781 C 317.414062 268 317.152344 268.160156 316.863281 268.28125 C 316.574219 268.398438 316.277344 268.46875 315.964844 268.492188 L 315.828125 268.492188 C 315.273438 268.515625 314.757812 268.386719 314.277344 268.105469 L 251.96875 232.128906 C 253.066406 230.527344 254.105469 228.878906 255.066406 227.207031 Z M 105.34375 226.027344 C 106.300781 227.722656 107.316406 229.378906 108.382812 231 L 44.136719 268.121094 C 43.710938 268.363281 43.253906 268.492188 42.761719 268.507812 L 42.621094 268.507812 C 42.304688 268.5 42 268.441406 41.703125 268.332031 C 41.402344 268.226562 41.132812 268.070312 40.882812 267.875 C 40.636719 267.679688 40.425781 267.449219 40.253906 267.183594 C 40.082031 266.917969 39.957031 266.632812 39.878906 266.324219 C 39.796875 266.019531 39.769531 265.707031 39.792969 265.394531 C 39.8125 265.078125 39.886719 264.773438 40.007812 264.480469 C 40.128906 264.191406 40.292969 263.925781 40.5 263.6875 C 40.707031 263.449219 40.949219 263.246094 41.21875 263.085938 L 105.371094 226.042969 Z M 263.246094 208.859375 L 331.136719 229.1875 C 331.464844 229.285156 331.769531 229.433594 332.042969 229.636719 C 332.320312 229.84375 332.550781 230.085938 332.742188 230.375 C 332.929688 230.660156 333.066406 230.96875 333.144531 231.300781 C 333.222656 231.636719 333.242188 231.972656 333.203125 232.3125 C 333.164062 232.652344 333.070312 232.976562 332.914062 233.285156 C 332.761719 233.589844 332.558594 233.859375 332.3125 234.097656 C 332.0625 234.332031 331.78125 234.515625 331.464844 234.652344 C 331.148438 234.789062 330.820312 234.867188 330.480469 234.886719 L 330.332031 234.886719 C 330.035156 234.894531 329.746094 234.851562 329.464844 234.761719 L 261.351562 214.363281 C 262.039062 212.558594 262.671875 210.714844 263.246094 208.859375 Z M 97.765625 208.082031 C 98.3125 209.957031 98.933594 211.800781 99.605469 213.609375 L 28.984375 234.761719 C 28.75 234.835938 28.507812 234.878906 28.261719 234.886719 L 28.117188 234.886719 C 27.769531 234.878906 27.433594 234.808594 27.113281 234.683594 C 26.789062 234.554688 26.5 234.378906 26.242188 234.144531 C 25.984375 233.914062 25.773438 233.648438 25.609375 233.339844 C 25.445312 233.035156 25.34375 232.710938 25.296875 232.367188 C 25.25 232.023438 25.261719 231.683594 25.339844 231.34375 C 25.414062 231.003906 25.542969 230.691406 25.730469 230.398438 C 25.917969 230.109375 26.152344 229.859375 26.429688 229.648438 C 26.707031 229.441406 27.011719 229.285156 27.339844 229.1875 L 97.78125 208.097656 Z M 266.855469 188.914062 L 336.828125 192.988281 C 337.195312 193.015625 337.542969 193.113281 337.875 193.273438 C 338.207031 193.433594 338.496094 193.652344 338.746094 193.921875 C 338.996094 194.195312 339.1875 194.503906 339.320312 194.847656 C 339.453125 195.191406 339.515625 195.546875 339.515625 195.917969 C 339.511719 196.285156 339.441406 196.640625 339.304688 196.984375 C 339.167969 197.324219 338.972656 197.628906 338.71875 197.898438 C 338.46875 198.167969 338.171875 198.378906 337.839844 198.535156 C 337.507812 198.695312 337.15625 198.785156 336.789062 198.808594 L 336.492188 198.808594 L 266.257812 194.707031 C 266.503906 192.792969 266.691406 190.859375 266.816406 188.90625 Z M 94.367188 188.753906 C 94.488281 190.703125 94.667969 192.625 94.914062 194.558594 L 21.960938 198.816406 L 21.621094 193.003906 L 94.328125 188.769531 Z M 95.386719 169.003906 C 95.070312 170.910156 94.808594 172.835938 94.613281 174.78125 L 23.410156 162.191406 L 23.5625 162.191406 C 23.664062 162.199219 23.761719 162.199219 23.859375 162.191406 L 23.996094 162.191406 C 24.359375 162.179688 24.703125 162.105469 25.035156 161.96875 C 25.367188 161.828125 25.664062 161.632812 25.925781 161.386719 C 26.183594 161.136719 26.390625 160.847656 26.546875 160.523438 C 26.699219 160.199219 26.789062 159.855469 26.816406 159.496094 C 26.839844 159.136719 26.804688 158.785156 26.699219 158.441406 C 26.59375 158.09375 26.433594 157.78125 26.210938 157.496094 C 25.992188 157.210938 25.726562 156.976562 25.417969 156.789062 C 25.109375 156.605469 24.777344 156.480469 24.421875 156.417969 Z M 265.675781 168.53125 L 333.976562 156.492188 L 334.992188 162.222656 L 266.480469 174.308594 C 266.28125 172.363281 266.023438 170.4375 265.707031 168.53125 Z M 98.910156 155.269531 L 33.230469 126.953125 C 32.878906 126.796875 32.566406 126.582031 32.296875 126.304688 C 32.027344 126.027344 31.824219 125.707031 31.679688 125.347656 C 31.539062 124.988281 31.472656 124.613281 31.476562 124.226562 C 31.484375 123.839844 31.566406 123.46875 31.71875 123.117188 C 31.871094 122.761719 32.089844 122.449219 32.367188 122.179688 C 32.644531 121.910156 32.964844 121.707031 33.324219 121.566406 C 33.683594 121.421875 34.054688 121.355469 34.441406 121.363281 C 34.828125 121.367188 35.199219 121.449219 35.554688 121.601562 L 101 149.804688 C 100.242188 151.597656 99.542969 153.402344 98.910156 155.222656 Z M 259.722656 148.835938 L 322.839844 121.601562 L 325.160156 126.953125 L 261.882812 154.242188 C 261.230469 152.414062 260.507812 150.609375 259.722656 148.820312 Z M 110.992188 132.316406 C 109.839844 133.863281 108.742188 135.46875 107.695312 137.125 L 50.988281 94.902344 L 54.464844 90.257812 L 110.96875 132.339844 Z M 249.191406 131.007812 L 303.953125 90.234375 L 307.4375 94.878906 L 252.574219 135.722656 C 251.5 134.101562 250.371094 132.523438 249.191406 130.984375 Z M 124.894531 117.46875 C 123.40625 118.722656 121.960938 120.03125 120.566406 121.339844 L 75.617188 67.804688 L 80.078125 64.058594 L 124.894531 117.476562 Z M 234.644531 116.136719 L 278.332031 64.058594 L 282.792969 67.804688 L 239.058594 119.9375 C 237.625 118.621094 236.152344 117.355469 234.644531 116.136719 Z M 142.015625 106.1875 C 140.277344 107.054688 138.570312 107.984375 136.890625 108.96875 L 105.835938 47.121094 C 106.09375 47.625 104.933594 44.796875 106.8125 43.667969 C 109.546875 42.042969 111.402344 45.214844 111.039062 44.503906 L 142 106.1875 Z M 216.933594 105.121094 L 247.371094 44.519531 L 252.574219 47.136719 L 222.097656 107.753906 C 220.402344 106.824219 218.667969 105.941406 216.90625 105.121094 Z M 161.460938 99.238281 C 159.554688 99.671875 157.683594 100.160156 155.824219 100.714844 L 140.050781 33.960938 L 140.089844 34.105469 C 139.398438 31.382812 144.972656 29.996094 145.714844 32.613281 L 161.5 99.238281 Z M 197.066406 98.6875 L 212.734375 32.613281 C 212.820312 32.238281 212.980469 31.894531 213.207031 31.578125 C 213.433594 31.265625 213.710938 31.007812 214.039062 30.808594 C 214.367188 30.605469 214.722656 30.472656 215.101562 30.410156 C 215.484375 30.351562 215.863281 30.363281 216.238281 30.453125 C 216.613281 30.542969 216.957031 30.699219 217.273438 30.925781 C 217.585938 31.152344 217.84375 31.429688 218.042969 31.757812 C 218.246094 32.089844 218.378906 32.441406 218.441406 32.824219 C 218.5 33.207031 218.488281 33.585938 218.398438 33.960938 L 202.746094 99.988281 C 200.882812 99.492188 198.984375 99.058594 197.074219 98.6875 Z M 176.28125 97.214844 L 176.28125 29.035156 L 182.105469 29.035156 L 182.105469 97.164062 L 180.554688 97.164062 C 179.117188 97.164062 177.691406 97.164062 176.273438 97.269531 Z M 176.28125 97.214844 " fill-opacity="1" fill-rule="evenodd"/></g><g clip-path="url(#771dcfdb31)"><path fill="#e1dddb" d="M 353.042969 254.011719 C 353.042969 271.519531 338.914062 285.699219 321.476562 285.699219 L 195.191406 285.699219 C 169.046875 285.699219 147.816406 264.429688 147.816406 238.1875 C 147.816406 211.914062 169.046875 190.644531 195.191406 190.644531 C 197.921875 190.644531 200.617188 190.882812 203.246094 191.328125 C 214.0625 172.007812 234.679688 158.957031 258.332031 158.957031 C 293.214844 158.957031 321.476562 187.316406 321.476562 222.328125 C 338.914062 222.328125 353.042969 236.511719 353.042969 254.011719 " fill-opacity="1" fill-rule="nonzero"/></g></svg>