<svg xmlns="http://www.w3.org/2000/svg" xmlns:xlink="http://www.w3.org/1999/xlink" width="598" zoomAndPan="magnify" viewBox="0 0 448.5 233.999995" height="312" preserveAspectRatio="xMidYMid meet" version="1.0"><defs><g/><clipPath id="1a6fd5363a"><path d="M 0 0.128906 L 448 0.128906 L 448 233.867188 L 0 233.867188 Z M 0 0.128906 " clip-rule="nonzero"/></clipPath><clipPath id="bfad152f58"><path d="M 236 109 L 242 109 L 242 115 L 236 115 Z M 236 109 " clip-rule="nonzero"/></clipPath><clipPath id="e19aa20b6d"><path d="M 238.738281 108.867188 L 242.539062 111.691406 L 239.765625 115.425781 L 235.964844 112.605469 Z M 238.738281 108.867188 " clip-rule="nonzero"/></clipPath><clipPath id="b47130df42"><path d="M 240.640625 110.28125 C 239.589844 109.5 238.117188 109.703125 237.351562 110.734375 C 236.585938 111.769531 236.816406 113.234375 237.863281 114.015625 C 238.914062 114.796875 240.386719 114.589844 241.152344 113.558594 C 241.917969 112.527344 241.6875 111.058594 240.640625 110.28125 " clip-rule="nonzero"/></clipPath></defs><g clip-path="url(#1a6fd5363a)"><path fill="#ffffff" d="M 0 0.128906 L 448.5 0.128906 L 448.5 241.628906 L 0 241.628906 Z M 0 0.128906 " fill-opacity="1" fill-rule="nonzero"/><path fill="#ffffff" d="M 0 0.128906 L 448.5 0.128906 L 448.5 234.128906 L 0 234.128906 Z M 0 0.128906 " fill-opacity="1" fill-rule="nonzero"/></g><g clip-path="url(#bfad152f58)"><g clip-path="url(#e19aa20b6d)"><g clip-path="url(#b47130df42)"><path fill="#282929" d="M 238.738281 108.867188 L 242.539062 111.691406 L 239.765625 115.425781 L 235.964844 112.605469 Z M 238.738281 108.867188 " fill-opacity="1" fill-rule="nonzero"/></g></g></g><g fill="#282929" fill-opacity="1"><g transform="translate(90.91685, 132.738164)"><g><path d="M 76.519531 -17.71875 C 75.753906 -18.34375 74.566406 -18.207031 73.9375 -17.4375 C 73.800781 -17.230469 58.246094 1.742188 43.945312 -6.558594 C 42.0625 -7.882812 40.597656 -9.695312 39.828125 -11.789062 C 38.503906 -14.4375 36.898438 -17.648438 32.433594 -16.949219 C 30.132812 -16.601562 26.574219 -13.671875 23.578125 -10.324219 C 23.4375 -10.113281 23.15625 -10.042969 22.949219 -10.113281 C 22.738281 -10.183594 22.53125 -10.324219 22.53125 -10.601562 C 21.972656 -13.742188 19.878906 -16.390625 16.949219 -17.648438 C 14.578125 -18.277344 10.742188 -18.972656 2.71875 -11.019531 C 2.300781 -10.671875 1.742188 -10.8125 1.8125 -11.371094 C 1.8125 -11.648438 3.207031 -17.300781 3.207031 -17.300781 C 3.417969 -18.277344 2.789062 -19.253906 1.8125 -19.53125 C 0.835938 -19.742188 -0.140625 -19.113281 -0.417969 -18.136719 L -3.765625 -3.417969 C -3.976562 -2.582031 -3.558594 -1.742188 -2.789062 -1.324219 C -1.953125 -0.976562 -1.046875 -1.1875 -0.558594 -1.882812 C 8.789062 -13.601562 13.394531 -14.71875 15.277344 -14.4375 C 17.160156 -14.089844 19.671875 -10.324219 19.390625 -4.253906 C 19.390625 -3.417969 19.878906 -2.652344 20.71875 -2.441406 C 21.554688 -2.164062 22.390625 -2.511719 22.808594 -3.207031 C 25.667969 -8.089844 31.25 -13.042969 32.992188 -13.324219 C 34.667969 -13.601562 35.15625 -12.972656 36.550781 -10.183594 C 37.597656 -7.394531 39.550781 -5.023438 42.0625 -3.417969 C 44.992188 -1.675781 48.339844 -0.699219 51.757812 -0.699219 C 65.078125 -0.699219 76.242188 -14.371094 76.796875 -15.136719 C 77.425781 -15.902344 77.285156 -17.089844 76.519531 -17.71875 Z M 76.519531 -17.71875 "/></g></g></g><g fill="#282929" fill-opacity="1"><g transform="translate(164.362564, 132.738164)"><g><path d="M 65.988281 -15.972656 C 65.636719 -16.324219 65.21875 -16.460938 64.730469 -16.53125 C 64.242188 -16.53125 63.753906 -16.324219 63.40625 -15.972656 C 52.875 -5.648438 37.527344 -2.09375 31.109375 -4.117188 C 25.667969 -5.859375 23.15625 -10.8125 22.042969 -16.042969 C 21.832031 -17.230469 22.042969 -18.34375 22.667969 -19.320312 C 31.039062 -33.550781 39.898438 -54.058594 36.828125 -59.011719 C 36.132812 -60.128906 34.875 -60.6875 33.550781 -60.476562 C 25.808594 -59.5 19.183594 -43.457031 17.855469 -29.15625 C 17.578125 -26.085938 17.578125 -23.089844 17.789062 -20.089844 C 17.855469 -19.113281 17.648438 -18.136719 17.089844 -17.300781 C 16.671875 -16.601562 16.183594 -15.835938 15.695312 -15.136719 C 9.554688 -6.070312 5.371094 -3.140625 3.628906 -3.347656 C 2.71875 -3.417969 1.953125 -4.046875 1.742188 -4.882812 C 1.046875 -8.441406 1.882812 -12.066406 3.90625 -14.996094 C 5.371094 -16.742188 7.535156 -18.695312 9.625 -18.277344 C 10.8125 -17.925781 11.789062 -17.019531 12.277344 -15.902344 C 12.484375 -14.925781 13.394531 -14.230469 14.371094 -14.371094 C 15.347656 -14.507812 16.042969 -15.414062 15.902344 -16.460938 C 15.207031 -18.972656 13.324219 -20.925781 10.8125 -21.691406 C 8.648438 -22.390625 5.160156 -22.113281 1.117188 -17.367188 C -1.117188 -14.789062 -3.347656 -7.953125 -1.675781 -3.558594 C -0.976562 -1.464844 0.90625 0 3.070312 0.277344 C 3.277344 0.277344 3.558594 0.277344 3.765625 0.277344 C 7.464844 0.277344 12.136719 -3.695312 17.648438 -11.578125 C 17.855469 -11.859375 18.277344 -12.066406 18.695312 -11.996094 C 19.113281 -11.996094 19.460938 -11.71875 19.601562 -11.371094 C 21.136719 -6.277344 25.042969 -2.300781 29.992188 -0.628906 C 38.226562 1.953125 54.964844 -2.652344 65.988281 -13.394531 C 66.683594 -14.089844 66.683594 -15.207031 65.988281 -15.972656 Z M 21.554688 -28.808594 C 22.667969 -41.574219 27.761719 -52.804688 32.085938 -56.011719 C 32.433594 -56.222656 32.921875 -56.292969 33.34375 -56.011719 C 33.691406 -55.804688 33.898438 -55.382812 33.898438 -54.964844 C 33.273438 -49.664062 29.503906 -40.109375 22.53125 -27.691406 C 21.414062 -25.878906 21.414062 -27.550781 21.554688 -28.808594 Z M 21.554688 -28.808594 "/></g></g></g><g fill="#282929" fill-opacity="1"><g transform="translate(227.834192, 132.738164)"><g/></g></g><g fill="#282929" fill-opacity="1"><g transform="translate(253.780814, 132.738164)"><g><path d="M 58.800781 -17.367188 C 58.105469 -18.136719 56.917969 -18.207031 56.222656 -17.507812 C 56.011719 -17.367188 35.921875 0.558594 7.8125 -4.535156 C 3.070312 -5.371094 0.628906 -7.183594 0.628906 -9.835938 C 0.558594 -14.71875 8.160156 -21.832031 13.183594 -22.808594 C 14.71875 -23.296875 16.390625 -23.019531 17.789062 -22.113281 C 18.765625 -21.136719 19.320312 -19.742188 19.320312 -18.277344 C 19.320312 -17.300781 20.089844 -16.460938 21.066406 -16.460938 C 22.113281 -16.460938 22.878906 -17.230469 22.949219 -18.207031 C 23.019531 -20.71875 21.972656 -23.15625 20.160156 -24.902344 C 17.925781 -26.574219 15.136719 -27.132812 12.484375 -26.367188 C 6.417969 -25.25 -3.070312 -17.160156 -3 -9.765625 C -3 -7.113281 -1.675781 -2.511719 7.183594 -0.90625 C 10.742188 -0.277344 14.371094 0.0703125 18.066406 0.0703125 C 32.855469 -0.0703125 47.222656 -5.300781 58.664062 -14.789062 C 59.011719 -15.136719 59.222656 -15.625 59.289062 -16.042969 C 59.289062 -16.53125 59.082031 -17.019531 58.800781 -17.367188 Z M 58.800781 -17.367188 "/></g></g></g><g fill="#282929" fill-opacity="1"><g transform="translate(309.649802, 132.738164)"><g><path d="M 50.851562 -19.808594 C 50.5 -20.160156 50.082031 -20.296875 49.59375 -20.296875 C 49.105469 -20.296875 48.617188 -20.160156 48.269531 -19.808594 C 39.898438 -11.441406 28.039062 -7.601562 16.390625 -9.554688 C 15.484375 -9.765625 14.859375 -10.601562 14.996094 -11.507812 C 15.554688 -14.859375 15.277344 -18.277344 13.324219 -19.390625 C 12.066406 -20.089844 10.183594 -20.160156 7.953125 -16.390625 C 7.113281 -15.136719 6.835938 -13.601562 7.113281 -12.136719 C 7.464844 -10.671875 8.371094 -9.347656 9.625 -8.578125 C 10.394531 -7.953125 9.488281 -6.90625 9 -6.417969 C 7.671875 -4.8125 5.371094 -4.535156 3.765625 -5.789062 C 1.742188 -6.695312 0.835938 -8.929688 1.605469 -10.953125 C 2.511719 -14.648438 6.136719 -17.855469 7.464844 -17.855469 C 8.441406 -17.855469 9.277344 -18.695312 9.277344 -19.671875 C 9.347656 -20.648438 8.511719 -21.484375 7.535156 -21.554688 L 7.464844 -21.554688 C 3.976562 -21.554688 -0.699219 -16.8125 -1.953125 -11.859375 C -3.140625 -8.230469 -1.464844 -4.253906 2.023438 -2.582031 C 3.347656 -1.8125 4.8125 -1.464844 6.347656 -1.394531 C 9.347656 -1.535156 11.996094 -3.347656 13.253906 -6.136719 C 13.394531 -6.347656 13.742188 -6.488281 14.019531 -6.417969 C 22.878906 -3.765625 39.0625 -5.441406 50.851562 -17.160156 C 51.199219 -17.507812 51.410156 -17.996094 51.410156 -18.484375 C 51.410156 -18.972656 51.199219 -19.460938 50.851562 -19.808594 Z M 11.371094 -11.859375 C 10.601562 -12.554688 10.464844 -13.671875 11.089844 -14.507812 C 11.300781 -14.859375 11.441406 -15.066406 11.578125 -15.277344 C 11.648438 -14.160156 11.578125 -12.972656 11.371094 -11.859375 Z M 11.371094 -11.859375 "/></g></g></g></svg>