<svg xmlns="http://www.w3.org/2000/svg" xmlns:xlink="http://www.w3.org/1999/xlink" width="974" zoomAndPan="magnify" viewBox="0 0 730.5 312.749988" height="417" preserveAspectRatio="xMidYMid meet" version="1.0"><defs><g/><clipPath id="7d1c7c539f"><path d="M 347 109 L 411.492188 109 L 411.492188 189 L 347 189 Z M 347 109 " clip-rule="nonzero"/></clipPath></defs><g fill="#171539" fill-opacity="1"><g transform="translate(105.607769, 191.978553)"><g><path d="M 148.933594 -34.484375 C 147.441406 -35.707031 145.132812 -35.433594 143.910156 -33.941406 C 143.640625 -33.535156 113.363281 3.394531 85.53125 -12.761719 C 81.867188 -15.339844 79.015625 -18.871094 77.519531 -22.945312 C 74.941406 -28.101562 71.820312 -34.347656 63.128906 -32.992188 C 58.648438 -32.3125 51.726562 -26.609375 45.886719 -20.09375 C 45.617188 -19.6875 45.074219 -19.550781 44.667969 -19.6875 C 44.257812 -19.820312 43.851562 -20.09375 43.851562 -20.636719 C 42.765625 -26.746094 38.691406 -31.90625 32.992188 -34.347656 C 28.375 -35.570312 20.90625 -36.929688 5.292969 -21.449219 C 4.480469 -20.773438 3.394531 -21.042969 3.53125 -22.128906 C 3.53125 -22.671875 6.246094 -33.667969 6.246094 -33.667969 C 6.652344 -35.570312 5.429688 -37.472656 3.53125 -38.015625 C 1.628906 -38.421875 -0.273438 -37.199219 -0.816406 -35.296875 L -7.332031 -6.652344 C -7.738281 -5.023438 -6.925781 -3.394531 -5.429688 -2.578125 C -3.800781 -1.902344 -2.035156 -2.308594 -1.085938 -3.664062 C 17.105469 -26.472656 26.066406 -28.644531 29.730469 -28.101562 C 33.398438 -27.425781 38.285156 -20.09375 37.742188 -8.28125 C 37.742188 -6.652344 38.691406 -5.160156 40.320312 -4.75 C 41.953125 -4.207031 43.582031 -4.886719 44.394531 -6.246094 C 49.960938 -15.75 60.824219 -25.386719 64.214844 -25.929688 C 67.476562 -26.472656 68.425781 -25.253906 71.140625 -19.820312 C 73.175781 -14.390625 76.976562 -9.773438 81.867188 -6.652344 C 87.566406 -3.257812 94.085938 -1.359375 100.738281 -1.359375 C 126.667969 -1.359375 148.390625 -27.96875 149.476562 -29.460938 C 150.699219 -30.953125 150.425781 -33.261719 148.933594 -34.484375 Z M 148.933594 -34.484375 "/></g></g></g><g fill="#171539" fill-opacity="1"><g transform="translate(248.560759, 191.978553)"><g><path d="M 128.433594 -31.089844 C 127.753906 -31.769531 126.941406 -32.039062 125.988281 -32.175781 C 125.039062 -32.175781 124.089844 -31.769531 123.410156 -31.089844 C 102.910156 -10.996094 73.042969 -4.074219 60.550781 -8.011719 C 49.960938 -11.402344 45.074219 -21.042969 42.902344 -31.226562 C 42.496094 -33.535156 42.902344 -35.707031 44.125 -37.605469 C 60.414062 -65.300781 77.65625 -105.21875 71.683594 -114.855469 C 70.324219 -117.027344 67.882812 -118.113281 65.300781 -117.707031 C 50.234375 -115.808594 37.335938 -84.582031 34.753906 -56.75 C 34.210938 -50.777344 34.210938 -44.9375 34.621094 -39.101562 C 34.753906 -37.199219 34.347656 -35.296875 33.261719 -33.667969 C 32.449219 -32.3125 31.496094 -30.820312 30.546875 -29.460938 C 18.601562 -11.8125 10.453125 -6.109375 7.058594 -6.515625 C 5.292969 -6.652344 3.800781 -7.875 3.394531 -9.503906 C 2.035156 -16.425781 3.664062 -23.488281 7.601562 -29.1875 C 10.453125 -32.582031 14.664062 -36.386719 18.734375 -35.570312 C 21.042969 -34.890625 22.945312 -33.125 23.894531 -30.953125 C 24.300781 -29.054688 26.066406 -27.695312 27.96875 -27.96875 C 29.867188 -28.238281 31.226562 -30.003906 30.953125 -32.039062 C 29.597656 -36.929688 25.929688 -40.730469 21.042969 -42.222656 C 16.835938 -43.582031 10.046875 -43.039062 2.171875 -33.804688 C -2.171875 -28.78125 -6.515625 -15.476562 -3.257812 -6.925781 C -1.902344 -2.851562 1.765625 0 5.972656 0.542969 C 6.382812 0.542969 6.925781 0.542969 7.332031 0.542969 C 14.527344 0.542969 23.621094 -7.195312 34.347656 -22.535156 C 34.753906 -23.078125 35.570312 -23.488281 36.386719 -23.351562 C 37.199219 -23.351562 37.878906 -22.808594 38.148438 -22.128906 C 41.136719 -12.21875 48.738281 -4.480469 58.378906 -1.222656 C 74.398438 3.800781 106.980469 -5.160156 128.433594 -26.066406 C 129.789062 -27.425781 129.789062 -29.597656 128.433594 -31.089844 Z M 41.953125 -56.070312 C 44.125 -80.914062 54.035156 -102.773438 62.453125 -109.019531 C 63.128906 -109.425781 64.082031 -109.5625 64.894531 -109.019531 C 65.574219 -108.613281 65.980469 -107.796875 65.980469 -106.980469 C 64.757812 -96.664062 57.429688 -78.066406 43.851562 -53.898438 C 41.679688 -50.367188 41.679688 -53.625 41.953125 -56.070312 Z M 41.953125 -56.070312 "/></g></g></g><g fill="#171539" fill-opacity="1"><g transform="translate(372.100388, 191.978553)"><g/></g></g><g fill="#171539" fill-opacity="1"><g transform="translate(422.602306, 191.978553)"><g><path d="M 114.449219 -33.804688 C 113.089844 -35.296875 110.785156 -35.433594 109.425781 -34.078125 C 109.019531 -33.804688 69.917969 1.085938 15.207031 -8.824219 C 5.972656 -10.453125 1.222656 -13.984375 1.222656 -19.144531 C 1.085938 -28.644531 15.882812 -42.496094 25.660156 -44.394531 C 28.644531 -45.34375 31.90625 -44.800781 34.621094 -43.039062 C 36.519531 -41.136719 37.605469 -38.421875 37.605469 -35.570312 C 37.605469 -33.667969 39.101562 -32.039062 41 -32.039062 C 43.039062 -32.039062 44.53125 -33.535156 44.667969 -35.433594 C 44.800781 -40.320312 42.765625 -45.074219 39.234375 -48.46875 C 34.890625 -51.726562 29.460938 -52.8125 24.300781 -51.320312 C 12.492188 -49.148438 -5.972656 -33.398438 -5.835938 -19.007812 C -5.835938 -13.847656 -3.257812 -4.886719 13.984375 -1.765625 C 20.90625 -0.542969 27.96875 0.136719 35.164062 0.136719 C 63.945312 -0.136719 91.914062 -10.316406 114.179688 -28.78125 C 114.855469 -29.460938 115.265625 -30.410156 115.398438 -31.226562 C 115.398438 -32.175781 114.992188 -33.125 114.449219 -33.804688 Z M 114.449219 -33.804688 "/></g></g></g><g fill="#171539" fill-opacity="1"><g transform="translate(531.344341, 191.978553)"><g><path d="M 98.972656 -38.558594 C 98.292969 -39.234375 97.480469 -39.507812 96.527344 -39.507812 C 95.578125 -39.507812 94.628906 -39.234375 93.949219 -38.558594 C 77.65625 -22.265625 54.578125 -14.796875 31.90625 -18.601562 C 30.140625 -19.007812 28.917969 -20.636719 29.1875 -22.402344 C 30.277344 -28.917969 29.730469 -35.570312 25.929688 -37.742188 C 23.488281 -39.101562 19.820312 -39.234375 15.476562 -31.90625 C 13.847656 -29.460938 13.304688 -26.472656 13.847656 -23.621094 C 14.527344 -20.773438 16.292969 -18.191406 18.734375 -16.699219 C 20.230469 -15.476562 18.464844 -13.441406 17.511719 -12.492188 C 14.933594 -9.367188 10.453125 -8.824219 7.332031 -11.269531 C 3.394531 -13.035156 1.628906 -17.378906 3.121094 -21.316406 C 4.886719 -28.511719 11.949219 -34.753906 14.527344 -34.753906 C 16.425781 -34.753906 18.058594 -36.386719 18.058594 -38.285156 C 18.191406 -40.1875 16.5625 -41.816406 14.664062 -41.953125 L 14.527344 -41.953125 C 7.738281 -41.953125 -1.359375 -32.71875 -3.800781 -23.078125 C -6.109375 -16.019531 -2.851562 -8.28125 3.9375 -5.023438 C 6.515625 -3.53125 9.367188 -2.851562 12.355469 -2.714844 C 18.191406 -2.988281 23.351562 -6.515625 25.796875 -11.949219 C 26.066406 -12.355469 26.746094 -12.625 27.289062 -12.492188 C 44.53125 -7.332031 76.027344 -10.589844 98.972656 -33.398438 C 99.652344 -34.078125 100.058594 -35.027344 100.058594 -35.976562 C 100.058594 -36.929688 99.652344 -37.878906 98.972656 -38.558594 Z M 22.128906 -23.078125 C 20.636719 -24.4375 20.363281 -26.609375 21.585938 -28.238281 C 21.992188 -28.917969 22.265625 -29.324219 22.535156 -29.730469 C 22.671875 -27.558594 22.535156 -25.253906 22.128906 -23.078125 Z M 22.128906 -23.078125 "/></g></g></g><g clip-path="url(#7d1c7c539f)"><path fill="#c9974e" d="M 377.140625 188.996094 L 376.675781 188.996094 C 376.675781 161.277344 372.183594 159.261719 346.9375 159.261719 L 346.9375 158.800781 C 372.183594 158.800781 376.675781 156.785156 376.675781 129.070312 L 377.140625 129.070312 C 377.140625 156.785156 381.632812 158.800781 406.871094 158.800781 L 406.871094 159.261719 C 381.632812 159.261719 377.140625 161.277344 377.140625 188.996094 Z M 404.800781 151.265625 L 404.699219 151.265625 C 404.699219 145.0625 403.6875 144.609375 398.039062 144.609375 L 398.039062 144.503906 C 403.6875 144.503906 404.699219 144.050781 404.699219 137.847656 L 404.800781 137.847656 C 404.800781 144.050781 405.804688 144.503906 411.453125 144.503906 L 411.453125 144.609375 C 405.804688 144.609375 404.800781 145.0625 404.800781 151.265625 Z M 391.921875 135.847656 L 391.71875 135.847656 C 391.71875 123.527344 389.71875 122.636719 378.503906 122.636719 L 378.503906 122.425781 C 389.71875 122.425781 391.71875 121.535156 391.71875 109.21875 L 391.921875 109.21875 C 391.921875 121.535156 393.921875 122.425781 405.136719 122.425781 L 405.136719 122.636719 C 393.921875 122.636719 391.921875 123.527344 391.921875 135.847656 " fill-opacity="1" fill-rule="evenodd"/></g></svg>