<svg xmlns="http://www.w3.org/2000/svg" xmlns:xlink="http://www.w3.org/1999/xlink" width="425" zoomAndPan="magnify" viewBox="0 0 318.75 319.499995" height="426" preserveAspectRatio="xMidYMid meet" version="1.0"><defs><g/><clipPath id="01cd8f6d49"><path d="M 100 105 L 215 105 L 215 223 L 100 223 Z M 100 105 " clip-rule="nonzero"/></clipPath><clipPath id="fd167c0a58"><path d="M 189.4375 75.613281 L 243.6875 190.304688 L 129.738281 244.203125 L 75.488281 129.511719 Z M 189.4375 75.613281 " clip-rule="nonzero"/></clipPath><clipPath id="e0bac81249"><path d="M 189.4375 75.613281 L 243.6875 190.304688 L 129.738281 244.203125 L 75.488281 129.511719 Z M 189.4375 75.613281 " clip-rule="nonzero"/></clipPath><clipPath id="563dc5290e"><path d="M 91 106 L 220 106 L 220 227 L 91 227 Z M 91 106 " clip-rule="nonzero"/></clipPath><clipPath id="2d3c67e66f"><path d="M 189.4375 75.613281 L 243.6875 190.304688 L 129.738281 244.203125 L 75.488281 129.511719 Z M 189.4375 75.613281 " clip-rule="nonzero"/></clipPath><clipPath id="70ac748faf"><path d="M 189.4375 75.613281 L 243.6875 190.304688 L 129.738281 244.203125 L 75.488281 129.511719 Z M 189.4375 75.613281 " clip-rule="nonzero"/></clipPath></defs><g clip-path="url(#01cd8f6d49)"><g clip-path="url(#fd167c0a58)"><g clip-path="url(#e0bac81249)"><path fill="#171539" d="M 212.363281 147.324219 L 211.929688 146.503906 C 209.113281 140.449219 203.613281 133.054688 195.421875 124.324219 C 188.398438 117.28125 182.425781 112.59375 177.507812 110.257812 C 172.792969 107.988281 169.671875 106.773438 168.144531 106.613281 C 165.785156 106.074219 163.378906 105.78125 160.933594 105.738281 C 153.496094 105.796875 146.097656 107.203125 138.738281 109.957031 C 129.269531 113.222656 120.847656 117.199219 113.472656 121.882812 C 107.128906 126.613281 103.496094 130.457031 102.566406 133.414062 C 100.78125 135.890625 100.410156 141.144531 101.449219 149.167969 L 106.453125 172.449219 C 107.753906 177.160156 109.039062 180.628906 110.308594 182.859375 C 115.015625 191.757812 124.105469 200.027344 137.574219 207.667969 L 156 217.789062 C 160.253906 219.855469 162.820312 220.953125 163.699219 221.074219 C 168.042969 222.109375 170.660156 222.46875 171.546875 222.15625 C 173.46875 222.015625 175.066406 221.6875 176.34375 221.175781 C 179.996094 220.0625 183.976562 216.503906 188.285156 210.496094 C 195.183594 199.90625 201.316406 189.0625 206.691406 177.972656 C 211.046875 169.257812 213.390625 163.441406 213.71875 160.527344 C 214.699219 155.96875 214.246094 151.566406 212.363281 147.324219 " fill-opacity="1" fill-rule="nonzero"/></g></g></g><g clip-path="url(#563dc5290e)"><g clip-path="url(#2d3c67e66f)"><g clip-path="url(#70ac748faf)"><path fill="#6a7b73" d="M 216.203125 156.8125 C 216.210938 156.785156 218.910156 148.996094 218.648438 145.03125 C 218.628906 144.71875 218.601562 144.40625 218.570312 144.089844 C 217.851562 137.28125 214.179688 130.0625 208.554688 126.371094 C 204.597656 123.773438 199.265625 123.8125 194.390625 123.953125 C 192.128906 124.015625 189.847656 124.167969 187.558594 124.316406 C 185.261719 124.46875 182.957031 124.621094 180.65625 124.6875 C 176.566406 124.800781 172.488281 124.644531 168.5 123.71875 C 162.628906 122.355469 157.378906 119.03125 152.207031 115.765625 C 147.054688 112.507812 141.980469 109.300781 136.367188 108 C 135.40625 107.773438 134.429688 107.605469 133.433594 107.503906 C 125.648438 106.707031 118.171875 112.574219 112.054688 117.777344 C 101.6875 126.601562 91.34375 139.621094 91.992188 153.074219 C 92.023438 153.6875 92.070312 154.300781 92.132812 154.914062 C 92.730469 160.570312 94.742188 166.09375 96.863281 171.433594 C 100.910156 181.632812 106.132812 191.398438 112.007812 200.679688 C 115.941406 206.886719 120.160156 212.964844 125.144531 218.335938 C 128.816406 222.292969 133.996094 226.625 139.085938 225.765625 C 144.113281 224.914062 148.242188 220.847656 151.886719 217.066406 C 154.382812 214.476562 156.714844 211.734375 159.054688 208.984375 C 161.023438 206.671875 162.996094 204.351562 165.066406 202.121094 C 171.074219 195.65625 178.21875 190.390625 185.316406 185.15625 C 187.820312 183.308594 190.3125 181.46875 192.757812 179.578125 C 198.292969 175.296875 203.792969 170.953125 208.753906 166.050781 C 211.578125 163.261719 216.238281 156.734375 216.246094 156.726562 L 216.203125 156.8125 M 216.847656 157.039062 C 216.835938 157.066406 216.820312 157.097656 216.800781 157.125 C 216.808594 157.113281 212.109375 163.695312 209.234375 166.539062 C 204.242188 171.472656 198.710938 175.839844 193.175781 180.117188 C 190.722656 182.015625 188.222656 183.859375 185.722656 185.707031 C 178.613281 190.945312 171.527344 196.175781 165.566406 202.585938 C 163.507812 204.804688 161.542969 207.113281 159.578125 209.425781 C 157.238281 212.175781 154.894531 214.933594 152.378906 217.542969 C 148.761719 221.289062 144.484375 225.542969 139.199219 226.4375 C 133.703125 227.367188 128.28125 222.722656 124.644531 218.800781 C 119.621094 213.386719 115.371094 207.265625 111.433594 201.042969 C 105.539062 191.734375 100.296875 181.933594 96.226562 171.683594 C 94.109375 166.34375 92.0625 160.742188 91.457031 154.984375 C 91.390625 154.359375 91.339844 153.734375 91.308594 153.105469 C 90.644531 139.3125 101.222656 126.101562 111.613281 117.257812 C 117.675781 112.097656 125.378906 105.992188 133.5 106.824219 C 134.527344 106.929688 135.535156 107.105469 136.523438 107.332031 C 142.265625 108.667969 147.4375 111.941406 152.570312 115.1875 C 157.765625 118.46875 162.914062 121.71875 168.652344 123.054688 C 172.5625 123.960938 176.574219 124.121094 180.636719 124.003906 C 182.921875 123.9375 185.214844 123.789062 187.511719 123.636719 C 189.800781 123.484375 192.09375 123.332031 194.371094 123.269531 C 199.203125 123.132812 204.761719 123.0625 208.929688 125.800781 C 214.761719 129.628906 218.511719 137.054688 219.246094 144.019531 C 219.28125 144.34375 219.308594 144.667969 219.332031 144.988281 C 219.601562 149.121094 216.835938 157.0625 216.847656 157.039062 Z M 216.847656 157.039062 " fill-opacity="0.9608" fill-rule="nonzero"/></g></g></g><g fill="#ffffff" fill-opacity="1"><g transform="translate(120.406537, 165.226746)"><g><path d="M 81.546875 -18.882812 C 80.726562 -19.550781 79.464844 -19.402344 78.796875 -18.582031 C 78.644531 -18.359375 62.070312 1.859375 46.832031 -6.988281 C 44.824219 -8.398438 43.261719 -10.332031 42.445312 -12.5625 C 41.03125 -15.386719 39.324219 -18.808594 34.566406 -18.0625 C 32.113281 -17.691406 28.320312 -14.570312 25.125 -11 C 24.976562 -10.777344 24.679688 -10.703125 24.457031 -10.777344 C 24.234375 -10.851562 24.011719 -11 24.011719 -11.300781 C 23.414062 -14.644531 21.183594 -17.46875 18.0625 -18.808594 C 15.535156 -19.476562 11.449219 -20.21875 2.898438 -11.746094 C 2.453125 -11.375 1.859375 -11.523438 1.933594 -12.117188 C 1.933594 -12.414062 3.417969 -18.433594 3.417969 -18.433594 C 3.640625 -19.476562 2.972656 -20.515625 1.933594 -20.8125 C 0.890625 -21.035156 -0.148438 -20.367188 -0.445312 -19.328125 L -4.015625 -3.640625 C -4.238281 -2.75 -3.792969 -1.859375 -2.972656 -1.414062 C -2.082031 -1.039062 -1.113281 -1.265625 -0.59375 -2.007812 C 9.367188 -14.496094 14.273438 -15.683594 16.28125 -15.386719 C 18.285156 -15.015625 20.960938 -11 20.664062 -4.535156 C 20.664062 -3.640625 21.183594 -2.824219 22.078125 -2.601562 C 22.96875 -2.304688 23.863281 -2.675781 24.308594 -3.417969 C 27.355469 -8.621094 33.300781 -13.902344 35.160156 -14.199219 C 36.945312 -14.496094 37.464844 -13.828125 38.953125 -10.851562 C 40.066406 -7.878906 42.148438 -5.351562 44.824219 -3.640625 C 47.945312 -1.785156 51.515625 -0.742188 55.15625 -0.742188 C 69.355469 -0.742188 81.25 -15.3125 81.84375 -16.128906 C 82.511719 -16.949219 82.363281 -18.210938 81.546875 -18.882812 Z M 81.546875 -18.882812 "/></g></g></g></svg>